Junicode-BoldItalic.ufo
<glyph name="exclam" format="1">
  <advance width="567"/>
  <unicode hex="0021"/>
  <outline>
    <contour>
      <point x="398" y="516"/>
      <point x="369" y="442" type="qcurve" smooth="yes"/>
      <point x="361" y="422"/>
      <point x="274" y="422"/>
      <point x="272" y="446" type="qcurve" smooth="yes"/>
      <point x="412" y="1165" type="line" smooth="yes"/>
      <point x="426" y="1243"/>
      <point x="457" y="1327"/>
      <point x="551" y="1399"/>
      <point x="598" y="1399" type="qcurve" smooth="yes"/>
      <point x="715" y="1399"/>
      <point x="715" y="1307" type="qcurve" smooth="yes"/>
      <point x="715" y="1272"/>
      <point x="684" y="1190"/>
    </contour>
    <contour>
      <point x="385" y="123" type="qcurve" smooth="yes"/>
      <point x="385" y="57"/>
      <point x="285" y="-27"/>
      <point x="156" y="-27"/>
      <point x="68" y="72"/>
      <point x="68" y="201"/>
      <point x="168" y="289"/>
      <point x="299" y="289"/>
      <point x="385" y="189"/>
    </contour>
  </outline>
</glyph>
<glyph name="quotedbl" format="1">
  <advance width="792"/>
  <unicode hex="0022"/>
  <outline>
    <contour>
      <point x="856" y="944" type="qcurve"/>
      <point x="768" y="944" type="line"/>
      <point x="772" y="973"/>
      <point x="805" y="1358"/>
      <point x="813" y="1380" type="qcurve" smooth="yes"/>
      <point x="850" y="1480"/>
      <point x="1081" y="1481"/>
      <point x="1081" y="1411" type="qcurve" smooth="yes"/>
      <point x="1081" y="1391"/>
      <point x="1065" y="1341"/>
      <point x="883" y="1001"/>
    </contour>
    <contour>
      <point x="455" y="944" type="qcurve"/>
      <point x="367" y="944" type="line"/>
      <point x="371" y="973"/>
      <point x="403" y="1358"/>
      <point x="412" y="1380" type="qcurve" smooth="yes"/>
      <point x="449" y="1480"/>
      <point x="680" y="1481"/>
      <point x="680" y="1411" type="qcurve" smooth="yes"/>
      <point x="680" y="1391"/>
      <point x="664" y="1341"/>
      <point x="482" y="1001"/>
    </contour>
  </outline>
</glyph>
<glyph name="numbersign" format="1">
  <advance width="1013"/>
  <unicode hex="0023"/>
  <outline>
    <contour>
      <point x="551" y="10" type="line"/>
      <point x="416" y="10" type="line"/>
      <point x="580" y="381" type="line"/>
      <point x="399" y="381" type="line"/>
      <point x="236" y="10" type="line"/>
      <point x="100" y="10" type="line"/>
      <point x="264" y="381" type="line"/>
      <point x="72" y="381" type="line"/>
      <point x="94" y="514" type="line"/>
      <point x="324" y="514" type="line"/>
      <point x="451" y="803" type="line"/>
      <point x="256" y="803" type="line"/>
      <point x="281" y="934" type="line"/>
      <point x="510" y="934" type="line"/>
      <point x="647" y="1249" type="line"/>
      <point x="782" y="1249" type="line"/>
      <point x="643" y="934" type="line"/>
      <point x="823" y="934" type="line"/>
      <point x="963" y="1249" type="line"/>
      <point x="1098" y="1249" type="line"/>
      <point x="958" y="934" type="line"/>
      <point x="1137" y="934" type="line"/>
      <point x="1114" y="803" type="line"/>
      <point x="901" y="803" type="line"/>
      <point x="774" y="514" type="line"/>
      <point x="952" y="514" type="line"/>
      <point x="930" y="381" type="line"/>
      <point x="715" y="381" type="line"/>
    </contour>
    <contour>
      <point x="639" y="514" type="line"/>
      <point x="766" y="803" type="line"/>
      <point x="586" y="803" type="line"/>
      <point x="459" y="514" type="line"/>
    </contour>
  </outline>
</glyph>
<glyph name="dollar" format="1">
  <advance width="993"/>
  <unicode hex="0024"/>
  <outline>
    <contour>
      <point x="1047" y="1303" type="qcurve"/>
      <point x="1047" y="1174"/>
      <point x="1024" y="1042" type="qcurve" smooth="yes"/>
      <point x="1020" y="1013"/>
      <point x="930" y="1014"/>
      <point x="928" y="1028" type="qcurve" smooth="yes"/>
      <point x="926" y="1069" type="line" smooth="yes"/>
      <point x="920" y="1204"/>
      <point x="793" y="1241" type="qcurve"/>
      <point x="674" y="797" type="line"/>
      <point x="830" y="748"/>
      <point x="956" y="618"/>
      <point x="956" y="514" type="qcurve" smooth="yes"/>
      <point x="956" y="420"/>
      <point x="872" y="213"/>
      <point x="639" y="0"/>
      <point x="457" y="-16" type="qcurve"/>
      <point x="420" y="-150" type="line" smooth="yes"/>
      <point x="416" y="-164"/>
      <point x="291" y="-166"/>
      <point x="295" y="-150" type="qcurve" smooth="yes"/>
      <point x="332" y="-14" type="line"/>
      <point x="232" y="-6"/>
      <point x="141" y="43" type="qcurve" smooth="yes"/>
      <point x="76" y="76" type="line"/>
      <point x="74" y="135" type="line"/>
      <point x="74" y="154" type="line" smooth="yes"/>
      <point x="74" y="248"/>
      <point x="104" y="375" type="qcurve" smooth="yes"/>
      <point x="110" y="400"/>
      <point x="203" y="399"/>
      <point x="199" y="379" type="qcurve" smooth="yes"/>
      <point x="195" y="348"/>
      <point x="195" y="326" type="qcurve" smooth="yes"/>
      <point x="195" y="232"/>
      <point x="287" y="111"/>
      <point x="358" y="88" type="qcurve"/>
      <point x="492" y="580" type="line"/>
      <point x="330" y="650"/>
      <point x="244" y="772"/>
      <point x="244" y="864" type="qcurve" smooth="yes"/>
      <point x="244" y="1038"/>
      <point x="502" y="1307"/>
      <point x="692" y="1329" type="qcurve"/>
      <point x="729" y="1466" type="line" smooth="yes"/>
      <point x="733" y="1482"/>
      <point x="858" y="1483"/>
      <point x="854" y="1466" type="qcurve" smooth="yes"/>
      <point x="817" y="1329" type="line"/>
      <point x="913" y="1325"/>
      <point x="983" y="1300"/>
      <point x="1031" y="1301"/>
    </contour>
    <contour>
      <point x="670" y="1245" type="line"/>
      <point x="580" y="1225"/>
      <point x="461" y="1051"/>
      <point x="461" y="973" type="qcurve" smooth="yes"/>
      <point x="461" y="887"/>
      <point x="561" y="840" type="qcurve"/>
    </contour>
    <contour>
      <point x="481" y="74" type="line"/>
      <point x="587" y="86"/>
      <point x="725" y="276"/>
      <point x="725" y="375" type="qcurve" smooth="yes"/>
      <point x="725" y="473"/>
      <point x="604" y="532" type="qcurve"/>
    </contour>
  </outline>
</glyph>
<glyph name="percent" format="1">
  <advance width="1814"/>
  <unicode hex="0025"/>
  <outline>
    <contour>
      <point x="1778" y="524" type="qcurve" smooth="yes"/>
      <point x="1778" y="409"/>
      <point x="1718" y="281" type="qcurve" smooth="yes"/>
      <point x="1661" y="152"/>
      <point x="1427" y="-45"/>
      <point x="1290" y="-45" type="qcurve" smooth="yes"/>
      <point x="1140" y="-45"/>
      <point x="987" y="129"/>
      <point x="987" y="266" type="qcurve" smooth="yes"/>
      <point x="987" y="436"/>
      <point x="1331" y="766"/>
      <point x="1520" y="766" type="qcurve" smooth="yes"/>
      <point x="1649" y="766"/>
      <point x="1712" y="698" type="qcurve" smooth="yes"/>
      <point x="1778" y="630"/>
    </contour>
    <contour>
      <point x="1702" y="1421" type="line"/>
      <point x="444" y="-121" type="line"/>
      <point x="279" y="-121" type="line"/>
      <point x="1309" y="1135" type="line"/>
      <point x="1274" y="1117"/>
      <point x="1139" y="1092"/>
      <point x="1092" y="1092" type="qcurve" smooth="yes"/>
      <point x="1043" y="1092"/>
      <point x="985" y="1102" type="qcurve"/>
      <point x="983" y="987"/>
      <point x="864" y="731"/>
      <point x="633" y="539"/>
      <point x="498" y="539" type="qcurve" smooth="yes"/>
      <point x="348" y="539"/>
      <point x="195" y="713"/>
      <point x="195" y="848" type="qcurve" smooth="yes"/>
      <point x="195" y="1018"/>
      <point x="537" y="1350"/>
      <point x="725" y="1350" type="qcurve" smooth="yes"/>
      <point x="928" y="1350"/>
      <point x="973" y="1190" type="qcurve"/>
      <point x="1022" y="1178"/>
      <point x="1077" y="1178" type="qcurve" smooth="yes"/>
      <point x="1341" y="1178"/>
      <point x="1565" y="1421" type="qcurve"/>
    </contour>
    <contour>
      <point x="1665" y="532" type="qcurve" smooth="yes"/>
      <point x="1665" y="598"/>
      <point x="1634" y="639" type="qcurve" smooth="yes"/>
      <point x="1605" y="680"/>
      <point x="1550" y="680" type="qcurve" smooth="yes"/>
      <point x="1458" y="680"/>
      <point x="1194" y="299"/>
      <point x="1194" y="190" type="qcurve" smooth="yes"/>
      <point x="1194" y="127"/>
      <point x="1255" y="41"/>
      <point x="1309" y="41" type="qcurve" smooth="yes"/>
      <point x="1442" y="41"/>
      <point x="1552" y="215" type="qcurve" smooth="yes"/>
      <point x="1665" y="389"/>
    </contour>
    <contour>
      <point x="872" y="1116" type="qcurve" smooth="yes"/>
      <point x="872" y="1120"/>
      <point x="870" y="1139"/>
      <point x="870" y="1143" type="qcurve" smooth="yes"/>
      <point x="780" y="1186"/>
      <point x="733" y="1257" type="qcurve"/>
      <point x="637" y="1230"/>
      <point x="401" y="874"/>
      <point x="401" y="774" type="qcurve" smooth="yes"/>
      <point x="401" y="711"/>
      <point x="461" y="625"/>
      <point x="514" y="625" type="qcurve" smooth="yes"/>
      <point x="649" y="625"/>
      <point x="872" y="971"/>
    </contour>
  </outline>
</glyph>
<glyph name="ampersand" format="1">
  <advance width="1656"/>
  <unicode hex="0026"/>
  <outline>
    <contour>
      <point x="104" y="401" type="qcurve" smooth="yes"/>
      <point x="104" y="503"/>
      <point x="203" y="758"/>
      <point x="494" y="1016"/>
      <point x="643" y="1016" type="qcurve" smooth="yes"/>
      <point x="694" y="1016"/>
      <point x="768" y="952"/>
      <point x="778" y="911" type="qcurve"/>
      <point x="887" y="997"/>
      <point x="1098" y="1270"/>
      <point x="1098" y="1354" type="qcurve" smooth="yes"/>
      <point x="1098" y="1372"/>
      <point x="1051" y="1425"/>
      <point x="1051" y="1464" type="qcurve" smooth="yes"/>
      <point x="1051" y="1503"/>
      <point x="1118" y="1573"/>
      <point x="1178" y="1573" type="qcurve" smooth="yes"/>
      <point x="1235" y="1573"/>
      <point x="1300" y="1487"/>
      <point x="1300" y="1432" type="qcurve" smooth="yes"/>
      <point x="1300" y="1344"/>
      <point x="1139" y="1108"/>
      <point x="924" y="903"/>
      <point x="616" y="662"/>
      <point x="518" y="594" type="qcurve" smooth="yes"/>
      <point x="315" y="455" type="line"/>
      <point x="315" y="318"/>
      <point x="498" y="154"/>
      <point x="651" y="154" type="qcurve" smooth="yes"/>
      <point x="895" y="154"/>
      <point x="1239" y="569"/>
      <point x="1247" y="819" type="qcurve"/>
      <point x="1220" y="842"/>
      <point x="1163" y="842" type="qcurve" smooth="yes"/>
      <point x="1108" y="842"/>
      <point x="1012" y="782"/>
      <point x="1012" y="758" type="qcurve" smooth="yes"/>
      <point x="1012" y="731"/>
      <point x="1057" y="700"/>
      <point x="1102" y="662"/>
      <point x="1102" y="623" type="qcurve" smooth="yes"/>
      <point x="1102" y="584"/>
      <point x="1038" y="537"/>
      <point x="991" y="537" type="qcurve" smooth="yes"/>
      <point x="946" y="537"/>
      <point x="872" y="600"/>
      <point x="872" y="651" type="qcurve" smooth="yes"/>
      <point x="872" y="770"/>
      <point x="1116" y="985"/>
      <point x="1253" y="985" type="qcurve" smooth="yes"/>
      <point x="1413" y="985"/>
      <point x="1530" y="803" type="qcurve" smooth="yes"/>
      <point x="1573" y="737"/>
      <point x="1591" y="737" type="qcurve" smooth="yes"/>
      <point x="1611" y="737"/>
      <point x="1612" y="815"/>
      <point x="1581" y="866"/>
      <point x="1581" y="887" type="qcurve" smooth="yes"/>
      <point x="1581" y="928"/>
      <point x="1649" y="973"/>
      <point x="1694" y="973" type="qcurve" smooth="yes"/>
      <point x="1739" y="973"/>
      <point x="1796" y="881"/>
      <point x="1796" y="834" type="qcurve" smooth="yes"/>
      <point x="1796" y="787"/>
      <point x="1778" y="731"/>
      <point x="1731" y="700"/>
      <point x="1698" y="686"/>
      <point x="1616" y="668"/>
      <point x="1593" y="659"/>
      <point x="1509" y="625"/>
      <point x="1485" y="625" type="qcurve" smooth="yes"/>
      <point x="1460" y="625"/>
      <point x="1434" y="655" type="qcurve" smooth="yes"/>
      <point x="1397" y="702"/>
      <point x="1313" y="780" type="qcurve"/>
      <point x="1323" y="723"/>
      <point x="1323" y="678" type="qcurve" smooth="yes"/>
      <point x="1323" y="526"/>
      <point x="1163" y="213"/>
      <point x="827" y="-29"/>
      <point x="608" y="-29" type="qcurve" smooth="yes"/>
      <point x="383" y="-29"/>
      <point x="104" y="194"/>
    </contour>
    <contour>
      <point x="571" y="737" type="qcurve"/>
      <point x="589" y="784"/>
      <point x="590" y="817" type="qcurve" smooth="yes"/>
      <point x="590" y="852"/>
      <point x="547" y="891"/>
      <point x="526" y="891" type="qcurve" smooth="yes"/>
      <point x="446" y="891"/>
      <point x="319" y="627"/>
      <point x="315" y="532" type="qcurve"/>
      <point x="381" y="577"/>
    </contour>
  </outline>
</glyph>
<glyph name="quotesingle" format="1">
  <advance width="438"/>
  <unicode hex="0027"/>
  <outline>
    <contour>
      <point x="668" y="1366" type="qcurve" smooth="yes"/>
      <point x="660" y="1343"/>
      <point x="567" y="1176" type="qcurve" smooth="yes"/>
      <point x="477" y="1006"/>
      <point x="453" y="944" type="qcurve"/>
      <point x="358" y="944" type="line"/>
      <point x="372" y="1016"/>
      <point x="399" y="1356"/>
      <point x="408" y="1380" type="qcurve" smooth="yes"/>
      <point x="443" y="1480"/>
      <point x="563" y="1481" type="qcurve" smooth="yes"/>
      <point x="676" y="1481"/>
      <point x="676" y="1409" type="qcurve" smooth="yes"/>
      <point x="676" y="1391"/>
    </contour>
  </outline>
</glyph>
<glyph name="parenleft" format="1">
  <advance width="692"/>
  <unicode hex="0028"/>
  <outline>
    <contour>
      <point x="932" y="1479" type="qcurve" smooth="yes"/>
      <point x="729" y="1340"/>
      <point x="487" y="961"/>
      <point x="356" y="535"/>
      <point x="356" y="291" type="qcurve" smooth="yes"/>
      <point x="356" y="144"/>
      <point x="422" y="-154"/>
      <point x="506" y="-307" type="qcurve" smooth="yes"/>
      <point x="514" y="-323"/>
      <point x="494" y="-342" type="qcurve" smooth="yes"/>
      <point x="478" y="-354"/>
      <point x="467" y="-352" type="qcurve" smooth="yes"/>
      <point x="463" y="-352"/>
      <point x="459" y="-350" type="qcurve" smooth="yes"/>
      <point x="314" y="-221"/>
      <point x="160" y="193"/>
      <point x="160" y="420" type="qcurve" smooth="yes"/>
      <point x="160" y="627"/>
      <point x="313" y="1055"/>
      <point x="653" y="1415"/>
      <point x="893" y="1524" type="qcurve" smooth="yes"/>
      <point x="897" y="1526"/>
      <point x="901" y="1526" type="qcurve" smooth="yes"/>
      <point x="913" y="1526"/>
      <point x="928" y="1509" type="qcurve" smooth="yes"/>
      <point x="938" y="1497"/>
      <point x="938" y="1489" type="qcurve" smooth="yes"/>
      <point x="938" y="1483"/>
    </contour>
  </outline>
</glyph>
<glyph name="parenright" format="1">
  <advance width="692"/>
  <unicode hex="0029"/>
  <outline>
    <contour>
      <point x="354" y="1522" type="qcurve" smooth="yes"/>
      <point x="485" y="1403"/>
      <point x="651" y="1006"/>
      <point x="651" y="778" type="qcurve" smooth="yes"/>
      <point x="651" y="549"/>
      <point x="575" y="332" type="qcurve" smooth="yes"/>
      <point x="466" y="21"/>
      <point x="180" y="-203" type="qcurve" smooth="yes"/>
      <point x="104" y="-260"/>
      <point x="-8" y="-317"/>
      <point x="-82" y="-356"/>
      <point x="-90" y="-356" type="qcurve" smooth="yes"/>
      <point x="-98" y="-356"/>
      <point x="-127" y="-326"/>
      <point x="-127" y="-317" type="qcurve" smooth="yes"/>
      <point x="-127" y="-309"/>
      <point x="-121" y="-307" type="qcurve" smooth="yes"/>
      <point x="84" y="-190"/>
      <point x="240" y="78" type="qcurve" smooth="yes"/>
      <point x="459" y="457"/>
      <point x="459" y="881" type="qcurve" smooth="yes"/>
      <point x="459" y="1239"/>
      <point x="307" y="1479" type="qcurve" smooth="yes"/>
      <point x="299" y="1493"/>
      <point x="336" y="1526"/>
      <point x="342" y="1526" type="qcurve" smooth="yes"/>
      <point x="350" y="1526"/>
    </contour>
  </outline>
</glyph>
<glyph name="asterisk" format="1">
  <advance width="827"/>
  <unicode hex="002A"/>
  <outline>
    <contour>
      <point x="733" y="872" type="line"/>
      <point x="657" y="776" type="line"/>
      <point x="446" y="915" type="line"/>
      <point x="387" y="641" type="line"/>
      <point x="276" y="641" type="line"/>
      <point x="336" y="915" type="line"/>
      <point x="70" y="778" type="line"/>
      <point x="35" y="874" type="line"/>
      <point x="301" y="1012" type="line"/>
      <point x="94" y="1147" type="line"/>
      <point x="170" y="1243" type="line"/>
      <point x="377" y="1108" type="line"/>
      <point x="436" y="1384" type="line"/>
      <point x="547" y="1384" type="line"/>
      <point x="487" y="1108" type="line"/>
      <point x="758" y="1247" type="line"/>
      <point x="793" y="1151" type="line"/>
      <point x="522" y="1012" type="line"/>
    </contour>
  </outline>
</glyph>
<glyph name="plus" format="1">
  <advance width="1062"/>
  <unicode hex="002B"/>
  <outline>
    <contour>
      <point x="944" y="362" type="line"/>
      <point x="625" y="362" type="line"/>
      <point x="625" y="0" type="line"/>
      <point x="444" y="0" type="line"/>
      <point x="444" y="362" type="line"/>
      <point x="123" y="362" type="line"/>
      <point x="123" y="510" type="line"/>
      <point x="444" y="510" type="line"/>
      <point x="444" y="836" type="line"/>
      <point x="625" y="836" type="line"/>
      <point x="625" y="510" type="line"/>
      <point x="944" y="510" type="line"/>
    </contour>
  </outline>
</glyph>
<glyph name="comma" format="1">
  <advance width="555"/>
  <unicode hex="002C"/>
  <outline>
    <contour>
      <point x="428" y="168" type="qcurve" smooth="yes"/>
      <point x="428" y="92"/>
      <point x="324" y="-74"/>
      <point x="174" y="-201"/>
      <point x="39" y="-287"/>
      <point x="-2" y="-303" type="qcurve" smooth="yes"/>
      <point x="-18" y="-313"/>
      <point x="-49" y="-256"/>
      <point x="-35" y="-244" type="qcurve" smooth="yes"/>
      <point x="153" y="-94"/>
      <point x="188" y="14" type="qcurve" smooth="yes"/>
      <point x="196" y="47"/>
      <point x="174" y="55" type="qcurve" smooth="yes"/>
      <point x="96" y="98"/>
      <point x="96" y="180" type="qcurve" smooth="yes"/>
      <point x="96" y="239"/>
      <point x="199" y="332"/>
      <point x="338" y="332"/>
      <point x="428" y="246"/>
    </contour>
  </outline>
</glyph>
<glyph name="hyphen" format="1">
  <advance width="862"/>
  <unicode hex="002D"/>
  <outline>
    <contour>
      <point x="815" y="610" type="line" smooth="yes"/>
      <point x="831" y="610"/>
      <point x="831" y="584" type="qcurve" smooth="yes"/>
      <point x="831" y="570"/>
      <point x="827" y="545" type="qcurve" smooth="yes"/>
      <point x="811" y="479"/>
      <point x="780" y="479" type="qcurve" smooth="yes"/>
      <point x="172" y="479" type="line" smooth="yes"/>
      <point x="152" y="479"/>
      <point x="152" y="510" type="qcurve" smooth="yes"/>
      <point x="152" y="524"/>
      <point x="156" y="545" type="qcurve" smooth="yes"/>
      <point x="170" y="611"/>
      <point x="205" y="610" type="qcurve" smooth="yes"/>
    </contour>
  </outline>
</glyph>
<glyph name="period" format="1">
  <advance width="555"/>
  <unicode hex="002E"/>
  <outline>
    <contour>
      <point x="406" y="119" type="qcurve" smooth="yes"/>
      <point x="406" y="56"/>
      <point x="319" y="-27"/>
      <point x="256" y="-27" type="qcurve" smooth="yes"/>
      <point x="197" y="-27"/>
      <point x="143" y="10" type="qcurve" smooth="yes"/>
      <point x="92" y="49"/>
      <point x="92" y="133" type="qcurve" smooth="yes"/>
      <point x="92" y="180"/>
      <point x="129" y="229" type="qcurve" smooth="yes"/>
      <point x="168" y="278"/>
      <point x="256" y="279" type="qcurve" smooth="yes"/>
      <point x="317" y="279"/>
      <point x="360" y="233" type="qcurve" smooth="yes"/>
      <point x="406" y="191"/>
    </contour>
  </outline>
</glyph>
<glyph name="slash" format="1">
  <advance width="528"/>
  <unicode hex="002F"/>
  <outline>
    <contour>
      <point x="793" y="1425" type="qcurve" smooth="yes"/>
      <point x="178" y="-16" type="line" smooth="yes"/>
      <point x="172" y="-24"/>
      <point x="156" y="-25" type="qcurve" smooth="yes"/>
      <point x="148" y="-25"/>
      <point x="135" y="-23" type="qcurve" smooth="yes"/>
      <point x="102" y="-15"/>
      <point x="74" y="4" type="qcurve" smooth="yes"/>
      <point x="47" y="20"/>
      <point x="47" y="33" type="qcurve" smooth="yes"/>
      <point x="47" y="35"/>
      <point x="49" y="39" type="qcurve" smooth="yes"/>
      <point x="664" y="1481" type="line" smooth="yes"/>
      <point x="668" y="1493"/>
      <point x="686" y="1493" type="qcurve" smooth="yes"/>
      <point x="704" y="1493"/>
      <point x="739" y="1481" type="qcurve" smooth="yes"/>
      <point x="794" y="1458"/>
      <point x="795" y="1434" type="qcurve" smooth="yes"/>
      <point x="795" y="1429"/>
    </contour>
  </outline>
</glyph>
<glyph name="zero" format="1">
  <advance width="954"/>
  <unicode hex="0030"/>
  <outline>
    <contour>
      <point x="84" y="344" type="qcurve" smooth="yes"/>
      <point x="84" y="563"/>
      <point x="272" y="1053"/>
      <point x="557" y="1333"/>
      <point x="754" y="1333" type="qcurve" smooth="yes"/>
      <point x="918" y="1333"/>
      <point x="1059" y="1122"/>
      <point x="1059" y="958" type="qcurve" smooth="yes"/>
      <point x="1059" y="751"/>
      <point x="889" y="289"/>
      <point x="580" y="-16"/>
      <point x="391" y="-16" type="qcurve" smooth="yes"/>
      <point x="225" y="-16"/>
      <point x="84" y="188"/>
    </contour>
    <contour>
      <point x="307" y="264" type="qcurve" smooth="yes"/>
      <point x="307" y="76"/>
      <point x="406" y="76" type="qcurve" smooth="yes"/>
      <point x="535" y="76"/>
      <point x="705" y="399"/>
      <point x="838" y="940"/>
      <point x="838" y="1079" type="qcurve" smooth="yes"/>
      <point x="838" y="1241"/>
      <point x="731" y="1243" type="qcurve" smooth="yes"/>
      <point x="625" y="1243"/>
      <point x="446" y="932"/>
      <point x="307" y="397"/>
    </contour>
  </outline>
</glyph>
<glyph name="one" format="1">
  <advance width="954"/>
  <unicode hex="0031"/>
  <outline>
    <contour>
      <point x="692" y="-8" type="qcurve" smooth="yes"/>
      <point x="610" y="0"/>
      <point x="412" y="0" type="qcurve" smooth="yes"/>
      <point x="207" y="0"/>
      <point x="125" y="-8" type="qcurve" smooth="yes"/>
      <point x="117" y="-8"/>
      <point x="117" y="4" type="qcurve" smooth="yes"/>
      <point x="117" y="14"/>
      <point x="121" y="31" type="qcurve" smooth="yes"/>
      <point x="131" y="70"/>
      <point x="145" y="68" type="qcurve" smooth="yes"/>
      <point x="249" y="68"/>
      <point x="346" y="158"/>
      <point x="381" y="281" type="qcurve" smooth="yes"/>
      <point x="596" y="1087" type="line" smooth="yes"/>
      <point x="606" y="1120"/>
      <point x="598" y="1149"/>
      <point x="575" y="1141" type="qcurve" smooth="yes"/>
      <point x="446" y="1094"/>
      <point x="412" y="1081" type="qcurve" smooth="yes"/>
      <point x="394" y="1075"/>
      <point x="383" y="1133"/>
      <point x="406" y="1141" type="qcurve" smooth="yes"/>
      <point x="594" y="1213"/>
      <point x="811" y="1354" type="qcurve" smooth="yes"/>
      <point x="844" y="1374"/>
      <point x="858" y="1374" type="qcurve" smooth="yes"/>
      <point x="878" y="1374"/>
      <point x="891" y="1360" type="qcurve" smooth="yes"/>
      <point x="897" y="1352"/>
      <point x="897" y="1341" type="qcurve" smooth="yes"/>
      <point x="897" y="1333"/>
      <point x="893" y="1321" type="qcurve" smooth="yes"/>
      <point x="864" y="1247"/>
      <point x="844" y="1161" type="qcurve" smooth="yes"/>
      <point x="608" y="283" type="line" smooth="yes"/>
      <point x="585" y="215"/>
      <point x="586" y="170" type="qcurve" smooth="yes"/>
      <point x="586" y="143"/>
      <point x="594" y="123" type="qcurve" smooth="yes"/>
      <point x="614" y="68"/>
      <point x="713" y="68" type="qcurve" smooth="yes"/>
      <point x="729" y="68"/>
      <point x="708" y="-8"/>
    </contour>
  </outline>
</glyph>
<glyph name="two" format="1">
  <advance width="954"/>
  <unicode hex="0032"/>
  <outline>
    <contour>
      <point x="885" y="260" type="qcurve" smooth="yes"/>
      <point x="725" y="31" type="line" smooth="yes"/>
      <point x="696" y="-8"/>
      <point x="635" y="-8" type="qcurve" smooth="yes"/>
      <point x="604" y="-8"/>
      <point x="444" y="0"/>
      <point x="311" y="0" type="qcurve" smooth="yes"/>
      <point x="182" y="0"/>
      <point x="-16" y="-8"/>
      <point x="-33" y="-8" type="qcurve" smooth="yes"/>
      <point x="-74" y="-8"/>
      <point x="-76" y="27" type="qcurve" smooth="yes"/>
      <point x="-76" y="52"/>
      <point x="-43" y="80" type="qcurve" smooth="yes"/>
      <point x="78" y="174"/>
      <point x="246" y="328" type="qcurve" smooth="yes"/>
      <point x="424" y="492"/>
      <point x="543" y="631" type="qcurve" smooth="yes"/>
      <point x="779" y="905"/>
      <point x="778" y="1049" type="qcurve" smooth="yes"/>
      <point x="778" y="1110"/>
      <point x="713" y="1184"/>
      <point x="651" y="1184" type="qcurve" smooth="yes"/>
      <point x="504" y="1184"/>
      <point x="365" y="1020" type="qcurve" smooth="yes"/>
      <point x="351" y="1000"/>
      <point x="293" y="1036"/>
      <point x="309" y="1055" type="qcurve" smooth="yes"/>
      <point x="403" y="1174"/>
      <point x="645" y="1333"/>
      <point x="772" y="1333" type="qcurve" smooth="yes"/>
      <point x="897" y="1333"/>
      <point x="1040" y="1196"/>
      <point x="1040" y="1087" type="qcurve" smooth="yes"/>
      <point x="1040" y="962"/>
      <point x="881" y="733"/>
      <point x="752" y="610" type="qcurve" smooth="yes"/>
      <point x="678" y="538"/>
      <point x="502" y="391"/>
      <point x="279" y="215"/>
      <point x="250" y="193" type="qcurve"/>
      <point x="545" y="193" type="line" smooth="yes"/>
      <point x="649" y="193"/>
      <point x="758" y="225"/>
      <point x="807" y="291" type="qcurve" smooth="yes"/>
      <point x="821" y="311"/>
      <point x="899" y="280"/>
    </contour>
  </outline>
</glyph>
<glyph name="three" format="1">
  <advance width="954"/>
  <unicode hex="0033"/>
  <outline>
    <contour>
      <point x="283" y="-23" type="qcurve" smooth="yes"/>
      <point x="183" y="-23"/>
      <point x="12" y="41"/>
      <point x="12" y="117" type="qcurve" smooth="yes"/>
      <point x="12" y="170"/>
      <point x="102" y="240"/>
      <point x="158" y="240" type="qcurve" smooth="yes"/>
      <point x="195" y="240"/>
      <point x="244" y="188"/>
      <point x="266" y="129"/>
      <point x="322" y="78"/>
      <point x="362" y="78" type="qcurve" smooth="yes"/>
      <point x="468" y="78"/>
      <point x="649" y="367"/>
      <point x="649" y="485" type="qcurve" smooth="yes"/>
      <point x="649" y="571"/>
      <point x="557" y="674"/>
      <point x="465" y="674" type="qcurve" smooth="yes"/>
      <point x="410" y="674"/>
      <point x="354" y="657" type="qcurve" smooth="yes"/>
      <point x="327" y="657"/>
      <point x="352" y="764"/>
      <point x="377" y="764" type="qcurve" smooth="yes"/>
      <point x="572" y="764"/>
      <point x="684" y="887" type="qcurve" smooth="yes"/>
      <point x="762" y="971"/>
      <point x="762" y="1079" type="qcurve" smooth="yes"/>
      <point x="762" y="1134"/>
      <point x="707" y="1204"/>
      <point x="653" y="1204" type="qcurve" smooth="yes"/>
      <point x="585" y="1204"/>
      <point x="467" y="1133"/>
      <point x="387" y="1049" type="qcurve" smooth="yes"/>
      <point x="369" y="1029"/>
      <point x="317" y="1077"/>
      <point x="334" y="1094" type="qcurve" smooth="yes"/>
      <point x="449" y="1213"/>
      <point x="641" y="1333"/>
      <point x="754" y="1333" type="qcurve" smooth="yes"/>
      <point x="865" y="1333"/>
      <point x="993" y="1206"/>
      <point x="993" y="1108" type="qcurve" smooth="yes"/>
      <point x="993" y="995"/>
      <point x="850" y="817"/>
      <point x="737" y="760" type="qcurve"/>
      <point x="903" y="707"/>
      <point x="903" y="530" type="qcurve" smooth="yes"/>
      <point x="903" y="383"/>
      <point x="713" y="123"/>
      <point x="426" y="-23"/>
    </contour>
  </outline>
</glyph>
<glyph name="four" format="1">
  <advance width="954"/>
  <unicode hex="0034"/>
  <outline>
    <contour>
      <point x="821" y="504" type="line"/>
      <point x="944" y="504" type="line" smooth="yes"/>
      <point x="950" y="504"/>
      <point x="950" y="489" type="qcurve" smooth="yes"/>
      <point x="950" y="473"/>
      <point x="942" y="438" type="qcurve" smooth="yes"/>
      <point x="926" y="372"/>
      <point x="909" y="371" type="qcurve" smooth="yes"/>
      <point x="786" y="371" type="line"/>
      <point x="727" y="156" type="line" smooth="yes"/>
      <point x="721" y="133"/>
      <point x="721" y="117" type="qcurve" smooth="yes"/>
      <point x="721" y="94"/>
      <point x="733" y="84" type="qcurve" smooth="yes"/>
      <point x="753" y="68"/>
      <point x="807" y="68" type="qcurve" smooth="yes"/>
      <point x="823" y="68"/>
      <point x="803" y="-8"/>
      <point x="786" y="-8" type="qcurve" smooth="yes"/>
      <point x="704" y="0"/>
      <point x="551" y="0" type="qcurve" smooth="yes"/>
      <point x="397" y="0"/>
      <point x="315" y="-8" type="qcurve" smooth="yes"/>
      <point x="299" y="-8"/>
      <point x="319" y="68"/>
      <point x="336" y="68" type="qcurve" smooth="yes"/>
      <point x="410" y="68"/>
      <point x="485" y="106"/>
      <point x="500" y="156" type="qcurve" smooth="yes"/>
      <point x="559" y="371" type="line"/>
      <point x="98" y="371" type="line"/>
      <point x="94" y="371" type="line" smooth="yes"/>
      <point x="22" y="371"/>
      <point x="23" y="414" type="qcurve" smooth="yes"/>
      <point x="23" y="465"/>
      <point x="111" y="551" type="qcurve" smooth="yes"/>
      <point x="504" y="934" type="line" smooth="yes"/>
      <point x="783" y="1206"/>
      <point x="961" y="1413" type="qcurve" smooth="yes"/>
      <point x="984" y="1431"/>
      <point x="1010" y="1432" type="qcurve" smooth="yes"/>
      <point x="1026" y="1432"/>
      <point x="1044" y="1423" type="qcurve" smooth="yes"/>
      <point x="1077" y="1409"/>
      <point x="1079" y="1382" type="qcurve" smooth="yes"/>
      <point x="1079" y="1372"/>
      <point x="1073" y="1360" type="qcurve" smooth="yes"/>
      <point x="240" y="545" type="line" smooth="yes"/>
      <point x="199" y="504"/>
      <point x="238" y="504" type="qcurve" smooth="yes"/>
      <point x="594" y="504" type="line"/>
      <point x="700" y="903" type="line" smooth="yes"/>
      <point x="706" y="926"/>
      <point x="934" y="926"/>
      <point x="928" y="903" type="qcurve" smooth="yes"/>
    </contour>
  </outline>
</glyph>
<glyph name="five" format="1">
  <advance width="954"/>
  <unicode hex="0035"/>
  <outline>
    <contour>
      <point x="1085" y="1317" type="line" smooth="yes"/>
      <point x="1089" y="1317"/>
      <point x="1090" y="1311" type="qcurve" smooth="yes"/>
      <point x="1090" y="1293"/>
      <point x="1059" y="1223" type="qcurve" smooth="yes"/>
      <point x="1016" y="1129"/>
      <point x="1001" y="1130" type="qcurve" smooth="yes"/>
      <point x="586" y="1130" type="line" smooth="yes"/>
      <point x="553" y="1130"/>
      <point x="537" y="1100" type="qcurve" smooth="yes"/>
      <point x="467" y="946" type="line" smooth="yes"/>
      <point x="459" y="926"/>
      <point x="467" y="911"/>
      <point x="481" y="913" type="qcurve" smooth="yes"/>
      <point x="534" y="917"/>
      <point x="547" y="918" type="qcurve" smooth="yes"/>
      <point x="735" y="918"/>
      <point x="922" y="756"/>
      <point x="922" y="631" type="qcurve" smooth="yes"/>
      <point x="922" y="441"/>
      <point x="778" y="256" type="qcurve" smooth="yes"/>
      <point x="682" y="131"/>
      <point x="403" y="-16"/>
      <point x="248" y="-16" type="qcurve" smooth="yes"/>
      <point x="4" y="-16"/>
      <point x="4" y="106" type="qcurve" smooth="yes"/>
      <point x="4" y="161"/>
      <point x="98" y="233"/>
      <point x="154" y="231" type="qcurve" smooth="yes"/>
      <point x="203" y="231"/>
      <point x="305" y="92"/>
      <point x="360" y="92" type="qcurve" smooth="yes"/>
      <point x="485" y="92"/>
      <point x="696" y="358"/>
      <point x="696" y="489" type="qcurve" smooth="yes"/>
      <point x="696" y="587"/>
      <point x="565" y="702"/>
      <point x="451" y="702" type="qcurve" smooth="yes"/>
      <point x="385" y="702"/>
      <point x="307" y="682" type="qcurve" smooth="yes"/>
      <point x="264" y="670"/>
      <point x="248" y="709"/>
      <point x="264" y="733" type="qcurve" smooth="yes"/>
      <point x="500" y="1262" type="line" smooth="yes"/>
      <point x="527" y="1317"/>
      <point x="584" y="1317" type="qcurve" smooth="yes"/>
    </contour>
  </outline>
</glyph>
<glyph name="six" format="1">
  <advance width="954"/>
  <unicode hex="0036"/>
  <outline>
    <contour>
      <point x="1065" y="1321" type="qcurve" smooth="yes"/>
      <point x="852" y="1219"/>
      <point x="524" y="874"/>
      <point x="432" y="686" type="qcurve"/>
      <point x="549" y="797"/>
      <point x="811" y="797"/>
      <point x="942" y="635"/>
      <point x="942" y="516" type="qcurve" smooth="yes"/>
      <point x="942" y="307"/>
      <point x="598" y="-16"/>
      <point x="387" y="-16" type="qcurve" smooth="yes"/>
      <point x="227" y="-16"/>
      <point x="84" y="162"/>
      <point x="84" y="305" type="qcurve" smooth="yes"/>
      <point x="84" y="381"/>
      <point x="109" y="475" type="qcurve" smooth="yes"/>
      <point x="183" y="754"/>
      <point x="731" y="1270"/>
      <point x="1042" y="1382" type="qcurve" smooth="yes"/>
      <point x="1065" y="1390"/>
      <point x="1083" y="1331"/>
    </contour>
    <contour>
      <point x="707" y="451" type="qcurve" smooth="yes"/>
      <point x="707" y="529"/>
      <point x="629" y="643"/>
      <point x="559" y="643" type="qcurve" smooth="yes"/>
      <point x="465" y="643"/>
      <point x="377" y="565" type="qcurve"/>
      <point x="311" y="403"/>
      <point x="311" y="260" type="qcurve" smooth="yes"/>
      <point x="311" y="88"/>
      <point x="438" y="88" type="qcurve" smooth="yes"/>
      <point x="555" y="88"/>
      <point x="707" y="326"/>
    </contour>
  </outline>
</glyph>
<glyph name="seven" format="1">
  <advance width="954"/>
  <unicode hex="0037"/>
  <outline>
    <contour>
      <point x="1135" y="1219" type="qcurve" smooth="yes"/>
      <point x="324" y="0" type="line" smooth="yes"/>
      <point x="316" y="-10"/>
      <point x="264" y="-23"/>
      <point x="240" y="-23" type="qcurve" smooth="yes"/>
      <point x="201" y="-23"/>
      <point x="121" y="-12"/>
      <point x="104" y="-2" type="qcurve" smooth="yes"/>
      <point x="94" y="4"/>
      <point x="94" y="10" type="qcurve" smooth="yes"/>
      <point x="94" y="14"/>
      <point x="98" y="20" type="qcurve" smooth="yes"/>
      <point x="227" y="176"/>
      <point x="299" y="274" type="qcurve" smooth="yes"/>
      <point x="946" y="1141" type="line"/>
      <point x="649" y="1141" type="line" smooth="yes"/>
      <point x="590" y="1141"/>
      <point x="514" y="1133"/>
      <point x="389" y="1071"/>
      <point x="348" y="1012" type="qcurve" smooth="yes"/>
      <point x="340" y="1000"/>
      <point x="293" y="993"/>
      <point x="256" y="1006"/>
      <point x="260" y="1018" type="qcurve" smooth="yes"/>
      <point x="377" y="1260" type="line" smooth="yes"/>
      <point x="385" y="1280"/>
      <point x="393" y="1294"/>
      <point x="410" y="1313"/>
      <point x="430" y="1317"/>
      <point x="446" y="1317" type="qcurve" smooth="yes"/>
      <point x="1128" y="1317" type="line" smooth="yes"/>
      <point x="1169" y="1317"/>
      <point x="1182" y="1282"/>
      <point x="1147" y="1239"/>
    </contour>
  </outline>
</glyph>
<glyph name="eight" format="1">
  <advance width="954"/>
  <unicode hex="0038"/>
  <outline>
    <contour>
      <point x="1049" y="1100" type="qcurve" smooth="yes"/>
      <point x="1049" y="975"/>
      <point x="874" y="778"/>
      <point x="745" y="719" type="qcurve"/>
      <point x="911" y="600"/>
      <point x="911" y="432" type="qcurve" smooth="yes"/>
      <point x="911" y="248"/>
      <point x="582" y="-16"/>
      <point x="391" y="-16" type="qcurve" smooth="yes"/>
      <point x="248" y="-16"/>
      <point x="61" y="121"/>
      <point x="61" y="246" type="qcurve" smooth="yes"/>
      <point x="61" y="393"/>
      <point x="258" y="586"/>
      <point x="422" y="655" type="qcurve"/>
      <point x="277" y="766"/>
      <point x="276" y="907" type="qcurve" smooth="yes"/>
      <point x="276" y="1079"/>
      <point x="575" y="1333"/>
      <point x="752" y="1333" type="qcurve" smooth="yes"/>
      <point x="887" y="1333"/>
      <point x="1049" y="1217"/>
    </contour>
    <contour>
      <point x="829" y="1083" type="qcurve" smooth="yes"/>
      <point x="829" y="1233"/>
      <point x="700" y="1233" type="qcurve" smooth="yes"/>
      <point x="620" y="1233"/>
      <point x="489" y="1094"/>
      <point x="489" y="1014" type="qcurve" smooth="yes"/>
      <point x="489" y="897"/>
      <point x="670" y="782" type="qcurve"/>
      <point x="829" y="890"/>
    </contour>
    <contour>
      <point x="674" y="342" type="qcurve" smooth="yes"/>
      <point x="674" y="471"/>
      <point x="498" y="596" type="qcurve"/>
      <point x="406" y="547"/>
      <point x="297" y="360"/>
      <point x="297" y="254" type="qcurve" smooth="yes"/>
      <point x="297" y="178"/>
      <point x="373" y="76"/>
      <point x="446" y="76" type="qcurve" smooth="yes"/>
      <point x="536" y="76"/>
      <point x="674" y="248"/>
    </contour>
  </outline>
</glyph>
<glyph name="nine" format="1">
  <advance width="954"/>
  <unicode hex="0039"/>
  <outline>
    <contour>
      <point x="752" y="377" type="qcurve" smooth="yes"/>
      <point x="500" y="119"/>
      <point x="123" y="-41" type="qcurve" smooth="yes"/>
      <point x="109" y="-47"/>
      <point x="90" y="-10"/>
      <point x="90" y="37"/>
      <point x="102" y="43" type="qcurve" smooth="yes"/>
      <point x="325" y="152"/>
      <point x="588" y="410"/>
      <point x="711" y="627" type="qcurve"/>
      <point x="668" y="594"/>
      <point x="528" y="535"/>
      <point x="477" y="535" type="qcurve" smooth="yes"/>
      <point x="348" y="535"/>
      <point x="201" y="686"/>
      <point x="201" y="797" type="qcurve" smooth="yes"/>
      <point x="201" y="901"/>
      <point x="313" y="1118"/>
      <point x="395" y="1192" type="qcurve" smooth="yes"/>
      <point x="553" y="1333"/>
      <point x="758" y="1333" type="qcurve" smooth="yes"/>
      <point x="912" y="1333"/>
      <point x="1061" y="1153"/>
      <point x="1061" y="1014" type="qcurve" smooth="yes"/>
      <point x="1061" y="694"/>
    </contour>
    <contour>
      <point x="834" y="1063" type="qcurve" smooth="yes"/>
      <point x="834" y="1227"/>
      <point x="700" y="1227" type="qcurve" smooth="yes"/>
      <point x="591" y="1227"/>
      <point x="446" y="979"/>
      <point x="446" y="860" type="qcurve" smooth="yes"/>
      <point x="446" y="782"/>
      <point x="516" y="674"/>
      <point x="580" y="674" type="qcurve" smooth="yes"/>
      <point x="676" y="674"/>
      <point x="756" y="733" type="qcurve"/>
      <point x="789" y="796"/>
      <point x="834" y="991"/>
    </contour>
  </outline>
</glyph>
<glyph name="colon" format="1">
  <advance width="591"/>
  <unicode hex="003A"/>
  <outline>
    <contour>
      <point x="633" y="707" type="qcurve" smooth="yes"/>
      <point x="633" y="644"/>
      <point x="541" y="551"/>
      <point x="414" y="551"/>
      <point x="367" y="598" type="qcurve" smooth="yes"/>
      <point x="320" y="643"/>
      <point x="319" y="770"/>
      <point x="414" y="864"/>
      <point x="541" y="864"/>
      <point x="633" y="773"/>
    </contour>
    <contour>
      <point x="463" y="131" type="qcurve" smooth="yes"/>
      <point x="463" y="65"/>
      <point x="418" y="18" type="qcurve" smooth="yes"/>
      <point x="373" y="-27"/>
      <point x="307" y="-27" type="qcurve" smooth="yes"/>
      <point x="244" y="-27"/>
      <point x="199" y="18" type="qcurve" smooth="yes"/>
      <point x="154" y="65"/>
      <point x="152" y="131" type="qcurve" smooth="yes"/>
      <point x="152" y="194"/>
      <point x="244" y="287"/>
      <point x="371" y="287"/>
      <point x="463" y="194"/>
    </contour>
  </outline>
</glyph>
<glyph name="semicolon" format="1">
  <advance width="591"/>
  <unicode hex="003B"/>
  <outline>
    <contour>
      <point x="600" y="647"/>
      <point x="510" y="561"/>
      <point x="383" y="561"/>
      <point x="295" y="647"/>
      <point x="295" y="774"/>
      <point x="383" y="864"/>
      <point x="510" y="864"/>
      <point x="600" y="774"/>
    </contour>
    <contour>
      <point x="483" y="176" type="qcurve" smooth="yes"/>
      <point x="483" y="76"/>
      <point x="303" y="-141"/>
      <point x="211" y="-207" type="qcurve" smooth="yes"/>
      <point x="119" y="-270"/>
      <point x="53" y="-295" type="qcurve" smooth="yes"/>
      <point x="37" y="-303"/>
      <point x="23" y="-274" type="qcurve" smooth="yes"/>
      <point x="7" y="-247"/>
      <point x="20" y="-236" type="qcurve" smooth="yes"/>
      <point x="45" y="-213"/>
      <point x="129" y="-147"/>
      <point x="227" y="-29"/>
      <point x="244" y="25" type="qcurve" smooth="yes"/>
      <point x="254" y="56"/>
      <point x="231" y="66" type="qcurve" smooth="yes"/>
      <point x="204" y="76"/>
      <point x="178" y="109" type="qcurve" smooth="yes"/>
      <point x="153" y="142"/>
      <point x="154" y="190" type="qcurve" smooth="yes"/>
      <point x="154" y="249"/>
      <point x="254" y="340"/>
      <point x="393" y="340"/>
      <point x="483" y="254"/>
    </contour>
  </outline>
</glyph>
<glyph name="less" format="1">
  <advance width="1024"/>
  <unicode hex="003C"/>
  <outline>
    <contour>
      <point x="344" y="422" type="line"/>
      <point x="948" y="162" type="line"/>
      <point x="948" y="-23" type="line"/>
      <point x="78" y="356" type="line"/>
      <point x="78" y="485" type="line"/>
      <point x="948" y="866" type="line"/>
      <point x="948" y="682" type="line"/>
    </contour>
  </outline>
</glyph>
<glyph name="equal" format="1">
  <advance width="1062"/>
  <unicode hex="003D"/>
  <outline>
    <contour>
      <point x="948" y="575" type="line"/>
      <point x="119" y="575" type="line"/>
      <point x="119" y="717" type="line"/>
      <point x="948" y="717" type="line"/>
    </contour>
    <contour>
      <point x="948" y="268" type="line"/>
      <point x="119" y="268" type="line"/>
      <point x="119" y="410" type="line"/>
      <point x="948" y="410" type="line"/>
    </contour>
  </outline>
</glyph>
<glyph name="greater" format="1">
  <advance width="1024"/>
  <unicode hex="003E"/>
  <outline>
    <contour>
      <point x="946" y="356" type="line"/>
      <point x="76" y="-23" type="line"/>
      <point x="76" y="162" type="line"/>
      <point x="680" y="422" type="line"/>
      <point x="76" y="682" type="line"/>
      <point x="76" y="866" type="line"/>
      <point x="946" y="485" type="line"/>
    </contour>
  </outline>
</glyph>
<glyph name="question" format="1">
  <advance width="692"/>
  <unicode hex="003F"/>
  <outline>
    <contour>
      <point x="254" y="584" type="qcurve" smooth="yes"/>
      <point x="254" y="672"/>
      <point x="336" y="778"/>
      <point x="418" y="813" type="qcurve" smooth="yes"/>
      <point x="539" y="866" type="line" smooth="yes"/>
      <point x="713" y="942"/>
      <point x="713" y="1042" type="qcurve" smooth="yes"/>
      <point x="713" y="1144"/>
      <point x="483" y="1145" type="qcurve" smooth="yes"/>
      <point x="458" y="1145"/>
      <point x="397" y="1200"/>
      <point x="397" y="1243" type="qcurve" smooth="yes"/>
      <point x="397" y="1288"/>
      <point x="485" y="1376"/>
      <point x="547" y="1376" type="qcurve" smooth="yes"/>
      <point x="662" y="1376"/>
      <point x="809" y="1169"/>
      <point x="809" y="1026" type="qcurve" smooth="yes"/>
      <point x="809" y="911"/>
      <point x="715" y="727"/>
      <point x="647" y="698" type="qcurve" smooth="yes"/>
      <point x="471" y="623" type="line" smooth="yes"/>
      <point x="383" y="586"/>
      <point x="350" y="510"/>
      <point x="350" y="442" type="qcurve" smooth="yes"/>
      <point x="350" y="426"/>
      <point x="287" y="410"/>
      <point x="283" y="426" type="qcurve" smooth="yes"/>
      <point x="254" y="537"/>
    </contour>
    <contour>
      <point x="375" y="127" type="qcurve" smooth="yes"/>
      <point x="375" y="59"/>
      <point x="289" y="-27"/>
      <point x="158" y="-27"/>
      <point x="68" y="57"/>
      <point x="68" y="195"/>
      <point x="156" y="289"/>
      <point x="291" y="289"/>
      <point x="375" y="195"/>
    </contour>
  </outline>
</glyph>
<glyph name="at" format="1">
  <advance width="1595"/>
  <unicode hex="0040"/>
  <outline>
    <contour>
      <point x="991" y="983" type="qcurve"/>
      <point x="1012" y="1034" type="line" smooth="yes"/>
      <point x="1018" y="1052"/>
      <point x="1065" y="1053" type="qcurve" smooth="yes"/>
      <point x="1081" y="1053"/>
      <point x="1135" y="1026"/>
      <point x="1128" y="1010" type="qcurve" smooth="yes"/>
      <point x="987" y="532" type="line" smooth="yes"/>
      <point x="958" y="430"/>
      <point x="1001" y="430" type="qcurve" smooth="yes"/>
      <point x="1167" y="430"/>
      <point x="1397" y="662"/>
      <point x="1397" y="840" type="qcurve" smooth="yes"/>
      <point x="1397" y="1039"/>
      <point x="1104" y="1298"/>
      <point x="883" y="1298" type="qcurve" smooth="yes"/>
      <point x="695" y="1298"/>
      <point x="401" y="1100"/>
      <point x="254" y="786"/>
      <point x="254" y="604" type="qcurve" smooth="yes"/>
      <point x="254" y="530"/>
      <point x="289" y="387"/>
      <point x="375" y="240"/>
      <point x="504" y="127"/>
      <point x="713" y="55"/>
      <point x="844" y="55" type="qcurve" smooth="yes"/>
      <point x="979" y="55"/>
      <point x="1167" y="127" type="qcurve" smooth="yes"/>
      <point x="1183" y="135"/>
      <point x="1210" y="84"/>
      <point x="1194" y="76" type="qcurve" smooth="yes"/>
      <point x="1018" y="-33"/>
      <point x="782" y="-33" type="qcurve" smooth="yes"/>
      <point x="649" y="-33"/>
      <point x="401" y="45"/>
      <point x="197" y="197"/>
      <point x="72" y="446"/>
      <point x="72" y="602" type="qcurve" smooth="yes"/>
      <point x="72" y="835"/>
      <point x="307" y="1198"/>
      <point x="682" y="1384"/>
      <point x="901" y="1384" type="qcurve" smooth="yes"/>
      <point x="1188" y="1384"/>
      <point x="1526" y="1067"/>
      <point x="1526" y="848" type="qcurve" smooth="yes"/>
      <point x="1526" y="647"/>
      <point x="1223" y="352"/>
      <point x="975" y="352" type="qcurve" smooth="yes"/>
      <point x="832" y="352"/>
      <point x="831" y="436" type="qcurve" smooth="yes"/>
      <point x="831" y="467"/>
      <point x="850" y="518" type="qcurve"/>
      <point x="840" y="524" type="line"/>
      <point x="693" y="358"/>
      <point x="590" y="358" type="qcurve" smooth="yes"/>
      <point x="531" y="358"/>
      <point x="477" y="440"/>
      <point x="477" y="494" type="qcurve" smooth="yes"/>
      <point x="477" y="590"/>
      <point x="588" y="829"/>
      <point x="791" y="1014"/>
      <point x="899" y="1014" type="qcurve" smooth="yes"/>
      <point x="960" y="1014"/>
    </contour>
    <contour>
      <point x="883" y="967" type="qcurve" smooth="yes"/>
      <point x="822" y="967"/>
      <point x="698" y="793"/>
      <point x="629" y="584"/>
      <point x="629" y="518" type="qcurve" smooth="yes"/>
      <point x="629" y="448"/>
      <point x="659" y="449" type="qcurve" smooth="yes"/>
      <point x="710" y="449"/>
      <point x="825" y="580" type="qcurve" smooth="yes"/>
      <point x="886" y="650"/>
      <point x="924" y="772" type="qcurve" smooth="yes"/>
      <point x="967" y="920" type="line"/>
      <point x="949" y="967"/>
    </contour>
  </outline>
</glyph>
<glyph name="B" format="1">
  <advance width="1243"/>
  <unicode hex="0042"/>
  <outline>
    <contour>
      <point x="1186" y="453" type="qcurve" smooth="yes"/>
      <point x="1186" y="289"/>
      <point x="903" y="-6"/>
      <point x="545" y="-6" type="qcurve" smooth="yes"/>
      <point x="486" y="-6"/>
      <point x="336" y="0"/>
      <point x="207" y="0"/>
      <point x="-16" y="-8" type="qcurve" smooth="yes"/>
      <point x="-24" y="-8"/>
      <point x="-25" y="16"/>
      <point x="-8" y="86"/>
      <point x="8" y="86" type="qcurve" smooth="yes"/>
      <point x="119" y="86"/>
      <point x="186" y="152"/>
      <point x="201" y="203" type="qcurve" smooth="yes"/>
      <point x="487" y="1155" type="line" smooth="yes"/>
      <point x="495" y="1182"/>
      <point x="496" y="1208" type="qcurve" smooth="yes"/>
      <point x="496" y="1233"/>
      <point x="436" y="1264"/>
      <point x="346" y="1264" type="qcurve" smooth="yes"/>
      <point x="340" y="1264"/>
      <point x="340" y="1288"/>
      <point x="358" y="1358"/>
      <point x="373" y="1358" type="qcurve" smooth="yes"/>
      <point x="512" y="1354"/>
      <point x="692" y="1354"/>
      <point x="854" y="1358"/>
      <point x="928" y="1358" type="qcurve" smooth="yes"/>
      <point x="1096" y="1358"/>
      <point x="1284" y="1214"/>
      <point x="1284" y="1098" type="qcurve" smooth="yes"/>
      <point x="1284" y="983"/>
      <point x="1135" y="803"/>
      <point x="1026" y="752" type="qcurve" smooth="yes"/>
      <point x="1006" y="742"/>
      <point x="1006" y="723"/>
      <point x="1024" y="711" type="qcurve" smooth="yes"/>
      <point x="1186" y="607"/>
    </contour>
    <contour>
      <point x="1051" y="1094" type="qcurve" smooth="yes"/>
      <point x="1051" y="1190"/>
      <point x="944" y="1280"/>
      <point x="795" y="1280" type="qcurve" smooth="yes"/>
      <point x="758" y="1280"/>
      <point x="748" y="1239" type="qcurve" smooth="yes"/>
      <point x="612" y="797" type="line" smooth="yes"/>
      <point x="610" y="789"/>
      <point x="610" y="776" type="qcurve" smooth="yes"/>
      <point x="610" y="760"/>
      <point x="662" y="760" type="qcurve" smooth="yes"/>
      <point x="836" y="760"/>
      <point x="1051" y="940"/>
    </contour>
    <contour>
      <point x="934" y="479" type="qcurve" smooth="yes"/>
      <point x="934" y="585"/>
      <point x="780" y="682"/>
      <point x="604" y="682" type="qcurve" smooth="yes"/>
      <point x="577" y="682"/>
      <point x="569" y="655" type="qcurve" smooth="yes"/>
      <point x="442" y="229" type="line" smooth="yes"/>
      <point x="434" y="198"/>
      <point x="432" y="164" type="qcurve" smooth="yes"/>
      <point x="432" y="74"/>
      <point x="532" y="74" type="qcurve" smooth="yes"/>
      <point x="729" y="74"/>
      <point x="934" y="282"/>
    </contour>
  </outline>
</glyph>
<glyph name="C" format="1">
  <advance width="1468"/>
  <unicode hex="0043"/>
  <outline>
    <contour>
      <point x="1198" y="37" type="qcurve"/>
      <point x="1145" y="31"/>
      <point x="1110" y="16" type="qcurve"/>
      <point x="934" y="-27"/>
      <point x="709" y="-27" type="qcurve" smooth="yes"/>
      <point x="484" y="-27"/>
      <point x="178" y="240"/>
      <point x="178" y="469" type="qcurve" smooth="yes"/>
      <point x="178" y="819"/>
      <point x="776" y="1384"/>
      <point x="1149" y="1384" type="qcurve" smooth="yes"/>
      <point x="1258" y="1384"/>
      <point x="1524" y="1329"/>
      <point x="1583" y="1329" type="qcurve"/>
      <point x="1571" y="1149"/>
      <point x="1522" y="995" type="qcurve" smooth="yes"/>
      <point x="1516" y="979"/>
      <point x="1425" y="979"/>
      <point x="1425" y="999" type="qcurve"/>
      <point x="1433" y="1052"/>
      <point x="1434" y="1073" type="qcurve"/>
      <point x="1434" y="1177"/>
      <point x="1341" y="1237" type="qcurve"/>
      <point x="1249" y="1298"/>
      <point x="1108" y="1298" type="qcurve" smooth="yes"/>
      <point x="834" y="1298"/>
      <point x="418" y="780"/>
      <point x="418" y="455" type="qcurve" smooth="yes"/>
      <point x="418" y="303"/>
      <point x="590" y="63"/>
      <point x="768" y="63" type="qcurve" smooth="yes"/>
      <point x="885" y="63"/>
      <point x="977" y="96" type="qcurve" smooth="yes"/>
      <point x="1069" y="128"/>
      <point x="1146" y="200" type="qcurve" smooth="yes"/>
      <point x="1167" y="220"/>
      <point x="1272" y="346" type="qcurve" smooth="yes"/>
      <point x="1282" y="358"/>
      <point x="1368" y="358"/>
      <point x="1368" y="342" type="qcurve" smooth="yes"/>
      <point x="1368" y="303"/>
      <point x="1231" y="72"/>
    </contour>
  </outline>
</glyph>
<glyph name="D" format="1">
  <advance width="1552"/>
  <unicode hex="0044"/>
  <outline>
    <contour>
      <point x="1608" y="893" type="qcurve" smooth="yes"/>
      <point x="1608" y="574"/>
      <point x="1053" y="-8"/>
      <point x="666" y="-8" type="qcurve" smooth="yes"/>
      <point x="623" y="-8"/>
      <point x="317" y="0"/>
      <point x="174" y="0"/>
      <point x="-14" y="-8" type="qcurve" smooth="yes"/>
      <point x="-22" y="-8"/>
      <point x="-25" y="18"/>
      <point x="-8" y="86"/>
      <point x="6" y="86" type="qcurve" smooth="yes"/>
      <point x="86" y="86"/>
      <point x="154" y="111"/>
      <point x="188" y="164"/>
      <point x="201" y="203" type="qcurve" smooth="yes"/>
      <point x="487" y="1153" type="line" smooth="yes"/>
      <point x="495" y="1182"/>
      <point x="496" y="1204" type="qcurve" smooth="yes"/>
      <point x="496" y="1229"/>
      <point x="444" y="1264"/>
      <point x="348" y="1264" type="qcurve" smooth="yes"/>
      <point x="332" y="1264"/>
      <point x="354" y="1358"/>
      <point x="369" y="1358" type="qcurve" smooth="yes"/>
      <point x="459" y="1354"/>
      <point x="741" y="1354"/>
      <point x="958" y="1358"/>
      <point x="1008" y="1358" type="qcurve" smooth="yes"/>
      <point x="1282" y="1358"/>
      <point x="1608" y="1114"/>
    </contour>
    <contour>
      <point x="1348" y="868" type="qcurve" smooth="yes"/>
      <point x="1348" y="1056"/>
      <point x="1114" y="1280"/>
      <point x="924" y="1280" type="qcurve" smooth="yes"/>
      <point x="858" y="1280"/>
      <point x="780" y="1272"/>
      <point x="745" y="1231"/>
      <point x="733" y="1190" type="qcurve" smooth="yes"/>
      <point x="451" y="264" type="line" smooth="yes"/>
      <point x="439" y="221"/>
      <point x="438" y="188" type="qcurve" smooth="yes"/>
      <point x="438" y="69"/>
      <point x="614" y="72" type="qcurve" smooth="yes"/>
      <point x="886" y="72"/>
      <point x="1348" y="585"/>
    </contour>
  </outline>
</glyph>
<glyph name="F" format="1">
  <advance width="1234"/>
  <unicode hex="0046"/>
  <outline>
    <contour>
      <point x="434" y="203" type="line" smooth="yes"/>
      <point x="426" y="174"/>
      <point x="426" y="147" type="qcurve" smooth="yes"/>
      <point x="426" y="86"/>
      <point x="573" y="86" type="qcurve" smooth="yes"/>
      <point x="581" y="86"/>
      <point x="582" y="57"/>
      <point x="563" y="-8"/>
      <point x="553" y="-8" type="qcurve" smooth="yes"/>
      <point x="477" y="0"/>
      <point x="61" y="0"/>
      <point x="-14" y="-8" type="qcurve" smooth="yes"/>
      <point x="-22" y="-8"/>
      <point x="-25" y="18"/>
      <point x="-8" y="86"/>
      <point x="6" y="86" type="qcurve" smooth="yes"/>
      <point x="92" y="86"/>
      <point x="135" y="106" type="qcurve" smooth="yes"/>
      <point x="178" y="126"/>
      <point x="201" y="203" type="qcurve" smooth="yes"/>
      <point x="487" y="1155" type="line" smooth="yes"/>
      <point x="495" y="1182"/>
      <point x="496" y="1206" type="qcurve" smooth="yes"/>
      <point x="496" y="1263"/>
      <point x="348" y="1264" type="qcurve" smooth="yes"/>
      <point x="340" y="1264"/>
      <point x="340" y="1294"/>
      <point x="356" y="1358"/>
      <point x="369" y="1358" type="qcurve" smooth="yes"/>
      <point x="512" y="1352"/>
      <point x="745" y="1352"/>
      <point x="1241" y="1358"/>
      <point x="1341" y="1358" type="qcurve" smooth="yes"/>
      <point x="1407" y="1358"/>
      <point x="1407" y="1333" type="qcurve" smooth="yes"/>
      <point x="1407" y="1317"/>
      <point x="1403" y="1298" type="qcurve" smooth="yes"/>
      <point x="1317" y="1012" type="line" smooth="yes"/>
      <point x="1307" y="996"/>
      <point x="1219" y="995"/>
      <point x="1225" y="1012" type="qcurve" smooth="yes"/>
      <point x="1235" y="1049"/>
      <point x="1235" y="1143"/>
      <point x="1135" y="1255"/>
      <point x="1065" y="1257" type="qcurve" smooth="yes"/>
      <point x="866" y="1263"/>
      <point x="774" y="1264" type="qcurve" smooth="yes"/>
      <point x="754" y="1264"/>
      <point x="743" y="1231" type="qcurve" smooth="yes"/>
      <point x="602" y="766" type="line" smooth="yes"/>
      <point x="600" y="754"/>
      <point x="600" y="745" type="qcurve" smooth="yes"/>
      <point x="600" y="725"/>
      <point x="621" y="725" type="qcurve" smooth="yes"/>
      <point x="745" y="725" type="line" smooth="yes"/>
      <point x="858" y="725"/>
      <point x="895" y="854" type="qcurve" smooth="yes"/>
      <point x="926" y="967" type="line" smooth="yes"/>
      <point x="930" y="983"/>
      <point x="1024" y="981"/>
      <point x="1020" y="967" type="qcurve" smooth="yes"/>
      <point x="993" y="904"/>
      <point x="858" y="440"/>
      <point x="848" y="391" type="qcurve" smooth="yes"/>
      <point x="844" y="377"/>
      <point x="758" y="379"/>
      <point x="762" y="391" type="qcurve" smooth="yes"/>
      <point x="782" y="459" type="line" smooth="yes"/>
      <point x="807" y="543"/>
      <point x="807" y="565" type="qcurve" smooth="yes"/>
      <point x="807" y="633"/>
      <point x="725" y="633" type="qcurve" smooth="yes"/>
      <point x="588" y="633" type="line" smooth="yes"/>
      <point x="563" y="633"/>
      <point x="555" y="598" type="qcurve" smooth="yes"/>
    </contour>
  </outline>
</glyph>
<glyph name="H" format="1">
  <advance width="1540"/>
  <unicode hex="0048"/>
  <outline>
    <contour>
      <point x="1225" y="203" type="line" smooth="yes"/>
      <point x="1219" y="178"/>
      <point x="1217" y="154" type="qcurve" smooth="yes"/>
      <point x="1217" y="86"/>
      <point x="1366" y="86" type="qcurve" smooth="yes"/>
      <point x="1372" y="86"/>
      <point x="1372" y="57"/>
      <point x="1354" y="-8"/>
      <point x="1343" y="-8" type="qcurve" smooth="yes"/>
      <point x="1265" y="0"/>
      <point x="842" y="0"/>
      <point x="766" y="-8" type="qcurve" smooth="yes"/>
      <point x="760" y="-8"/>
      <point x="760" y="20"/>
      <point x="776" y="86"/>
      <point x="791" y="86" type="qcurve" smooth="yes"/>
      <point x="879" y="86"/>
      <point x="969" y="133"/>
      <point x="989" y="203" type="qcurve" smooth="yes"/>
      <point x="1106" y="614" type="line" smooth="yes"/>
      <point x="1110" y="628"/>
      <point x="1110" y="653"/>
      <point x="1083" y="653" type="qcurve" smooth="yes"/>
      <point x="604" y="653" type="line" smooth="yes"/>
      <point x="569" y="653"/>
      <point x="561" y="621" type="qcurve" smooth="yes"/>
      <point x="440" y="203" type="line" smooth="yes"/>
      <point x="434" y="178"/>
      <point x="434" y="154" type="qcurve" smooth="yes"/>
      <point x="434" y="86"/>
      <point x="584" y="86" type="qcurve" smooth="yes"/>
      <point x="590" y="86"/>
      <point x="590" y="57"/>
      <point x="571" y="-8"/>
      <point x="559" y="-8" type="qcurve" smooth="yes"/>
      <point x="481" y="0"/>
      <point x="59" y="0"/>
      <point x="-16" y="-8" type="qcurve" smooth="yes"/>
      <point x="-24" y="-8"/>
      <point x="-25" y="18"/>
      <point x="-8" y="86"/>
      <point x="8" y="86" type="qcurve" smooth="yes"/>
      <point x="96" y="86"/>
      <point x="186" y="133"/>
      <point x="207" y="203" type="qcurve" smooth="yes"/>
      <point x="477" y="1153" type="line" smooth="yes"/>
      <point x="485" y="1180"/>
      <point x="485" y="1208" type="qcurve" smooth="yes"/>
      <point x="485" y="1269"/>
      <point x="346" y="1270" type="qcurve" smooth="yes"/>
      <point x="340" y="1270"/>
      <point x="340" y="1296"/>
      <point x="360" y="1364"/>
      <point x="373" y="1364" type="qcurve" smooth="yes"/>
      <point x="430" y="1358"/>
      <point x="887" y="1358"/>
      <point x="944" y="1364" type="qcurve" smooth="yes"/>
      <point x="952" y="1364"/>
      <point x="952" y="1337"/>
      <point x="930" y="1270"/>
      <point x="918" y="1270" type="qcurve" smooth="yes"/>
      <point x="812" y="1270"/>
      <point x="731" y="1217"/>
      <point x="715" y="1153" type="qcurve" smooth="yes"/>
      <point x="608" y="784" type="line" smooth="yes"/>
      <point x="604" y="770"/>
      <point x="604" y="750"/>
      <point x="633" y="750" type="qcurve" smooth="yes"/>
      <point x="1110" y="750" type="line" smooth="yes"/>
      <point x="1147" y="750"/>
      <point x="1155" y="784" type="qcurve" smooth="yes"/>
      <point x="1262" y="1153" type="line" smooth="yes"/>
      <point x="1270" y="1180"/>
      <point x="1270" y="1208" type="qcurve" smooth="yes"/>
      <point x="1270" y="1269"/>
      <point x="1128" y="1270" type="qcurve" smooth="yes"/>
      <point x="1122" y="1270"/>
      <point x="1122" y="1296"/>
      <point x="1145" y="1364"/>
      <point x="1155" y="1364" type="qcurve" smooth="yes"/>
      <point x="1212" y="1358"/>
      <point x="1669" y="1358"/>
      <point x="1726" y="1364" type="qcurve" smooth="yes"/>
      <point x="1734" y="1364"/>
      <point x="1735" y="1339"/>
      <point x="1714" y="1270"/>
      <point x="1700" y="1270" type="qcurve" smooth="yes"/>
      <point x="1585" y="1270"/>
      <point x="1513" y="1212"/>
      <point x="1497" y="1153" type="qcurve" smooth="yes"/>
    </contour>
  </outline>
</glyph>
<glyph name="I" format="1">
  <advance width="753"/>
  <unicode hex="0049"/>
  <outline>
    <contour>
      <point x="670" y="1415" type="move" name="Anchor0"/>
    </contour>
    <contour>
      <point x="670" y="1415" type="move" name="Anchor-0"/>
    </contour>
    <contour>
      <point x="440" y="203" type="line" smooth="yes"/>
      <point x="434" y="178"/>
      <point x="434" y="150" type="qcurve" smooth="yes"/>
      <point x="434" y="87"/>
      <point x="584" y="86" type="qcurve" smooth="yes"/>
      <point x="590" y="86"/>
      <point x="590" y="57"/>
      <point x="571" y="-8"/>
      <point x="559" y="-8" type="qcurve" smooth="yes"/>
      <point x="481" y="0"/>
      <point x="59" y="0"/>
      <point x="-16" y="-8" type="qcurve" smooth="yes"/>
      <point x="-24" y="-8"/>
      <point x="-25" y="18"/>
      <point x="-8" y="86"/>
      <point x="8" y="86" type="qcurve" smooth="yes"/>
      <point x="96" y="86"/>
      <point x="186" y="133"/>
      <point x="207" y="203" type="qcurve" smooth="yes"/>
      <point x="477" y="1153" type="line" smooth="yes"/>
      <point x="485" y="1180"/>
      <point x="485" y="1217" type="qcurve" smooth="yes"/>
      <point x="485" y="1270"/>
      <point x="346" y="1270" type="qcurve" smooth="yes"/>
      <point x="340" y="1270"/>
      <point x="340" y="1296"/>
      <point x="360" y="1364"/>
      <point x="373" y="1364" type="qcurve" smooth="yes"/>
      <point x="430" y="1358"/>
      <point x="887" y="1358"/>
      <point x="944" y="1364" type="qcurve" smooth="yes"/>
      <point x="952" y="1364"/>
      <point x="952" y="1339"/>
      <point x="932" y="1270"/>
      <point x="918" y="1270" type="qcurve" smooth="yes"/>
      <point x="807" y="1270"/>
      <point x="729" y="1210"/>
      <point x="715" y="1153" type="qcurve" smooth="yes"/>
    </contour>
  </outline>
</glyph>
<glyph name="J" format="1">
  <advance width="657"/>
  <unicode hex="004A"/>
  <outline>
    <contour>
      <point x="442" y="272" type="line" smooth="yes"/>
      <point x="342" y="-76"/>
      <point x="162" y="-248" type="qcurve" smooth="yes"/>
      <point x="-16" y="-418"/>
      <point x="-178" y="-418" type="qcurve" smooth="yes"/>
      <point x="-250" y="-418"/>
      <point x="-338" y="-360"/>
      <point x="-338" y="-246"/>
      <point x="-240" y="-180"/>
      <point x="-184" y="-180" type="qcurve" smooth="yes"/>
      <point x="-127" y="-180"/>
      <point x="-47" y="-252"/>
      <point x="-43" y="-303" type="qcurve"/>
      <point x="41" y="-248"/>
      <point x="123" y="-27"/>
      <point x="315" y="639" type="qcurve" smooth="yes"/>
      <point x="465" y="1153" type="line" smooth="yes"/>
      <point x="471" y="1176"/>
      <point x="471" y="1194" type="qcurve" smooth="yes"/>
      <point x="471" y="1270"/>
      <point x="346" y="1270" type="qcurve" smooth="yes"/>
      <point x="338" y="1270"/>
      <point x="338" y="1300"/>
      <point x="356" y="1364"/>
      <point x="371" y="1364" type="qcurve" smooth="yes"/>
      <point x="428" y="1358"/>
      <point x="852" y="1358"/>
      <point x="909" y="1364" type="qcurve" smooth="yes"/>
      <point x="917" y="1364"/>
      <point x="918" y="1337"/>
      <point x="901" y="1270"/>
      <point x="887" y="1270" type="qcurve" smooth="yes"/>
      <point x="805" y="1270"/>
      <point x="721" y="1229"/>
      <point x="698" y="1153" type="qcurve" smooth="yes"/>
    </contour>
  </outline>
</glyph>
<glyph name="K" format="1">
  <advance width="1341"/>
  <unicode hex="004B"/>
  <outline>
    <contour>
      <point x="1081" y="190" type="line" smooth="yes"/>
      <point x="1116" y="124"/>
      <point x="1210" y="86"/>
      <point x="1276" y="86" type="qcurve" smooth="yes"/>
      <point x="1286" y="86"/>
      <point x="1286" y="45"/>
      <point x="1274" y="-8"/>
      <point x="1262" y="-8" type="qcurve" smooth="yes"/>
      <point x="1170" y="0"/>
      <point x="821" y="0"/>
      <point x="729" y="-8" type="qcurve" smooth="yes"/>
      <point x="719" y="-8"/>
      <point x="721" y="25"/>
      <point x="739" y="86"/>
      <point x="752" y="86" type="qcurve" smooth="yes"/>
      <point x="836" y="86"/>
      <point x="836" y="135" type="qcurve" smooth="yes"/>
      <point x="836" y="155"/>
      <point x="811" y="205" type="qcurve" smooth="yes"/>
      <point x="637" y="563" type="line" smooth="yes"/>
      <point x="621" y="600"/>
      <point x="588" y="627"/>
      <point x="563" y="627"/>
      <point x="555" y="602" type="qcurve" smooth="yes"/>
      <point x="438" y="203" type="line" smooth="yes"/>
      <point x="432" y="178"/>
      <point x="432" y="150" type="qcurve" smooth="yes"/>
      <point x="432" y="87"/>
      <point x="563" y="86" type="qcurve" smooth="yes"/>
      <point x="569" y="86"/>
      <point x="569" y="55"/>
      <point x="553" y="-8"/>
      <point x="539" y="-8" type="qcurve" smooth="yes"/>
      <point x="426" y="0"/>
      <point x="104" y="0"/>
      <point x="-14" y="-6" type="qcurve" smooth="yes"/>
      <point x="-22" y="-6"/>
      <point x="-25" y="14"/>
      <point x="-8" y="86"/>
      <point x="8" y="86" type="qcurve" smooth="yes"/>
      <point x="100" y="86"/>
      <point x="184" y="133"/>
      <point x="205" y="203" type="qcurve" smooth="yes"/>
      <point x="481" y="1153" type="line" smooth="yes"/>
      <point x="487" y="1178"/>
      <point x="487" y="1204" type="qcurve" smooth="yes"/>
      <point x="487" y="1270"/>
      <point x="348" y="1270" type="qcurve" smooth="yes"/>
      <point x="340" y="1270"/>
      <point x="340" y="1298"/>
      <point x="360" y="1364"/>
      <point x="373" y="1364" type="qcurve" smooth="yes"/>
      <point x="445" y="1358"/>
      <point x="848" y="1358"/>
      <point x="922" y="1364" type="qcurve" smooth="yes"/>
      <point x="930" y="1364"/>
      <point x="930" y="1337"/>
      <point x="907" y="1270"/>
      <point x="895" y="1270" type="qcurve" smooth="yes"/>
      <point x="811" y="1270"/>
      <point x="735" y="1231"/>
      <point x="715" y="1153" type="qcurve" smooth="yes"/>
      <point x="600" y="758" type="line" smooth="yes"/>
      <point x="598" y="752"/>
      <point x="598" y="739"/>
      <point x="604" y="739" type="qcurve" smooth="yes"/>
      <point x="627" y="739"/>
      <point x="686" y="795" type="qcurve" smooth="yes"/>
      <point x="1083" y="1157" type="line" smooth="yes"/>
      <point x="1146" y="1214"/>
      <point x="1147" y="1243" type="qcurve" smooth="yes"/>
      <point x="1147" y="1270"/>
      <point x="1096" y="1270" type="qcurve" smooth="yes"/>
      <point x="1088" y="1270"/>
      <point x="1087" y="1294"/>
      <point x="1112" y="1364"/>
      <point x="1124" y="1364" type="qcurve" smooth="yes"/>
      <point x="1194" y="1358"/>
      <point x="1483" y="1358"/>
      <point x="1538" y="1364" type="qcurve" smooth="yes"/>
      <point x="1546" y="1364"/>
      <point x="1548" y="1339"/>
      <point x="1528" y="1270"/>
      <point x="1513" y="1270" type="qcurve" smooth="yes"/>
      <point x="1419" y="1270"/>
      <point x="1360" y="1239" type="qcurve" smooth="yes"/>
      <point x="1299" y="1208"/>
      <point x="1198" y="1120" type="qcurve" smooth="yes"/>
      <point x="805" y="776" type="line" smooth="yes"/>
      <point x="789" y="762"/>
      <point x="788" y="752" type="qcurve" smooth="yes"/>
      <point x="788" y="742"/>
      <point x="801" y="719" type="qcurve" smooth="yes"/>
    </contour>
  </outline>
</glyph>
<glyph name="L" format="1">
  <advance width="1316"/>
  <unicode hex="004C"/>
  <outline>
    <contour>
      <point x="1206" y="47" type="line" smooth="yes"/>
      <point x="1196" y="4"/>
      <point x="1174" y="-8"/>
      <point x="1100" y="-8" type="qcurve" smooth="yes"/>
      <point x="1000" y="-8"/>
      <point x="414" y="0"/>
      <point x="172" y="0"/>
      <point x="-18" y="-8" type="qcurve" smooth="yes"/>
      <point x="-26" y="-8"/>
      <point x="-27" y="16"/>
      <point x="-4" y="86"/>
      <point x="10" y="86" type="qcurve" smooth="yes"/>
      <point x="135" y="86"/>
      <point x="193" y="152"/>
      <point x="207" y="197" type="qcurve" smooth="yes"/>
      <point x="481" y="1153" type="line" smooth="yes"/>
      <point x="489" y="1180"/>
      <point x="489" y="1206" type="qcurve" smooth="yes"/>
      <point x="489" y="1269"/>
      <point x="346" y="1270" type="qcurve" smooth="yes"/>
      <point x="340" y="1270"/>
      <point x="340" y="1298"/>
      <point x="360" y="1364"/>
      <point x="373" y="1364" type="qcurve" smooth="yes"/>
      <point x="430" y="1358"/>
      <point x="899" y="1358"/>
      <point x="956" y="1364" type="qcurve" smooth="yes"/>
      <point x="962" y="1364"/>
      <point x="963" y="1337"/>
      <point x="942" y="1270"/>
      <point x="930" y="1270" type="qcurve" smooth="yes"/>
      <point x="807" y="1270"/>
      <point x="741" y="1217"/>
      <point x="721" y="1153" type="qcurve" smooth="yes"/>
      <point x="455" y="242" type="line" smooth="yes"/>
      <point x="441" y="195"/>
      <point x="440" y="160" type="qcurve" smooth="yes"/>
      <point x="440" y="74"/>
      <point x="551" y="78" type="qcurve" smooth="yes"/>
      <point x="866" y="92" type="line" smooth="yes"/>
      <point x="1122" y="102"/>
      <point x="1204" y="383" type="qcurve" smooth="yes"/>
      <point x="1208" y="399"/>
      <point x="1309" y="399"/>
      <point x="1303" y="383" type="qcurve" smooth="yes"/>
    </contour>
  </outline>
</glyph>
<glyph name="M" format="1">
  <advance width="1927"/>
  <unicode hex="004D"/>
  <outline>
    <contour>
      <point x="1612" y="199" type="line" smooth="yes"/>
      <point x="1604" y="174"/>
      <point x="1604" y="150" type="qcurve" smooth="yes"/>
      <point x="1604" y="87"/>
      <point x="1751" y="86" type="qcurve" smooth="yes"/>
      <point x="1759" y="86"/>
      <point x="1759" y="57"/>
      <point x="1741" y="-8"/>
      <point x="1729" y="-8" type="qcurve" smooth="yes"/>
      <point x="1651" y="0"/>
      <point x="1257" y="0"/>
      <point x="1180" y="-8" type="qcurve" smooth="yes"/>
      <point x="1172" y="-8"/>
      <point x="1171" y="18"/>
      <point x="1194" y="86"/>
      <point x="1206" y="86" type="qcurve" smooth="yes"/>
      <point x="1284" y="86"/>
      <point x="1364" y="147"/>
      <point x="1384" y="217" type="qcurve" smooth="yes"/>
      <point x="1579" y="860" type="line" smooth="yes"/>
      <point x="1581" y="870"/>
      <point x="1581" y="879" type="qcurve" smooth="yes"/>
      <point x="1581" y="891"/>
      <point x="1563" y="891"/>
      <point x="1538" y="862" type="qcurve" smooth="yes"/>
      <point x="856" y="23" type="line" smooth="yes"/>
      <point x="825" y="-16"/>
      <point x="776" y="-16"/>
      <point x="768" y="25" type="qcurve" smooth="yes"/>
      <point x="600" y="897" type="line" smooth="yes"/>
      <point x="596" y="926"/>
      <point x="573" y="926"/>
      <point x="565" y="899" type="qcurve" smooth="yes"/>
      <point x="309" y="199" type="line" smooth="yes"/>
      <point x="299" y="172"/>
      <point x="299" y="147" type="qcurve" smooth="yes"/>
      <point x="299" y="86"/>
      <point x="418" y="86" type="qcurve" smooth="yes"/>
      <point x="426" y="86"/>
      <point x="426" y="55"/>
      <point x="406" y="-8"/>
      <point x="393" y="-8" type="qcurve" smooth="yes"/>
      <point x="317" y="0"/>
      <point x="55" y="0"/>
      <point x="-20" y="-8" type="qcurve" smooth="yes"/>
      <point x="-26" y="-8"/>
      <point x="-29" y="16"/>
      <point x="-10" y="86"/>
      <point x="4" y="86" type="qcurve" smooth="yes"/>
      <point x="90" y="86"/>
      <point x="176" y="135"/>
      <point x="209" y="219" type="qcurve" smooth="yes"/>
      <point x="532" y="1100" type="line" smooth="yes"/>
      <point x="550" y="1147"/>
      <point x="551" y="1184" type="qcurve" smooth="yes"/>
      <point x="551" y="1270"/>
      <point x="416" y="1270" type="qcurve" smooth="yes"/>
      <point x="410" y="1270"/>
      <point x="410" y="1296"/>
      <point x="434" y="1364"/>
      <point x="444" y="1364" type="qcurve" smooth="yes"/>
      <point x="538" y="1358"/>
      <point x="709" y="1358"/>
      <point x="725" y="1337" type="qcurve" smooth="yes"/>
      <point x="748" y="1314"/>
      <point x="760" y="1264" type="qcurve" smooth="yes"/>
      <point x="940" y="360" type="line" smooth="yes"/>
      <point x="944" y="333"/>
      <point x="958" y="336" type="qcurve" smooth="yes"/>
      <point x="970" y="336"/>
      <point x="987" y="354" type="qcurve" smooth="yes"/>
      <point x="1737" y="1282" type="line" smooth="yes"/>
      <point x="1772" y="1325"/>
      <point x="1804" y="1341" type="qcurve" smooth="yes"/>
      <point x="1839" y="1357"/>
      <point x="2005" y="1358"/>
      <point x="2111" y="1364" type="qcurve" smooth="yes"/>
      <point x="2117" y="1364"/>
      <point x="2118" y="1339"/>
      <point x="2097" y="1270"/>
      <point x="2085" y="1270" type="qcurve" smooth="yes"/>
      <point x="1974" y="1270"/>
      <point x="1913" y="1204"/>
      <point x="1874" y="1077" type="qcurve" smooth="yes"/>
    </contour>
  </outline>
</glyph>
<glyph name="N" format="1">
  <advance width="1476"/>
  <unicode hex="004E"/>
  <outline>
    <contour>
      <point x="1192" y="27" type="line" smooth="yes"/>
      <point x="1176" y="-26"/>
      <point x="1092" y="-27"/>
      <point x="1077" y="2" type="qcurve" smooth="yes"/>
      <point x="573" y="1008" type="line" smooth="yes"/>
      <point x="561" y="1031"/>
      <point x="541" y="1030"/>
      <point x="532" y="1008" type="qcurve" smooth="yes"/>
      <point x="303" y="203" type="line" smooth="yes"/>
      <point x="295" y="170"/>
      <point x="295" y="145" type="qcurve" smooth="yes"/>
      <point x="295" y="86"/>
      <point x="418" y="86" type="qcurve" smooth="yes"/>
      <point x="426" y="86"/>
      <point x="426" y="57"/>
      <point x="406" y="-8"/>
      <point x="393" y="-8" type="qcurve" smooth="yes"/>
      <point x="317" y="0"/>
      <point x="55" y="0"/>
      <point x="-20" y="-8" type="qcurve" smooth="yes"/>
      <point x="-26" y="-8"/>
      <point x="-29" y="16"/>
      <point x="-10" y="86"/>
      <point x="4" y="86" type="qcurve" smooth="yes"/>
      <point x="100" y="86"/>
      <point x="180" y="137"/>
      <point x="199" y="203" type="qcurve" smooth="yes"/>
      <point x="453" y="1096" type="line" smooth="yes"/>
      <point x="469" y="1151"/>
      <point x="469" y="1247"/>
      <point x="424" y="1262" type="qcurve" smooth="yes"/>
      <point x="391" y="1270"/>
      <point x="338" y="1270" type="qcurve" smooth="yes"/>
      <point x="332" y="1270"/>
      <point x="332" y="1296"/>
      <point x="352" y="1364"/>
      <point x="367" y="1364" type="qcurve" smooth="yes"/>
      <point x="443" y="1360"/>
      <point x="623" y="1360"/>
      <point x="674" y="1329"/>
      <point x="690" y="1296" type="qcurve" smooth="yes"/>
      <point x="1135" y="395" type="line" smooth="yes"/>
      <point x="1149" y="364"/>
      <point x="1182" y="365"/>
      <point x="1192" y="399" type="qcurve" smooth="yes"/>
      <point x="1413" y="1153" type="line" smooth="yes"/>
      <point x="1421" y="1180"/>
      <point x="1421" y="1198" type="qcurve" smooth="yes"/>
      <point x="1421" y="1270"/>
      <point x="1292" y="1270" type="qcurve" smooth="yes"/>
      <point x="1286" y="1270"/>
      <point x="1286" y="1296"/>
      <point x="1309" y="1364"/>
      <point x="1323" y="1364" type="qcurve" smooth="yes"/>
      <point x="1380" y="1358"/>
      <point x="1673" y="1358"/>
      <point x="1731" y="1364" type="qcurve" smooth="yes"/>
      <point x="1739" y="1364"/>
      <point x="1739" y="1339"/>
      <point x="1718" y="1270"/>
      <point x="1704" y="1270" type="qcurve" smooth="yes"/>
      <point x="1600" y="1270"/>
      <point x="1534" y="1214"/>
      <point x="1522" y="1169" type="qcurve" smooth="yes"/>
    </contour>
  </outline>
</glyph>
<glyph name="O" format="1">
  <advance width="1511"/>
  <unicode hex="004F"/>
  <outline>
    <contour>
      <point x="1083" y="1430" type="move" name="Anchor0"/>
    </contour>
    <contour>
      <point x="1083" y="1430" type="move" name="Anchor-0"/>
    </contour>
    <contour>
      <point x="1569" y="874" type="qcurve" smooth="yes"/>
      <point x="1569" y="532"/>
      <point x="1047" y="-27"/>
      <point x="672" y="-27" type="qcurve" smooth="yes"/>
      <point x="465" y="-27"/>
      <point x="178" y="240"/>
      <point x="178" y="451" type="qcurve" smooth="yes"/>
      <point x="178" y="795"/>
      <point x="705" y="1384"/>
      <point x="1079" y="1384" type="qcurve" smooth="yes"/>
      <point x="1321" y="1384"/>
      <point x="1569" y="1087"/>
    </contour>
    <contour>
      <point x="1331" y="874" type="qcurve" smooth="yes"/>
      <point x="1331" y="1050"/>
      <point x="1245" y="1176" type="qcurve" smooth="yes"/>
      <point x="1161" y="1301"/>
      <point x="1042" y="1300" type="qcurve" smooth="yes"/>
      <point x="895" y="1300"/>
      <point x="623" y="1087"/>
      <point x="422" y="702"/>
      <point x="422" y="473" type="qcurve" smooth="yes"/>
      <point x="422" y="285"/>
      <point x="592" y="63"/>
      <point x="715" y="63" type="qcurve" smooth="yes"/>
      <point x="893" y="63"/>
      <point x="1159" y="297"/>
      <point x="1331" y="679"/>
    </contour>
  </outline>
</glyph>
<glyph name="P" format="1">
  <advance width="1218"/>
  <unicode hex="0050"/>
  <outline>
    <contour>
      <point x="1368" y="1063" type="qcurve" smooth="yes"/>
      <point x="1368" y="866"/>
      <point x="991" y="588"/>
      <point x="727" y="588" type="qcurve" smooth="yes"/>
      <point x="655" y="588"/>
      <point x="584" y="598" type="qcurve" smooth="yes"/>
      <point x="553" y="602"/>
      <point x="545" y="567" type="qcurve" smooth="yes"/>
      <point x="436" y="203" type="line" smooth="yes"/>
      <point x="430" y="180"/>
      <point x="430" y="160" type="qcurve" smooth="yes"/>
      <point x="430" y="86"/>
      <point x="588" y="86" type="qcurve" smooth="yes"/>
      <point x="596" y="86"/>
      <point x="598" y="55"/>
      <point x="575" y="-8"/>
      <point x="563" y="-8" type="qcurve" smooth="yes"/>
      <point x="487" y="0"/>
      <point x="59" y="0"/>
      <point x="-16" y="-8" type="qcurve" smooth="yes"/>
      <point x="-24" y="-8"/>
      <point x="-25" y="16"/>
      <point x="-8" y="86"/>
      <point x="8" y="86" type="qcurve" smooth="yes"/>
      <point x="104" y="86"/>
      <point x="180" y="133"/>
      <point x="203" y="203" type="qcurve" smooth="yes"/>
      <point x="487" y="1157" type="line" smooth="yes"/>
      <point x="493" y="1180"/>
      <point x="494" y="1202" type="qcurve" smooth="yes"/>
      <point x="494" y="1263"/>
      <point x="346" y="1264" type="qcurve" smooth="yes"/>
      <point x="338" y="1264"/>
      <point x="338" y="1294"/>
      <point x="356" y="1358"/>
      <point x="371" y="1358" type="qcurve" smooth="yes"/>
      <point x="514" y="1352"/>
      <point x="700" y="1352"/>
      <point x="901" y="1358"/>
      <point x="950" y="1358" type="qcurve" smooth="yes"/>
      <point x="1134" y="1358"/>
      <point x="1368" y="1202"/>
    </contour>
    <contour>
      <point x="1106" y="1038" type="qcurve" smooth="yes"/>
      <point x="1106" y="1138"/>
      <point x="983" y="1278"/>
      <point x="870" y="1278" type="qcurve" smooth="yes"/>
      <point x="755" y="1278"/>
      <point x="752" y="1260" type="qcurve" smooth="yes"/>
      <point x="594" y="727" type="line" smooth="yes"/>
      <point x="582" y="686"/>
      <point x="618" y="678" type="qcurve" smooth="yes"/>
      <point x="634" y="674"/>
      <point x="684" y="674" type="qcurve" smooth="yes"/>
      <point x="868" y="674"/>
      <point x="1106" y="901"/>
    </contour>
  </outline>
</glyph>
<glyph name="Q" format="1">
  <advance width="1548"/>
  <unicode hex="0051"/>
  <outline>
    <contour>
      <point x="1569" y="874" type="qcurve" smooth="yes"/>
      <point x="1569" y="718"/>
      <point x="1432" y="377"/>
      <point x="1151" y="104"/>
      <point x="1024" y="47" type="qcurve" smooth="yes"/>
      <point x="1001" y="37"/>
      <point x="999" y="14"/>
      <point x="1012" y="4" type="qcurve" smooth="yes"/>
      <point x="1096" y="-78"/>
      <point x="1346" y="-229"/>
      <point x="1516" y="-276" type="qcurve" smooth="yes"/>
      <point x="1524" y="-278"/>
      <point x="1524" y="-305"/>
      <point x="1495" y="-362"/>
      <point x="1477" y="-358" type="qcurve" smooth="yes"/>
      <point x="1270" y="-315"/>
      <point x="801" y="-162"/>
      <point x="342" y="45"/>
      <point x="178" y="283"/>
      <point x="178" y="451" type="qcurve" smooth="yes"/>
      <point x="178" y="813"/>
      <point x="725" y="1384"/>
      <point x="1073" y="1384" type="qcurve" smooth="yes"/>
      <point x="1321" y="1384"/>
      <point x="1569" y="1087"/>
    </contour>
    <contour>
      <point x="1331" y="874" type="qcurve" smooth="yes"/>
      <point x="1331" y="1048"/>
      <point x="1245" y="1176" type="qcurve" smooth="yes"/>
      <point x="1161" y="1301"/>
      <point x="1042" y="1300" type="qcurve" smooth="yes"/>
      <point x="913" y="1300"/>
      <point x="631" y="1102"/>
      <point x="422" y="698"/>
      <point x="422" y="481" type="qcurve" smooth="yes"/>
      <point x="422" y="286"/>
      <point x="592" y="63"/>
      <point x="715" y="63" type="qcurve" smooth="yes"/>
      <point x="977" y="63"/>
      <point x="1331" y="593"/>
    </contour>
  </outline>
</glyph>
<glyph name="R" format="1">
  <advance width="1382"/>
  <unicode hex="0052"/>
  <outline>
    <contour>
      <point x="1401" y="1057" type="qcurve" smooth="yes"/>
      <point x="1401" y="912"/>
      <point x="1176" y="680"/>
      <point x="981" y="627" type="qcurve" smooth="yes"/>
      <point x="961" y="621"/>
      <point x="967" y="580"/>
      <point x="967" y="573" type="qcurve" smooth="yes"/>
      <point x="1000" y="430"/>
      <point x="1141" y="184" type="qcurve" smooth="yes"/>
      <point x="1229" y="30"/>
      <point x="1331" y="33" type="qcurve" smooth="yes"/>
      <point x="1347" y="33"/>
      <point x="1346" y="6" type="qcurve" smooth="yes"/>
      <point x="1346" y="-21"/>
      <point x="1325" y="-20" type="qcurve" smooth="yes"/>
      <point x="1274" y="-24"/>
      <point x="1231" y="-25" type="qcurve" smooth="yes"/>
      <point x="1096" y="-25"/>
      <point x="952" y="49"/>
      <point x="850" y="170"/>
      <point x="825" y="233" type="qcurve" smooth="yes"/>
      <point x="727" y="481" type="line" smooth="yes"/>
      <point x="700" y="547"/>
      <point x="676" y="571" type="qcurve" smooth="yes"/>
      <point x="660" y="585"/>
      <point x="602" y="586"/>
      <point x="565" y="592"/>
      <point x="555" y="586" type="qcurve" smooth="yes"/>
      <point x="547" y="580"/>
      <point x="545" y="565" type="qcurve" smooth="yes"/>
      <point x="434" y="203" type="line" smooth="yes"/>
      <point x="426" y="178"/>
      <point x="426" y="152" type="qcurve" smooth="yes"/>
      <point x="426" y="86"/>
      <point x="584" y="86" type="qcurve" smooth="yes"/>
      <point x="590" y="86"/>
      <point x="590" y="57"/>
      <point x="571" y="-8"/>
      <point x="557" y="-8" type="qcurve" smooth="yes"/>
      <point x="479" y="0"/>
      <point x="59" y="0"/>
      <point x="-16" y="-8" type="qcurve" smooth="yes"/>
      <point x="-24" y="-8"/>
      <point x="-25" y="18"/>
      <point x="-8" y="86"/>
      <point x="8" y="86" type="qcurve" smooth="yes"/>
      <point x="94" y="86"/>
      <point x="178" y="127"/>
      <point x="201" y="203" type="qcurve" smooth="yes"/>
      <point x="487" y="1157" type="line" smooth="yes"/>
      <point x="495" y="1184"/>
      <point x="496" y="1200" type="qcurve" smooth="yes"/>
      <point x="496" y="1263"/>
      <point x="346" y="1264" type="qcurve" smooth="yes"/>
      <point x="340" y="1264"/>
      <point x="338" y="1292"/>
      <point x="356" y="1358"/>
      <point x="371" y="1358" type="qcurve" smooth="yes"/>
      <point x="514" y="1352"/>
      <point x="688" y="1352"/>
      <point x="897" y="1358"/>
      <point x="1028" y="1358" type="qcurve" smooth="yes"/>
      <point x="1159" y="1358"/>
      <point x="1401" y="1202"/>
    </contour>
    <contour>
      <point x="1137" y="1063" type="qcurve" smooth="yes"/>
      <point x="1137" y="1149"/>
      <point x="989" y="1278"/>
      <point x="803" y="1278" type="qcurve" smooth="yes"/>
      <point x="768" y="1278"/>
      <point x="754" y="1262"/>
      <point x="752" y="1255" type="qcurve" smooth="yes"/>
      <point x="584" y="702" type="line" smooth="yes"/>
      <point x="582" y="696"/>
      <point x="582" y="686"/>
      <point x="586" y="682" type="qcurve" smooth="yes"/>
      <point x="602" y="666"/>
      <point x="680" y="664" type="qcurve" smooth="yes"/>
      <point x="860" y="664"/>
      <point x="1137" y="893"/>
    </contour>
  </outline>
</glyph>
<glyph name="S" format="1">
  <advance width="1040"/>
  <unicode hex="0053"/>
  <outline>
    <contour>
      <point x="1036" y="532" type="qcurve" smooth="yes"/>
      <point x="1036" y="305"/>
      <point x="690" y="-27"/>
      <point x="469" y="-27" type="qcurve" smooth="yes"/>
      <point x="348" y="-27"/>
      <point x="215" y="10"/>
      <point x="104" y="72" type="qcurve"/>
      <point x="104" y="117" type="line" smooth="yes"/>
      <point x="104" y="262"/>
      <point x="141" y="385" type="qcurve" smooth="yes"/>
      <point x="147" y="410"/>
      <point x="246" y="408"/>
      <point x="242" y="387" type="qcurve" smooth="yes"/>
      <point x="236" y="354"/>
      <point x="233" y="324" type="qcurve" smooth="yes"/>
      <point x="233" y="226"/>
      <point x="360" y="63"/>
      <point x="512" y="63" type="qcurve" smooth="yes"/>
      <point x="616" y="63"/>
      <point x="791" y="266"/>
      <point x="791" y="379" type="qcurve" smooth="yes"/>
      <point x="791" y="502"/>
      <point x="614" y="571" type="qcurve" smooth="yes"/>
      <point x="522" y="608" type="line" smooth="yes"/>
      <point x="295" y="700"/>
      <point x="297" y="885" type="qcurve" smooth="yes"/>
      <point x="297" y="1090"/>
      <point x="616" y="1384"/>
      <point x="840" y="1384" type="qcurve" smooth="yes"/>
      <point x="957" y="1384"/>
      <point x="1094" y="1354"/>
      <point x="1145" y="1354" type="qcurve"/>
      <point x="1147" y="1227"/>
      <point x="1114" y="1069" type="qcurve" smooth="yes"/>
      <point x="1110" y="1049"/>
      <point x="1016" y="1051"/>
      <point x="1016" y="1067" type="qcurve" smooth="yes"/>
      <point x="1016" y="1094" type="line" smooth="yes"/>
      <point x="1012" y="1303"/>
      <point x="803" y="1300" type="qcurve" smooth="yes"/>
      <point x="694" y="1300"/>
      <point x="526" y="1110"/>
      <point x="526" y="1001" type="qcurve" smooth="yes"/>
      <point x="526" y="895"/>
      <point x="692" y="840" type="qcurve" smooth="yes"/>
      <point x="799" y="807" type="line" smooth="yes"/>
      <point x="1036" y="729"/>
    </contour>
  </outline>
</glyph>
<glyph name="T" format="1">
  <advance width="1286"/>
  <unicode hex="0054"/>
  <outline>
    <contour>
      <point x="487" y="203" type="qcurve" smooth="yes"/>
      <point x="791" y="1229" type="line" smooth="yes"/>
      <point x="807" y="1264"/>
      <point x="766" y="1264" type="qcurve" smooth="yes"/>
      <point x="670" y="1264" type="line" smooth="yes"/>
      <point x="422" y="1264"/>
      <point x="344" y="1008" type="qcurve" smooth="yes"/>
      <point x="340" y="992"/>
      <point x="238" y="989"/>
      <point x="242" y="1008" type="qcurve" smooth="yes"/>
      <point x="336" y="1319" type="line" smooth="yes"/>
      <point x="344" y="1346"/>
      <point x="375" y="1356"/>
      <point x="494" y="1356" type="qcurve" smooth="yes"/>
      <point x="615" y="1354"/>
      <point x="1315" y="1352"/>
      <point x="1464" y="1358" type="qcurve" smooth="yes"/>
      <point x="1544" y="1358"/>
      <point x="1532" y="1319" type="qcurve" smooth="yes"/>
      <point x="1440" y="1008" type="line" smooth="yes"/>
      <point x="1436" y="992"/>
      <point x="1335" y="991"/>
      <point x="1339" y="1008" type="qcurve" smooth="yes"/>
      <point x="1355" y="1061"/>
      <point x="1356" y="1100" type="qcurve" smooth="yes"/>
      <point x="1356" y="1153"/>
      <point x="1278" y="1264"/>
      <point x="1167" y="1264" type="qcurve" smooth="yes"/>
      <point x="1059" y="1264" type="line" smooth="yes"/>
      <point x="1034" y="1264"/>
      <point x="1024" y="1235" type="qcurve" smooth="yes"/>
      <point x="721" y="203" type="line" smooth="yes"/>
      <point x="715" y="183"/>
      <point x="715" y="135"/>
      <point x="764" y="86"/>
      <point x="862" y="86" type="qcurve" smooth="yes"/>
      <point x="868" y="86"/>
      <point x="870" y="55"/>
      <point x="854" y="-6"/>
      <point x="838" y="-6" type="qcurve" smooth="yes"/>
      <point x="742" y="0"/>
      <point x="360" y="0"/>
      <point x="258" y="-6" type="qcurve" smooth="yes"/>
      <point x="252" y="-6"/>
      <point x="252" y="37"/>
      <point x="276" y="86"/>
      <point x="283" y="86" type="qcurve" smooth="yes"/>
      <point x="375" y="86"/>
      <point x="464" y="127"/>
    </contour>
  </outline>
</glyph>
<glyph name="U" format="1">
  <advance width="1486"/>
  <unicode hex="0055"/>
  <outline>
    <contour>
      <point x="1116" y="1415" type="move" name="Anchor0"/>
    </contour>
    <contour>
      <point x="1116" y="1415" type="move" name="Anchor-0"/>
    </contour>
    <contour>
      <point x="1468" y="870" type="line" smooth="yes"/>
      <point x="1327" y="405"/>
      <point x="1188" y="162"/>
      <point x="905" y="-27"/>
      <point x="664" y="-27" type="qcurve" smooth="yes"/>
      <point x="443" y="-27"/>
      <point x="242" y="127"/>
      <point x="242" y="262" type="qcurve" smooth="yes"/>
      <point x="242" y="391"/>
      <point x="291" y="555" type="qcurve" smooth="yes"/>
      <point x="471" y="1155" type="line" smooth="yes"/>
      <point x="481" y="1188"/>
      <point x="481" y="1212" type="qcurve" smooth="yes"/>
      <point x="481" y="1239"/>
      <point x="422" y="1270"/>
      <point x="346" y="1270" type="qcurve" smooth="yes"/>
      <point x="338" y="1270"/>
      <point x="338" y="1298"/>
      <point x="356" y="1364"/>
      <point x="371" y="1364" type="qcurve" smooth="yes"/>
      <point x="428" y="1358"/>
      <point x="864" y="1358"/>
      <point x="924" y="1364" type="qcurve" smooth="yes"/>
      <point x="930" y="1364"/>
      <point x="930" y="1337"/>
      <point x="911" y="1270"/>
      <point x="897" y="1270" type="qcurve" smooth="yes"/>
      <point x="782" y="1270"/>
      <point x="725" y="1217"/>
      <point x="707" y="1153" type="qcurve" smooth="yes"/>
      <point x="563" y="678" type="line" smooth="yes"/>
      <point x="471" y="371"/>
      <point x="469" y="152"/>
      <point x="631" y="63"/>
      <point x="719" y="63" type="qcurve" smooth="yes"/>
      <point x="895" y="63"/>
      <point x="1141" y="254"/>
      <point x="1217" y="506" type="qcurve" smooth="yes"/>
      <point x="1411" y="1153" type="line" smooth="yes"/>
      <point x="1419" y="1180"/>
      <point x="1419" y="1196" type="qcurve" smooth="yes"/>
      <point x="1419" y="1270"/>
      <point x="1274" y="1270" type="qcurve" smooth="yes"/>
      <point x="1268" y="1270"/>
      <point x="1268" y="1296"/>
      <point x="1288" y="1364"/>
      <point x="1300" y="1364" type="qcurve" smooth="yes"/>
      <point x="1357" y="1358"/>
      <point x="1710" y="1358"/>
      <point x="1769" y="1364" type="qcurve" smooth="yes"/>
      <point x="1777" y="1364"/>
      <point x="1778" y="1339"/>
      <point x="1757" y="1270"/>
      <point x="1745" y="1270" type="qcurve" smooth="yes"/>
      <point x="1639" y="1270"/>
      <point x="1571" y="1204"/>
      <point x="1554" y="1153" type="qcurve" smooth="yes"/>
    </contour>
  </outline>
</glyph>
<glyph name="V" format="1">
  <advance width="1349"/>
  <unicode hex="0056"/>
  <outline>
    <contour>
      <point x="1012" y="657" type="qcurve" smooth="yes"/>
      <point x="543" y="-14" type="line" smooth="yes"/>
      <point x="527" y="-37"/>
      <point x="498" y="-39" type="qcurve" smooth="yes"/>
      <point x="455" y="-39"/>
      <point x="449" y="35" type="qcurve" smooth="yes"/>
      <point x="375" y="1153" type="line" smooth="yes"/>
      <point x="371" y="1231"/>
      <point x="317" y="1270"/>
      <point x="248" y="1270" type="qcurve" smooth="yes"/>
      <point x="240" y="1270"/>
      <point x="240" y="1298"/>
      <point x="252" y="1364"/>
      <point x="264" y="1364" type="qcurve" smooth="yes"/>
      <point x="321" y="1358"/>
      <point x="721" y="1358"/>
      <point x="776" y="1364" type="qcurve" smooth="yes"/>
      <point x="784" y="1364"/>
      <point x="786" y="1331"/>
      <point x="772" y="1270"/>
      <point x="760" y="1270" type="qcurve" smooth="yes"/>
      <point x="664" y="1270"/>
      <point x="600" y="1217"/>
      <point x="604" y="1153" type="qcurve" smooth="yes"/>
      <point x="655" y="383" type="line" smooth="yes"/>
      <point x="655" y="360"/>
      <point x="666" y="358" type="qcurve" smooth="yes"/>
      <point x="674" y="358"/>
      <point x="684" y="375" type="qcurve" smooth="yes"/>
      <point x="973" y="788" type="line" smooth="yes"/>
      <point x="1104" y="978"/>
      <point x="1210" y="1147" type="qcurve" smooth="yes"/>
      <point x="1249" y="1206"/>
      <point x="1249" y="1231" type="qcurve" smooth="yes"/>
      <point x="1249" y="1272"/>
      <point x="1161" y="1270" type="qcurve" smooth="yes"/>
      <point x="1153" y="1270"/>
      <point x="1153" y="1298"/>
      <point x="1176" y="1364"/>
      <point x="1188" y="1364" type="qcurve" smooth="yes"/>
      <point x="1245" y="1358"/>
      <point x="1583" y="1358"/>
      <point x="1640" y="1364" type="qcurve" smooth="yes"/>
      <point x="1646" y="1364"/>
      <point x="1649" y="1339"/>
      <point x="1626" y="1270"/>
      <point x="1614" y="1270" type="qcurve" smooth="yes"/>
      <point x="1458" y="1270"/>
      <point x="1407" y="1202" type="qcurve" smooth="yes"/>
      <point x="1231" y="972"/>
    </contour>
  </outline>
</glyph>
<glyph name="W" format="1">
  <advance width="1992"/>
  <unicode hex="0057"/>
  <outline>
    <contour>
      <point x="1661" y="651" type="qcurve" smooth="yes"/>
      <point x="1184" y="-2" type="line" smooth="yes"/>
      <point x="1157" y="-39"/>
      <point x="1130" y="-39" type="qcurve" smooth="yes"/>
      <point x="1089" y="-39"/>
      <point x="1079" y="35" type="qcurve" smooth="yes"/>
      <point x="1014" y="467" type="line" smooth="yes"/>
      <point x="1010" y="492"/>
      <point x="1001" y="492" type="qcurve" smooth="yes"/>
      <point x="995" y="492"/>
      <point x="977" y="467" type="qcurve" smooth="yes"/>
      <point x="631" y="-2" type="line" smooth="yes"/>
      <point x="604" y="-39"/>
      <point x="578" y="-39" type="qcurve" smooth="yes"/>
      <point x="537" y="-39"/>
      <point x="524" y="35" type="qcurve" smooth="yes"/>
      <point x="354" y="1153" type="line" smooth="yes"/>
      <point x="342" y="1231"/>
      <point x="299" y="1270"/>
      <point x="229" y="1270" type="qcurve" smooth="yes"/>
      <point x="221" y="1270"/>
      <point x="219" y="1298"/>
      <point x="233" y="1364"/>
      <point x="246" y="1364" type="qcurve" smooth="yes"/>
      <point x="303" y="1358"/>
      <point x="635" y="1358"/>
      <point x="690" y="1364" type="qcurve" smooth="yes"/>
      <point x="700" y="1364"/>
      <point x="700" y="1327"/>
      <point x="684" y="1270"/>
      <point x="674" y="1270" type="qcurve" smooth="yes"/>
      <point x="580" y="1270"/>
      <point x="580" y="1223" type="qcurve" smooth="yes"/>
      <point x="580" y="1192"/>
      <point x="586" y="1153" type="qcurve" smooth="yes"/>
      <point x="709" y="350" type="line" smooth="yes"/>
      <point x="711" y="327"/>
      <point x="729" y="328" type="qcurve" smooth="yes"/>
      <point x="745" y="328"/>
      <point x="762" y="350" type="qcurve" smooth="yes"/>
      <point x="936" y="588" type="line" smooth="yes"/>
      <point x="977" y="643"/>
      <point x="977" y="670" type="qcurve" smooth="yes"/>
      <point x="977" y="717"/>
      <point x="973" y="748" type="qcurve" smooth="yes"/>
      <point x="909" y="1153" type="line" smooth="yes"/>
      <point x="899" y="1227"/>
      <point x="854" y="1270"/>
      <point x="799" y="1270" type="qcurve" smooth="yes"/>
      <point x="791" y="1270"/>
      <point x="788" y="1305"/>
      <point x="805" y="1364"/>
      <point x="815" y="1364" type="qcurve" smooth="yes"/>
      <point x="872" y="1358"/>
      <point x="1196" y="1358"/>
      <point x="1253" y="1364" type="qcurve" smooth="yes"/>
      <point x="1261" y="1364"/>
      <point x="1262" y="1331"/>
      <point x="1247" y="1270"/>
      <point x="1237" y="1270" type="qcurve" smooth="yes"/>
      <point x="1135" y="1270"/>
      <point x="1135" y="1221" type="qcurve" smooth="yes"/>
      <point x="1135" y="1190"/>
      <point x="1141" y="1153" type="qcurve" smooth="yes"/>
      <point x="1169" y="963" type="line" smooth="yes"/>
      <point x="1173" y="934"/>
      <point x="1182" y="936" type="qcurve" smooth="yes"/>
      <point x="1190" y="936"/>
      <point x="1210" y="963" type="qcurve" smooth="yes"/>
      <point x="1346" y="1147" type="line" smooth="yes"/>
      <point x="1399" y="1221"/>
      <point x="1399" y="1270"/>
      <point x="1323" y="1270" type="qcurve" smooth="yes"/>
      <point x="1315" y="1270"/>
      <point x="1313" y="1298"/>
      <point x="1333" y="1364"/>
      <point x="1348" y="1364" type="qcurve" smooth="yes"/>
      <point x="1405" y="1358"/>
      <point x="1698" y="1358"/>
      <point x="1755" y="1364" type="qcurve" smooth="yes"/>
      <point x="1761" y="1364"/>
      <point x="1761" y="1339"/>
      <point x="1741" y="1270"/>
      <point x="1729" y="1270" type="qcurve" smooth="yes"/>
      <point x="1571" y="1270"/>
      <point x="1528" y="1210" type="qcurve" smooth="yes"/>
      <point x="1239" y="819" type="line" smooth="yes"/>
      <point x="1208" y="776"/>
      <point x="1208" y="707"/>
      <point x="1212" y="678" type="qcurve" smooth="yes"/>
      <point x="1264" y="350" type="line" smooth="yes"/>
      <point x="1266" y="327"/>
      <point x="1280" y="328" type="qcurve" smooth="yes"/>
      <point x="1298" y="328"/>
      <point x="1317" y="350" type="qcurve" smooth="yes"/>
      <point x="1446" y="512"/>
      <point x="1898" y="1147" type="qcurve" smooth="yes"/>
      <point x="1941" y="1210"/>
      <point x="1944" y="1237" type="qcurve" smooth="yes"/>
      <point x="1944" y="1270"/>
      <point x="1858" y="1270" type="qcurve" smooth="yes"/>
      <point x="1852" y="1270"/>
      <point x="1851" y="1294"/>
      <point x="1874" y="1364"/>
      <point x="1884" y="1364" type="qcurve" smooth="yes"/>
      <point x="1941" y="1358"/>
      <point x="2243" y="1358"/>
      <point x="2300" y="1364" type="qcurve" smooth="yes"/>
      <point x="2308" y="1364"/>
      <point x="2308" y="1339"/>
      <point x="2288" y="1270"/>
      <point x="2273" y="1270" type="qcurve" smooth="yes"/>
      <point x="2132" y="1270"/>
      <point x="2077" y="1198" type="qcurve" smooth="yes"/>
      <point x="1833" y="889"/>
    </contour>
  </outline>
</glyph>
<glyph name="X" format="1">
  <advance width="1376"/>
  <unicode hex="0058"/>
  <outline>
    <contour>
      <point x="172" y="180" type="qcurve" smooth="yes"/>
      <point x="664" y="643" type="line" smooth="yes"/>
      <point x="678" y="655"/>
      <point x="678" y="674" type="qcurve" smooth="yes"/>
      <point x="678" y="684"/>
      <point x="672" y="696" type="qcurve" smooth="yes"/>
      <point x="496" y="1130" type="line" smooth="yes"/>
      <point x="465" y="1204"/>
      <point x="383" y="1270"/>
      <point x="297" y="1270" type="qcurve" smooth="yes"/>
      <point x="285" y="1270"/>
      <point x="301" y="1364"/>
      <point x="315" y="1364" type="qcurve" smooth="yes"/>
      <point x="372" y="1358"/>
      <point x="838" y="1358"/>
      <point x="895" y="1364" type="qcurve" smooth="yes"/>
      <point x="909" y="1364"/>
      <point x="887" y="1270"/>
      <point x="872" y="1270" type="qcurve" smooth="yes"/>
      <point x="727" y="1270"/>
      <point x="727" y="1204" type="qcurve" smooth="yes"/>
      <point x="727" y="1179"/>
      <point x="739" y="1151" type="qcurve" smooth="yes"/>
      <point x="842" y="872" type="line" smooth="yes"/>
      <point x="848" y="856"/>
      <point x="860" y="856" type="qcurve" smooth="yes"/>
      <point x="870" y="856"/>
      <point x="885" y="870" type="qcurve" smooth="yes"/>
      <point x="1180" y="1151" type="line" smooth="yes"/>
      <point x="1250" y="1217"/>
      <point x="1249" y="1245" type="qcurve" smooth="yes"/>
      <point x="1249" y="1270"/>
      <point x="1182" y="1270" type="qcurve" smooth="yes"/>
      <point x="1170" y="1270"/>
      <point x="1192" y="1364"/>
      <point x="1206" y="1364" type="qcurve" smooth="yes"/>
      <point x="1263" y="1358"/>
      <point x="1583" y="1358"/>
      <point x="1640" y="1364" type="qcurve" smooth="yes"/>
      <point x="1646" y="1364"/>
      <point x="1649" y="1339"/>
      <point x="1630" y="1270"/>
      <point x="1616" y="1270" type="qcurve" smooth="yes"/>
      <point x="1507" y="1270"/>
      <point x="1384" y="1204"/>
      <point x="1249" y="1079" type="qcurve" smooth="yes"/>
      <point x="924" y="774" type="line" smooth="yes"/>
      <point x="904" y="754"/>
      <point x="903" y="737" type="qcurve" smooth="yes"/>
      <point x="903" y="723"/>
      <point x="909" y="711" type="qcurve" smooth="yes"/>
      <point x="1094" y="219" type="line" smooth="yes"/>
      <point x="1127" y="133"/>
      <point x="1200" y="86"/>
      <point x="1300" y="86" type="qcurve" smooth="yes"/>
      <point x="1312" y="86"/>
      <point x="1294" y="-8"/>
      <point x="1280" y="-8" type="qcurve" smooth="yes"/>
      <point x="1202" y="0"/>
      <point x="821" y="0"/>
      <point x="745" y="-8" type="qcurve" smooth="yes"/>
      <point x="731" y="-8"/>
      <point x="754" y="86"/>
      <point x="766" y="86" type="qcurve" smooth="yes"/>
      <point x="891" y="86"/>
      <point x="891" y="137" type="qcurve" smooth="yes"/>
      <point x="891" y="157"/>
      <point x="872" y="203" type="qcurve" smooth="yes"/>
      <point x="737" y="535" type="line" smooth="yes"/>
      <point x="729" y="555"/>
      <point x="715" y="555" type="qcurve" smooth="yes"/>
      <point x="703" y="555"/>
      <point x="682" y="535" type="qcurve" smooth="yes"/>
      <point x="432" y="297" type="line" smooth="yes"/>
      <point x="299" y="170"/>
      <point x="299" y="123" type="qcurve" smooth="yes"/>
      <point x="299" y="86"/>
      <point x="389" y="86" type="qcurve" smooth="yes"/>
      <point x="403" y="86"/>
      <point x="383" y="-8"/>
      <point x="369" y="-8" type="qcurve" smooth="yes"/>
      <point x="291" y="0"/>
      <point x="-43" y="0"/>
      <point x="-119" y="-8" type="qcurve" smooth="yes"/>
      <point x="-127" y="-8"/>
      <point x="-127" y="18"/>
      <point x="-111" y="86"/>
      <point x="-96" y="86" type="qcurve" smooth="yes"/>
      <point x="6" y="86"/>
      <point x="113" y="125"/>
    </contour>
  </outline>
</glyph>
<glyph name="Y" format="1">
  <advance width="1267"/>
  <unicode hex="0059"/>
  <outline>
    <contour>
      <point x="948" y="1415" type="move" name="Anchor0"/>
    </contour>
    <contour>
      <point x="948" y="1415" type="move" name="Anchor-0"/>
    </contour>
    <contour>
      <point x="434" y="217" type="qcurve" smooth="yes"/>
      <point x="512" y="473" type="line" smooth="yes"/>
      <point x="537" y="557"/>
      <point x="537" y="621"/>
      <point x="516" y="678" type="qcurve" smooth="yes"/>
      <point x="365" y="1139" type="line" smooth="yes"/>
      <point x="338" y="1221"/>
      <point x="276" y="1270"/>
      <point x="207" y="1270" type="qcurve" smooth="yes"/>
      <point x="199" y="1270"/>
      <point x="199" y="1296"/>
      <point x="213" y="1364"/>
      <point x="227" y="1364" type="qcurve" smooth="yes"/>
      <point x="284" y="1358"/>
      <point x="676" y="1358"/>
      <point x="733" y="1364" type="qcurve" smooth="yes"/>
      <point x="749" y="1364"/>
      <point x="725" y="1270"/>
      <point x="713" y="1270" type="qcurve" smooth="yes"/>
      <point x="592" y="1270"/>
      <point x="592" y="1214" type="qcurve" smooth="yes"/>
      <point x="592" y="1191"/>
      <point x="602" y="1157" type="qcurve" smooth="yes"/>
      <point x="733" y="754" type="line" smooth="yes"/>
      <point x="741" y="731"/>
      <point x="768" y="731"/>
      <point x="786" y="752" type="qcurve" smooth="yes"/>
      <point x="1174" y="1157" type="line" smooth="yes"/>
      <point x="1221" y="1208"/>
      <point x="1221" y="1235" type="qcurve" smooth="yes"/>
      <point x="1221" y="1270"/>
      <point x="1126" y="1270" type="qcurve" smooth="yes"/>
      <point x="1112" y="1270"/>
      <point x="1139" y="1364"/>
      <point x="1151" y="1364" type="qcurve" smooth="yes"/>
      <point x="1208" y="1358"/>
      <point x="1520" y="1358"/>
      <point x="1579" y="1364" type="qcurve" smooth="yes"/>
      <point x="1587" y="1364"/>
      <point x="1585" y="1337"/>
      <point x="1571" y="1270"/>
      <point x="1554" y="1270" type="qcurve" smooth="yes"/>
      <point x="1452" y="1270"/>
      <point x="1343" y="1200"/>
      <point x="1198" y="1044" type="qcurve" smooth="yes"/>
      <point x="819" y="641" type="line" smooth="yes"/>
      <point x="780" y="600"/>
      <point x="754" y="508" type="qcurve" smooth="yes"/>
      <point x="666" y="201" type="line" smooth="yes"/>
      <point x="658" y="174"/>
      <point x="657" y="150" type="qcurve" smooth="yes"/>
      <point x="657" y="87"/>
      <point x="782" y="86" type="qcurve" smooth="yes"/>
      <point x="796" y="86"/>
      <point x="772" y="-8"/>
      <point x="758" y="-8" type="qcurve" smooth="yes"/>
      <point x="682" y="0"/>
      <point x="307" y="0"/>
      <point x="231" y="-8" type="qcurve" smooth="yes"/>
      <point x="219" y="-8"/>
      <point x="242" y="86"/>
      <point x="256" y="86" type="qcurve" smooth="yes"/>
      <point x="340" y="86"/>
      <point x="409" y="133"/>
    </contour>
  </outline>
</glyph>
<glyph name="Z" format="1">
  <advance width="1312"/>
  <unicode hex="005A"/>
  <outline>
    <contour>
      <point x="-10" y="102" type="qcurve" smooth="yes"/>
      <point x="1192" y="1229" type="line" smooth="yes"/>
      <point x="1210" y="1243"/>
      <point x="1206" y="1272"/>
      <point x="1180" y="1272" type="qcurve" smooth="yes"/>
      <point x="649" y="1272" type="line" smooth="yes"/>
      <point x="600" y="1272"/>
      <point x="502" y="1204"/>
      <point x="354" y="1024"/>
      <point x="334" y="977" type="qcurve" smooth="yes"/>
      <point x="328" y="961"/>
      <point x="266" y="971"/>
      <point x="274" y="989" type="qcurve" smooth="yes"/>
      <point x="348" y="1167"/>
      <point x="399" y="1327" type="qcurve" smooth="yes"/>
      <point x="411" y="1366"/>
      <point x="461" y="1366" type="qcurve" smooth="yes"/>
      <point x="477" y="1366"/>
      <point x="569" y="1352"/>
      <point x="1110" y="1352" type="qcurve"/>
      <point x="1513" y="1360" type="line" smooth="yes"/>
      <point x="1562" y="1360"/>
      <point x="1563" y="1317" type="qcurve" smooth="yes"/>
      <point x="1563" y="1286"/>
      <point x="1536" y="1262" type="qcurve" smooth="yes"/>
      <point x="338" y="129" type="line" smooth="yes"/>
      <point x="322" y="115"/>
      <point x="330" y="86"/>
      <point x="356" y="86" type="qcurve" smooth="yes"/>
      <point x="688" y="86"/>
      <point x="952" y="98" type="qcurve" smooth="yes"/>
      <point x="1054" y="102"/>
      <point x="1141" y="213" type="qcurve" smooth="yes"/>
      <point x="1200" y="293"/>
      <point x="1235" y="352" type="qcurve" smooth="yes"/>
      <point x="1243" y="366"/>
      <point x="1303" y="346"/>
      <point x="1294" y="334" type="qcurve" smooth="yes"/>
      <point x="1235" y="232"/>
      <point x="1206" y="147" type="qcurve" smooth="yes"/>
      <point x="1177" y="61"/>
      <point x="1157" y="4" type="qcurve" smooth="yes"/>
      <point x="1145" y="-35"/>
      <point x="1122" y="-33" type="qcurve" smooth="yes"/>
      <point x="1007" y="-13"/>
      <point x="831" y="0"/>
      <point x="414" y="0" type="qcurve" smooth="yes"/>
      <point x="23" y="0" type="line" smooth="yes"/>
      <point x="-30" y="0"/>
      <point x="-31" y="57" type="qcurve" smooth="yes"/>
      <point x="-30" y="82"/>
    </contour>
  </outline>
</glyph>
<glyph name="bracketleft" format="1">
  <advance width="722"/>
  <unicode hex="005B"/>
  <outline>
    <contour>
      <point x="1104" y="1530" type="line" smooth="yes"/>
      <point x="1118" y="1530"/>
      <point x="1085" y="1434"/>
      <point x="1071" y="1434" type="qcurve" smooth="yes"/>
      <point x="795" y="1434" type="line" smooth="yes"/>
      <point x="777" y="1434"/>
      <point x="768" y="1411" type="qcurve" smooth="yes"/>
      <point x="297" y="-229" type="line" smooth="yes"/>
      <point x="289" y="-258"/>
      <point x="303" y="-258" type="qcurve" smooth="yes"/>
      <point x="604" y="-258" type="line" smooth="yes"/>
      <point x="618" y="-258"/>
      <point x="594" y="-354"/>
      <point x="578" y="-354" type="qcurve" smooth="yes"/>
      <point x="72" y="-354" type="line" smooth="yes"/>
      <point x="47" y="-354"/>
      <point x="53" y="-332" type="qcurve" smooth="yes"/>
      <point x="584" y="1511" type="line" smooth="yes"/>
      <point x="588" y="1529"/>
      <point x="608" y="1530" type="qcurve" smooth="yes"/>
    </contour>
  </outline>
</glyph>
<glyph name="backslash" format="1">
  <advance width="714"/>
  <unicode hex="005C"/>
  <outline>
    <contour>
      <point x="748" y="55" type="line" smooth="yes"/>
      <point x="752" y="43"/>
      <point x="688" y="2"/>
      <point x="625" y="-14"/>
      <point x="614" y="-4" type="qcurve" smooth="yes"/>
      <point x="-12" y="1405" type="line" smooth="yes"/>
      <point x="-24" y="1430"/>
      <point x="109" y="1489"/>
      <point x="119" y="1464" type="qcurve" smooth="yes"/>
    </contour>
  </outline>
</glyph>
<glyph name="bracketright" format="1">
  <advance width="722"/>
  <unicode hex="005D"/>
  <outline>
    <contour>
      <point x="831" y="1511" type="qcurve" smooth="yes"/>
      <point x="303" y="-332" type="line" smooth="yes"/>
      <point x="297" y="-355"/>
      <point x="276" y="-354" type="qcurve" smooth="yes"/>
      <point x="-231" y="-354" type="line" smooth="yes"/>
      <point x="-245" y="-354"/>
      <point x="-221" y="-258"/>
      <point x="-207" y="-258" type="qcurve" smooth="yes"/>
      <point x="98" y="-258" type="line" smooth="yes"/>
      <point x="112" y="-258"/>
      <point x="119" y="-233" type="qcurve" smooth="yes"/>
      <point x="590" y="1411" type="line" smooth="yes"/>
      <point x="598" y="1434"/>
      <point x="580" y="1434" type="qcurve" smooth="yes"/>
      <point x="299" y="1434" type="line" smooth="yes"/>
      <point x="283" y="1434"/>
      <point x="307" y="1530"/>
      <point x="324" y="1530" type="qcurve" smooth="yes"/>
      <point x="817" y="1530" type="line" smooth="yes"/>
      <point x="837" y="1529"/>
    </contour>
  </outline>
</glyph>
<glyph name="asciicircum" format="1">
  <advance width="1024"/>
  <unicode hex="005E"/>
  <outline>
    <contour>
      <point x="1014" y="549" type="line"/>
      <point x="850" y="549" type="line"/>
      <point x="557" y="1165" type="line"/>
      <point x="545" y="1165" type="line"/>
      <point x="250" y="549" type="line"/>
      <point x="94" y="549" type="line"/>
      <point x="520" y="1403" type="line"/>
      <point x="588" y="1403" type="line"/>
    </contour>
  </outline>
</glyph>
<glyph name="underscore" format="1">
  <advance width="1024"/>
  <unicode hex="005F"/>
  <outline>
    <contour>
      <point x="1061" y="-266" type="line"/>
      <point x="-37" y="-266" type="line"/>
      <point x="-37" y="-145" type="line"/>
      <point x="1061" y="-145" type="line"/>
    </contour>
  </outline>
</glyph>
<glyph name="grave" format="1">
  <advance width="915"/>
  <unicode hex="0060"/>
  <outline>
    <contour>
      <point x="117" y="1219" type="line" smooth="yes"/>
      <point x="86" y="1248"/>
      <point x="168" y="1333"/>
      <point x="213" y="1333" type="qcurve" smooth="yes"/>
      <point x="238" y="1333"/>
      <point x="250" y="1315" type="qcurve" smooth="yes"/>
      <point x="459" y="1001" type="line" smooth="yes"/>
      <point x="479" y="970"/>
      <point x="471" y="950" type="qcurve" smooth="yes"/>
      <point x="463" y="927"/>
      <point x="440" y="930" type="qcurve" smooth="yes"/>
      <point x="417" y="930"/>
      <point x="397" y="946" type="qcurve" smooth="yes"/>
    </contour>
  </outline>
</glyph>
<glyph name="a" format="1">
  <advance width="964"/>
  <unicode hex="0061"/>
  <outline>
    <contour>
      <point x="299" y="-76" type="move" name="Anchor1"/>
    </contour>
    <contour>
      <point x="647" y="899" type="move" name="Anchor0"/>
    </contour>
    <contour>
      <point x="299" y="-76" type="move" name="Anchor-1"/>
    </contour>
    <contour>
      <point x="647" y="899" type="move" name="Anchor-0"/>
    </contour>
    <contour>
      <point x="752" y="180" type="line" smooth="yes"/>
      <point x="750" y="170"/>
      <point x="750" y="162" type="qcurve" smooth="yes"/>
      <point x="750" y="142"/>
      <point x="772" y="141" type="qcurve" smooth="yes"/>
      <point x="809" y="141"/>
      <point x="874" y="207" type="qcurve" smooth="yes"/>
      <point x="886" y="219"/>
      <point x="913" y="195" type="qcurve" smooth="yes"/>
      <point x="933" y="179"/>
      <point x="934" y="168" type="qcurve" smooth="yes"/>
      <point x="934" y="164"/>
      <point x="930" y="158" type="qcurve" smooth="yes"/>
      <point x="838" y="68"/>
      <point x="686" y="-27"/>
      <point x="631" y="-27" type="qcurve" smooth="yes"/>
      <point x="551" y="-27"/>
      <point x="553" y="63" type="qcurve" smooth="yes"/>
      <point x="553" y="112"/>
      <point x="569" y="156" type="qcurve" smooth="yes"/>
      <point x="596" y="215" type="line"/>
      <point x="584" y="221" type="line"/>
      <point x="361" y="-27"/>
      <point x="223" y="-27" type="qcurve" smooth="yes"/>
      <point x="149" y="-27"/>
      <point x="63" y="82"/>
      <point x="63" y="166" type="qcurve" smooth="yes"/>
      <point x="63" y="375"/>
      <point x="434" y="844"/>
      <point x="641" y="844" type="qcurve" smooth="yes"/>
      <point x="702" y="844"/>
      <point x="748" y="813" type="qcurve"/>
      <point x="768" y="862" type="line" smooth="yes"/>
      <point x="776" y="885"/>
      <point x="952" y="885"/>
      <point x="952" y="850" type="qcurve" smooth="yes"/>
      <point x="952" y="844"/>
      <point x="948" y="831" type="qcurve" smooth="yes"/>
    </contour>
    <contour>
      <point x="666" y="553" type="qcurve" smooth="yes"/>
      <point x="715" y="713" type="line"/>
      <point x="682" y="760"/>
      <point x="614" y="760" type="qcurve" smooth="yes"/>
      <point x="505" y="760"/>
      <point x="285" y="383"/>
      <point x="285" y="227" type="qcurve" smooth="yes"/>
      <point x="285" y="110"/>
      <point x="332" y="111" type="qcurve" smooth="yes"/>
      <point x="383" y="111"/>
      <point x="532" y="272"/>
      <point x="639" y="465"/>
    </contour>
  </outline>
</glyph>
<glyph name="b" format="1">
  <advance width="927"/>
  <unicode hex="0062"/>
  <outline>
    <contour>
      <point x="266" y="-76" type="move" name="Anchor1"/>
    </contour>
    <contour>
      <point x="266" y="-76" type="move" name="Anchor-1"/>
    </contour>
    <contour>
      <point x="915" y="608" type="qcurve" smooth="yes"/>
      <point x="915" y="360"/>
      <point x="543" y="-27"/>
      <point x="270" y="-27" type="qcurve" smooth="yes"/>
      <point x="90" y="-27"/>
      <point x="88" y="174" type="qcurve" smooth="yes"/>
      <point x="88" y="217"/>
      <point x="100" y="262" type="qcurve" smooth="yes"/>
      <point x="328" y="1214" type="line" smooth="yes"/>
      <point x="336" y="1255"/>
      <point x="338" y="1282" type="qcurve" smooth="yes"/>
      <point x="338" y="1360"/>
      <point x="274" y="1360" type="qcurve" smooth="yes"/>
      <point x="254" y="1360"/>
      <point x="256" y="1432"/>
      <point x="274" y="1432" type="qcurve" smooth="yes"/>
      <point x="356" y="1432"/>
      <point x="553" y="1487"/>
      <point x="561" y="1487" type="qcurve" smooth="yes"/>
      <point x="584" y="1487"/>
      <point x="584" y="1464" type="qcurve" smooth="yes"/>
      <point x="584" y="1458"/>
      <point x="580" y="1448" type="qcurve" smooth="yes"/>
      <point x="391" y="653" type="line"/>
      <point x="408" y="645" type="line"/>
      <point x="576" y="852"/>
      <point x="711" y="852" type="qcurve" smooth="yes"/>
      <point x="915" y="852"/>
    </contour>
    <contour>
      <point x="696" y="618" type="qcurve" smooth="yes"/>
      <point x="696" y="731"/>
      <point x="631" y="731" type="qcurve" smooth="yes"/>
      <point x="553" y="731"/>
      <point x="352" y="455"/>
      <point x="291" y="238"/>
      <point x="291" y="190" type="qcurve" smooth="yes"/>
      <point x="291" y="63"/>
      <point x="360" y="63" type="qcurve" smooth="yes"/>
      <point x="497" y="63"/>
      <point x="696" y="430"/>
    </contour>
  </outline>
</glyph>
<glyph name="c" format="1">
  <advance width="741"/>
  <unicode hex="0063"/>
  <outline>
    <contour>
      <point x="324" y="-76" type="move" name="Anchor1"/>
    </contour>
    <contour>
      <point x="596" y="899" type="move" name="Anchor0"/>
    </contour>
    <contour>
      <point x="324" y="-76" type="move" name="Anchor-1"/>
    </contour>
    <contour>
      <point x="596" y="899" type="move" name="Anchor-0"/>
    </contour>
    <contour>
      <point x="629" y="113" type="qcurve" smooth="yes"/>
      <point x="512" y="-26"/>
      <point x="334" y="-27" type="qcurve" smooth="yes"/>
      <point x="228" y="-27"/>
      <point x="92" y="133"/>
      <point x="92" y="264" type="qcurve" smooth="yes"/>
      <point x="92" y="467"/>
      <point x="406" y="852"/>
      <point x="588" y="852" type="qcurve" smooth="yes"/>
      <point x="668" y="852"/>
      <point x="780" y="786"/>
      <point x="780" y="737" type="qcurve" smooth="yes"/>
      <point x="780" y="700"/>
      <point x="715" y="643"/>
      <point x="678" y="643" type="qcurve" smooth="yes"/>
      <point x="635" y="643"/>
      <point x="618" y="674" type="qcurve"/>
      <point x="614" y="721"/>
      <point x="592" y="745" type="qcurve" smooth="yes"/>
      <point x="569" y="770"/>
      <point x="537" y="770" type="qcurve" smooth="yes"/>
      <point x="441" y="770"/>
      <point x="301" y="479"/>
      <point x="301" y="330" type="qcurve" smooth="yes"/>
      <point x="301" y="232"/>
      <point x="365" y="90"/>
      <point x="428" y="90" type="qcurve" smooth="yes"/>
      <point x="481" y="90"/>
      <point x="565" y="141"/>
      <point x="582" y="158" type="qcurve" smooth="yes"/>
      <point x="590" y="166"/>
      <point x="618" y="150"/>
      <point x="637" y="121"/>
    </contour>
  </outline>
</glyph>
<glyph name="d" format="1">
  <advance width="983"/>
  <unicode hex="0064"/>
  <outline>
    <contour>
      <point x="313" y="-76" type="move" name="Anchor1"/>
    </contour>
    <contour>
      <point x="313" y="-76" type="move" name="Anchor-1"/>
    </contour>
    <contour>
      <point x="795" y="227" type="line" smooth="yes"/>
      <point x="785" y="180"/>
      <point x="782" y="164" type="qcurve" smooth="yes"/>
      <point x="782" y="141"/>
      <point x="799" y="141" type="qcurve" smooth="yes"/>
      <point x="828" y="141"/>
      <point x="893" y="227" type="qcurve" smooth="yes"/>
      <point x="899" y="235"/>
      <point x="932" y="219"/>
      <point x="954" y="188"/>
      <point x="948" y="180" type="qcurve" smooth="yes"/>
      <point x="801" y="-27"/>
      <point x="674" y="-27" type="qcurve" smooth="yes"/>
      <point x="617" y="-27"/>
      <point x="578" y="45"/>
      <point x="578" y="111" type="qcurve" smooth="yes"/>
      <point x="578" y="131"/>
      <point x="596" y="215" type="qcurve"/>
      <point x="584" y="221" type="line"/>
      <point x="498" y="121"/>
      <point x="311" y="-27"/>
      <point x="223" y="-27" type="qcurve" smooth="yes"/>
      <point x="139" y="-27"/>
      <point x="63" y="100"/>
      <point x="63" y="172" type="qcurve" smooth="yes"/>
      <point x="63" y="373"/>
      <point x="428" y="852"/>
      <point x="633" y="852" type="qcurve" smooth="yes"/>
      <point x="688" y="852"/>
      <point x="741" y="821" type="qcurve"/>
      <point x="834" y="1210" type="line" smooth="yes"/>
      <point x="844" y="1253"/>
      <point x="844" y="1284" type="qcurve" smooth="yes"/>
      <point x="844" y="1360"/>
      <point x="782" y="1360" type="qcurve" smooth="yes"/>
      <point x="764" y="1360"/>
      <point x="764" y="1432"/>
      <point x="782" y="1432" type="qcurve" smooth="yes"/>
      <point x="866" y="1432"/>
      <point x="1059" y="1487"/>
      <point x="1067" y="1487" type="qcurve" smooth="yes"/>
      <point x="1087" y="1487"/>
      <point x="1087" y="1468" type="qcurve" smooth="yes"/>
      <point x="1087" y="1462"/>
      <point x="1085" y="1448" type="qcurve" smooth="yes"/>
    </contour>
    <contour>
      <point x="715" y="711" type="line"/>
      <point x="674" y="770"/>
      <point x="614" y="770" type="qcurve" smooth="yes"/>
      <point x="499" y="770"/>
      <point x="285" y="367"/>
      <point x="285" y="205" type="qcurve" smooth="yes"/>
      <point x="285" y="111"/>
      <point x="332" y="111" type="qcurve" smooth="yes"/>
      <point x="389" y="111"/>
      <point x="635" y="375"/>
      <point x="651" y="444" type="qcurve" smooth="yes"/>
    </contour>
  </outline>
</glyph>
<glyph name="e" format="1">
  <advance width="749"/>
  <unicode hex="0065"/>
  <outline>
    <contour>
      <point x="291" y="-76" type="move" name="Anchor1"/>
    </contour>
    <contour>
      <point x="621" y="899" type="move" name="Anchor0"/>
    </contour>
    <contour>
      <point x="291" y="-76" type="move" name="Anchor-1"/>
    </contour>
    <contour>
      <point x="621" y="899" type="move" name="Anchor-0"/>
    </contour>
    <contour>
      <point x="778" y="713" type="qcurve" smooth="yes"/>
      <point x="778" y="592"/>
      <point x="494" y="401"/>
      <point x="299" y="356" type="qcurve"/>
      <point x="283" y="280"/>
      <point x="283" y="252" type="qcurve" smooth="yes"/>
      <point x="283" y="105"/>
      <point x="375" y="104" type="qcurve" smooth="yes"/>
      <point x="424" y="104"/>
      <point x="549" y="182"/>
      <point x="575" y="207" type="qcurve" smooth="yes"/>
      <point x="583" y="211"/>
      <point x="610" y="197"/>
      <point x="631" y="172"/>
      <point x="625" y="164" type="qcurve" smooth="yes"/>
      <point x="480" y="-26"/>
      <point x="317" y="-27" type="qcurve" smooth="yes"/>
      <point x="77" y="-27"/>
      <point x="78" y="231" type="qcurve" smooth="yes"/>
      <point x="78" y="424"/>
      <point x="428" y="852"/>
      <point x="610" y="852" type="qcurve" smooth="yes"/>
      <point x="778" y="852"/>
    </contour>
    <contour>
      <point x="575" y="688" type="qcurve" smooth="yes"/>
      <point x="575" y="754"/>
      <point x="530" y="754" type="qcurve" smooth="yes"/>
      <point x="479" y="754"/>
      <point x="369" y="580"/>
      <point x="326" y="449" type="qcurve"/>
      <point x="414" y="478"/>
      <point x="575" y="610"/>
    </contour>
  </outline>
</glyph>
<glyph name="f" format="1">
  <advance width="622"/>
  <unicode hex="0066"/>
  <outline>
    <contour>
      <point x="295" y="-96" type="line" smooth="yes"/>
      <point x="275" y="-202"/>
      <point x="176" y="-436"/>
      <point x="0" y="-551"/>
      <point x="-96" y="-551" type="qcurve" smooth="yes"/>
      <point x="-184" y="-551"/>
      <point x="-287" y="-469"/>
      <point x="-287" y="-424" type="qcurve" smooth="yes"/>
      <point x="-287" y="-379"/>
      <point x="-229" y="-319"/>
      <point x="-195" y="-319" type="qcurve" smooth="yes"/>
      <point x="-136" y="-319"/>
      <point x="-74" y="-446"/>
      <point x="-43" y="-446" type="qcurve" smooth="yes"/>
      <point x="2" y="-446"/>
      <point x="45" y="-354"/>
      <point x="66" y="-250" type="qcurve" smooth="yes"/>
      <point x="266" y="737" type="line"/>
      <point x="86" y="737" type="line" smooth="yes"/>
      <point x="78" y="737"/>
      <point x="78" y="752" type="qcurve" smooth="yes"/>
      <point x="78" y="783"/>
      <point x="98" y="823" type="qcurve" smooth="yes"/>
      <point x="108" y="843"/>
      <point x="119" y="844" type="qcurve" smooth="yes"/>
      <point x="287" y="844" type="line"/>
      <point x="355" y="1202"/>
      <point x="598" y="1464"/>
      <point x="799" y="1464" type="qcurve" smooth="yes"/>
      <point x="901" y="1464"/>
      <point x="1026" y="1354"/>
      <point x="1026" y="1268" type="qcurve" smooth="yes"/>
      <point x="1026" y="1149"/>
      <point x="932" y="1149" type="qcurve" smooth="yes"/>
      <point x="889" y="1149"/>
      <point x="829" y="1196"/>
      <point x="829" y="1276" type="qcurve" smooth="yes"/>
      <point x="829" y="1382"/>
      <point x="748" y="1382" type="qcurve" smooth="yes"/>
      <point x="682" y="1382"/>
      <point x="541" y="1192"/>
      <point x="485" y="844" type="qcurve"/>
      <point x="741" y="844" type="line" smooth="yes"/>
      <point x="749" y="844"/>
      <point x="750" y="831" type="qcurve" smooth="yes"/>
      <point x="750" y="806"/>
      <point x="725" y="758" type="qcurve" smooth="yes"/>
      <point x="715" y="738"/>
      <point x="707" y="737" type="qcurve" smooth="yes"/>
      <point x="463" y="737" type="line"/>
    </contour>
  </outline>
</glyph>
<glyph name="g" format="1">
  <advance width="866"/>
  <unicode hex="0067"/>
  <outline>
    <contour>
      <point x="586" y="899" type="move" name="Anchor0"/>
    </contour>
    <contour>
      <point x="586" y="899" type="move" name="Anchor-0"/>
    </contour>
    <contour>
      <point x="973" y="754" type="qcurve" smooth="yes"/>
      <point x="973" y="664"/>
      <point x="909" y="664" type="qcurve" smooth="yes"/>
      <point x="874" y="664"/>
      <point x="770" y="705" type="qcurve"/>
      <point x="784" y="668"/>
      <point x="784" y="526"/>
      <point x="702" y="342"/>
      <point x="547" y="213"/>
      <point x="442" y="193" type="qcurve" smooth="yes"/>
      <point x="385" y="181"/>
      <point x="383" y="178" type="qcurve" smooth="yes"/>
      <point x="332" y="145"/>
      <point x="332" y="70"/>
      <point x="479" y="4" type="qcurve" smooth="yes"/>
      <point x="592" y="-45"/>
      <point x="805" y="-190"/>
      <point x="805" y="-412"/>
      <point x="479" y="-559"/>
      <point x="270" y="-559" type="qcurve" smooth="yes"/>
      <point x="94" y="-559"/>
      <point x="-106" y="-418"/>
      <point x="-106" y="-238"/>
      <point x="131" y="-111"/>
      <point x="238" y="-76" type="qcurve"/>
      <point x="144" y="-27"/>
      <point x="143" y="33" type="qcurve" smooth="yes"/>
      <point x="143" y="101"/>
      <point x="293" y="197" type="qcurve"/>
      <point x="86" y="254"/>
      <point x="86" y="604"/>
      <point x="379" y="852"/>
      <point x="578" y="852" type="qcurve" smooth="yes"/>
      <point x="623" y="852"/>
      <point x="686" y="823" type="qcurve" smooth="yes"/>
      <point x="752" y="794"/>
      <point x="786" y="793" type="qcurve" smooth="yes"/>
      <point x="804" y="793"/>
      <point x="899" y="813"/>
      <point x="920" y="813" type="qcurve" smooth="yes"/>
      <point x="973" y="813"/>
    </contour>
    <contour>
      <point x="606" y="715" type="qcurve" smooth="yes"/>
      <point x="606" y="756"/>
      <point x="565" y="756" type="qcurve" smooth="yes"/>
      <point x="473" y="756"/>
      <point x="268" y="455"/>
      <point x="268" y="319" type="qcurve" smooth="yes"/>
      <point x="268" y="278"/>
      <point x="319" y="279" type="qcurve" smooth="yes"/>
      <point x="415" y="279"/>
      <point x="606" y="580"/>
    </contour>
    <contour>
      <point x="596" y="-324" type="qcurve" smooth="yes"/>
      <point x="596" y="-275"/>
      <point x="369" y="-129"/>
      <point x="268" y="-129"/>
      <point x="111" y="-240"/>
      <point x="111" y="-375"/>
      <point x="299" y="-451"/>
      <point x="487" y="-451"/>
      <point x="596" y="-392"/>
    </contour>
  </outline>
</glyph>
<glyph name="h" format="1">
  <advance width="940"/>
  <unicode hex="0068"/>
  <outline>
    <contour>
      <point x="307" y="-76" type="move" name="Anchor1"/>
    </contour>
    <contour>
      <point x="307" y="-76" type="move" name="Anchor-1"/>
    </contour>
    <contour>
      <point x="932" y="610" type="qcurve" smooth="yes"/>
      <point x="932" y="440"/>
      <point x="700" y="-27"/>
      <point x="522" y="-27" type="qcurve" smooth="yes"/>
      <point x="463" y="-27"/>
      <point x="379" y="45"/>
      <point x="379" y="92" type="qcurve" smooth="yes"/>
      <point x="379" y="141"/>
      <point x="430" y="205"/>
      <point x="477" y="205" type="qcurve" smooth="yes"/>
      <point x="538" y="205"/>
      <point x="575" y="90"/>
      <point x="633" y="90"/>
      <point x="686" y="244"/>
      <point x="729" y="487"/>
      <point x="729" y="588" type="qcurve" smooth="yes"/>
      <point x="729" y="721"/>
      <point x="639" y="721" type="qcurve" smooth="yes"/>
      <point x="549" y="721"/>
      <point x="401" y="496" type="qcurve" smooth="yes"/>
      <point x="362" y="437"/>
      <point x="313" y="240" type="qcurve" smooth="yes"/>
      <point x="252" y="-4" type="line" smooth="yes"/>
      <point x="246" y="-27"/>
      <point x="152" y="-27" type="qcurve" smooth="yes"/>
      <point x="58" y="-27"/>
      <point x="57" y="10" type="qcurve" smooth="yes"/>
      <point x="57" y="14" type="line"/>
      <point x="346" y="1217" type="line" smooth="yes"/>
      <point x="356" y="1258"/>
      <point x="356" y="1286" type="qcurve" smooth="yes"/>
      <point x="356" y="1360"/>
      <point x="293" y="1360" type="qcurve" smooth="yes"/>
      <point x="273" y="1360"/>
      <point x="274" y="1432"/>
      <point x="293" y="1432" type="qcurve" smooth="yes"/>
      <point x="379" y="1432"/>
      <point x="573" y="1487"/>
      <point x="582" y="1487" type="qcurve" smooth="yes"/>
      <point x="607" y="1487"/>
      <point x="598" y="1448" type="qcurve" smooth="yes"/>
      <point x="410" y="649" type="line"/>
      <point x="426" y="639" type="line"/>
      <point x="580" y="852"/>
      <point x="731" y="852" type="qcurve" smooth="yes"/>
      <point x="932" y="852"/>
    </contour>
  </outline>
</glyph>
<glyph name="i" format="1">
  <advance width="532"/>
  <unicode hex="0069"/>
  <outline>
    <contour>
      <point x="207" y="-76" type="move" name="Anchor1"/>
    </contour>
    <contour>
      <point x="207" y="-76" type="move" name="Anchor-1"/>
    </contour>
    <contour>
      <point x="332" y="180" type="line" smooth="yes"/>
      <point x="328" y="166"/>
      <point x="328" y="158" type="qcurve" smooth="yes"/>
      <point x="328" y="142"/>
      <point x="379" y="141"/>
      <point x="442" y="221" type="qcurve" smooth="yes"/>
      <point x="452" y="235"/>
      <point x="479" y="211" type="qcurve" smooth="yes"/>
      <point x="499" y="193"/>
      <point x="502" y="182" type="qcurve" smooth="yes"/>
      <point x="502" y="178"/>
      <point x="498" y="174" type="qcurve" smooth="yes"/>
      <point x="435" y="94"/>
      <point x="274" y="-27"/>
      <point x="219" y="-27" type="qcurve" smooth="yes"/>
      <point x="119" y="-27"/>
      <point x="119" y="98" type="qcurve" smooth="yes"/>
      <point x="119" y="133"/>
      <point x="129" y="168" type="qcurve" smooth="yes"/>
      <point x="276" y="647" type="line" smooth="yes"/>
      <point x="280" y="659"/>
      <point x="281" y="668" type="qcurve" smooth="yes"/>
      <point x="281" y="688"/>
      <point x="242" y="688"/>
      <point x="164" y="606" type="qcurve" smooth="yes"/>
      <point x="152" y="594"/>
      <point x="127" y="621" type="qcurve" smooth="yes"/>
      <point x="109" y="639"/>
      <point x="109" y="647" type="qcurve" smooth="yes"/>
      <point x="109" y="649"/>
      <point x="111" y="655" type="qcurve" smooth="yes"/>
      <point x="174" y="733"/>
      <point x="332" y="852"/>
      <point x="387" y="852" type="qcurve" smooth="yes"/>
      <point x="491" y="852"/>
      <point x="492" y="725" type="qcurve" smooth="yes"/>
      <point x="492" y="700"/>
      <point x="479" y="662" type="qcurve" smooth="yes"/>
    </contour>
    <contour>
      <point x="635" y="1141" type="qcurve" smooth="yes"/>
      <point x="635" y="1088"/>
      <point x="549" y="1010"/>
      <point x="496" y="1010" type="qcurve" smooth="yes"/>
      <point x="355" y="1010"/>
      <point x="354" y="1161" type="qcurve" smooth="yes"/>
      <point x="354" y="1210"/>
      <point x="442" y="1290"/>
      <point x="496" y="1290" type="qcurve" smooth="yes"/>
      <point x="635" y="1291"/>
    </contour>
  </outline>
</glyph>
<glyph name="j" format="1">
  <advance width="489"/>
  <unicode hex="006A"/>
  <outline>
    <contour>
      <point x="342" y="143" type="line" smooth="yes"/>
      <point x="311" y="0"/>
      <point x="209" y="-299"/>
      <point x="-20" y="-553"/>
      <point x="-209" y="-553" type="qcurve" smooth="yes"/>
      <point x="-250" y="-553"/>
      <point x="-311" y="-504"/>
      <point x="-311" y="-461" type="qcurve" smooth="yes"/>
      <point x="-311" y="-420"/>
      <point x="-248" y="-369"/>
      <point x="-207" y="-369" type="qcurve" smooth="yes"/>
      <point x="-176" y="-369"/>
      <point x="-102" y="-446"/>
      <point x="-76" y="-446" type="qcurve" smooth="yes"/>
      <point x="-41" y="-446"/>
      <point x="31" y="-334"/>
      <point x="55" y="-229" type="qcurve" smooth="yes"/>
      <point x="264" y="647" type="line" smooth="yes"/>
      <point x="266" y="659"/>
      <point x="266" y="668" type="qcurve" smooth="yes"/>
      <point x="266" y="688"/>
      <point x="217" y="688"/>
      <point x="150" y="604" type="qcurve" smooth="yes"/>
      <point x="140" y="592"/>
      <point x="113" y="616" type="qcurve" smooth="yes"/>
      <point x="93" y="634"/>
      <point x="92" y="643" type="qcurve" smooth="yes"/>
      <point x="92" y="647"/>
      <point x="96" y="651" type="qcurve" smooth="yes"/>
      <point x="262" y="852"/>
      <point x="381" y="852" type="qcurve" smooth="yes"/>
      <point x="471" y="852"/>
      <point x="471" y="729" type="qcurve" smooth="yes"/>
      <point x="471" y="698"/>
      <point x="465" y="666" type="qcurve" smooth="yes"/>
    </contour>
    <contour>
      <point x="598" y="1141" type="qcurve" smooth="yes"/>
      <point x="598" y="1088"/>
      <point x="510" y="1010"/>
      <point x="459" y="1010" type="qcurve" smooth="yes"/>
      <point x="318" y="1010"/>
      <point x="315" y="1161" type="qcurve" smooth="yes"/>
      <point x="315" y="1210"/>
      <point x="403" y="1290"/>
      <point x="459" y="1290" type="qcurve" smooth="yes"/>
      <point x="598" y="1291"/>
    </contour>
  </outline>
</glyph>
<glyph name="k" format="1">
  <advance width="927"/>
  <unicode hex="006B"/>
  <outline>
    <contour>
      <point x="324" y="-76" type="move" name="Anchor1"/>
    </contour>
    <contour>
      <point x="324" y="-76" type="move" name="Anchor-1"/>
    </contour>
    <contour>
      <point x="866" y="707" type="qcurve" smooth="yes"/>
      <point x="866" y="631"/>
      <point x="680" y="457"/>
      <point x="578" y="403" type="qcurve" smooth="yes"/>
      <point x="566" y="397"/>
      <point x="565" y="375"/>
      <point x="575" y="360" type="qcurve" smooth="yes"/>
      <point x="694" y="195" type="line" smooth="yes"/>
      <point x="770" y="91"/>
      <point x="825" y="90" type="qcurve" smooth="yes"/>
      <point x="860" y="90"/>
      <point x="899" y="131" type="qcurve" smooth="yes"/>
      <point x="901" y="133"/>
      <point x="907" y="133" type="qcurve" smooth="yes"/>
      <point x="917" y="133"/>
      <point x="952" y="102"/>
      <point x="952" y="92" type="qcurve" smooth="yes"/>
      <point x="952" y="88"/>
      <point x="950" y="86" type="qcurve" smooth="yes"/>
      <point x="852" y="-27"/>
      <point x="748" y="-27" type="qcurve" smooth="yes"/>
      <point x="662" y="-27"/>
      <point x="569" y="29"/>
      <point x="516" y="109" type="qcurve" smooth="yes"/>
      <point x="379" y="319" type="line" smooth="yes"/>
      <point x="369" y="339"/>
      <point x="344" y="340" type="qcurve" smooth="yes"/>
      <point x="334" y="340"/>
      <point x="328" y="313" type="qcurve" smooth="yes"/>
      <point x="252" y="-6" type="line" smooth="yes"/>
      <point x="246" y="-26"/>
      <point x="49" y="-27"/>
      <point x="57" y="12" type="qcurve" smooth="yes"/>
      <point x="348" y="1214" type="line" smooth="yes"/>
      <point x="356" y="1253"/>
      <point x="356" y="1272" type="qcurve" smooth="yes"/>
      <point x="356" y="1360"/>
      <point x="293" y="1360" type="qcurve" smooth="yes"/>
      <point x="273" y="1360"/>
      <point x="274" y="1432"/>
      <point x="293" y="1432" type="qcurve" smooth="yes"/>
      <point x="377" y="1432"/>
      <point x="573" y="1487"/>
      <point x="582" y="1487" type="qcurve" smooth="yes"/>
      <point x="607" y="1487"/>
      <point x="598" y="1448" type="qcurve" smooth="yes"/>
      <point x="424" y="717" type="line"/>
      <point x="440" y="709" type="line"/>
      <point x="489" y="766"/>
      <point x="641" y="852"/>
      <point x="707" y="852" type="qcurve" smooth="yes"/>
      <point x="766" y="852"/>
      <point x="866" y="789"/>
    </contour>
    <contour>
      <point x="659" y="684" type="qcurve" smooth="yes"/>
      <point x="659" y="739"/>
      <point x="623" y="739" type="qcurve" smooth="yes"/>
      <point x="527" y="739"/>
      <point x="420" y="610" type="qcurve" smooth="yes"/>
      <point x="389" y="573"/>
      <point x="383" y="547" type="qcurve" smooth="yes"/>
      <point x="354" y="424" type="line" smooth="yes"/>
      <point x="352" y="418"/>
      <point x="352" y="408" type="qcurve" smooth="yes"/>
      <point x="352" y="394"/>
      <point x="379" y="393" type="qcurve" smooth="yes"/>
      <point x="481" y="393"/>
      <point x="659" y="590"/>
    </contour>
  </outline>
</glyph>
<glyph name="l" format="1">
  <advance width="495"/>
  <unicode hex="006C"/>
  <outline>
    <contour>
      <point x="168" y="-76" type="move" name="Anchor1"/>
    </contour>
    <contour>
      <point x="168" y="-76" type="move" name="Anchor-1"/>
    </contour>
    <contour>
      <point x="297" y="195" type="line" smooth="yes"/>
      <point x="293" y="175"/>
      <point x="291" y="166" type="qcurve" smooth="yes"/>
      <point x="291" y="141"/>
      <point x="311" y="141" type="qcurve" smooth="yes"/>
      <point x="346" y="141"/>
      <point x="403" y="227" type="qcurve" smooth="yes"/>
      <point x="405" y="233"/>
      <point x="414" y="233" type="qcurve" smooth="yes"/>
      <point x="424" y="233"/>
      <point x="465" y="201"/>
      <point x="465" y="190" type="qcurve" smooth="yes"/>
      <point x="465" y="186"/>
      <point x="461" y="182" type="qcurve" smooth="yes"/>
      <point x="303" y="-27"/>
      <point x="180" y="-27" type="qcurve" smooth="yes"/>
      <point x="86" y="-27"/>
      <point x="86" y="100" type="qcurve" smooth="yes"/>
      <point x="86" y="127"/>
      <point x="92" y="156" type="qcurve" smooth="yes"/>
      <point x="340" y="1210" type="line" smooth="yes"/>
      <point x="350" y="1253"/>
      <point x="350" y="1284" type="qcurve" smooth="yes"/>
      <point x="350" y="1360"/>
      <point x="289" y="1360" type="qcurve" smooth="yes"/>
      <point x="269" y="1360"/>
      <point x="270" y="1432"/>
      <point x="289" y="1432" type="qcurve" smooth="yes"/>
      <point x="373" y="1432"/>
      <point x="565" y="1487"/>
      <point x="573" y="1487" type="qcurve" smooth="yes"/>
      <point x="602" y="1487"/>
      <point x="592" y="1448" type="qcurve" smooth="yes"/>
    </contour>
  </outline>
</glyph>
<glyph name="m" format="1">
  <advance width="1523"/>
  <unicode hex="006D"/>
  <outline>
    <contour>
      <point x="651" y="-76" type="move" name="Anchor1"/>
    </contour>
    <contour>
      <point x="897" y="899" type="move" name="Anchor0"/>
    </contour>
    <contour>
      <point x="651" y="-76" type="move" name="Anchor-1"/>
    </contour>
    <contour>
      <point x="897" y="899" type="move" name="Anchor-0"/>
    </contour>
    <contour>
      <point x="1329" y="231" type="line" smooth="yes"/>
      <point x="1309" y="163"/>
      <point x="1309" y="156" type="qcurve" smooth="yes"/>
      <point x="1309" y="140"/>
      <point x="1358" y="139"/>
      <point x="1436" y="227" type="qcurve" smooth="yes"/>
      <point x="1440" y="231"/>
      <point x="1446" y="231" type="qcurve" smooth="yes"/>
      <point x="1456" y="231"/>
      <point x="1493" y="197"/>
      <point x="1493" y="186" type="qcurve" smooth="yes"/>
      <point x="1493" y="182"/>
      <point x="1489" y="178" type="qcurve" smooth="yes"/>
      <point x="1319" y="-27"/>
      <point x="1194" y="-27" type="qcurve" smooth="yes"/>
      <point x="1098" y="-27"/>
      <point x="1098" y="109" type="qcurve" smooth="yes"/>
      <point x="1098" y="129"/>
      <point x="1110" y="168" type="qcurve" smooth="yes"/>
      <point x="1237" y="580" type="line" smooth="yes"/>
      <point x="1262" y="662"/>
      <point x="1262" y="702" type="qcurve" smooth="yes"/>
      <point x="1262" y="743"/>
      <point x="1235" y="743" type="qcurve" smooth="yes"/>
      <point x="1186" y="743"/>
      <point x="1047" y="573"/>
      <point x="899" y="322"/>
      <point x="762" y="-8" type="qcurve" smooth="yes"/>
      <point x="752" y="-31"/>
      <point x="555" y="-33"/>
      <point x="565" y="0" type="qcurve" smooth="yes"/>
      <point x="729" y="535" type="line" smooth="yes"/>
      <point x="772" y="674"/>
      <point x="772" y="707" type="qcurve" smooth="yes"/>
      <point x="772" y="744"/>
      <point x="748" y="743" type="qcurve" smooth="yes"/>
      <point x="709" y="743"/>
      <point x="588" y="614"/>
      <point x="436" y="377"/>
      <point x="270" y="-4" type="qcurve" smooth="yes"/>
      <point x="260" y="-27"/>
      <point x="68" y="-27"/>
      <point x="74" y="2" type="qcurve" smooth="yes"/>
      <point x="264" y="614" type="line" smooth="yes"/>
      <point x="276" y="653"/>
      <point x="276" y="664" type="qcurve" smooth="yes"/>
      <point x="276" y="689"/>
      <point x="229" y="688"/>
      <point x="164" y="606" type="qcurve" smooth="yes"/>
      <point x="160" y="602"/>
      <point x="156" y="600" type="qcurve" smooth="yes"/>
      <point x="146" y="600"/>
      <point x="109" y="637"/>
      <point x="109" y="647" type="qcurve" smooth="yes"/>
      <point x="109" y="651"/>
      <point x="111" y="655" type="qcurve" smooth="yes"/>
      <point x="275" y="852"/>
      <point x="391" y="852" type="qcurve" smooth="yes"/>
      <point x="481" y="852"/>
      <point x="481" y="743" type="qcurve" smooth="yes"/>
      <point x="481" y="710"/>
      <point x="471" y="676" type="qcurve" smooth="yes"/>
      <point x="420" y="504" type="line"/>
      <point x="430" y="500" type="line"/>
      <point x="510" y="643"/>
      <point x="717" y="852"/>
      <point x="815" y="852" type="qcurve" smooth="yes"/>
      <point x="948" y="852"/>
      <point x="948" y="719" type="qcurve" smooth="yes"/>
      <point x="948" y="660"/>
      <point x="909" y="522" type="qcurve"/>
      <point x="905" y="504" type="line"/>
      <point x="915" y="500" type="line"/>
      <point x="1118" y="852"/>
      <point x="1313" y="852" type="qcurve" smooth="yes"/>
      <point x="1454" y="852"/>
      <point x="1454" y="711" type="qcurve" smooth="yes"/>
      <point x="1454" y="643"/>
      <point x="1425" y="547" type="qcurve" smooth="yes"/>
    </contour>
  </outline>
</glyph>
<glyph name="n" format="1">
  <advance width="1024"/>
  <unicode hex="006E"/>
  <outline>
    <contour>
      <point x="426" y="-76" type="move" name="Anchor1"/>
    </contour>
    <contour>
      <point x="729" y="899" type="move" name="Anchor0"/>
    </contour>
    <contour>
      <point x="426" y="-76" type="move" name="Anchor-1"/>
    </contour>
    <contour>
      <point x="729" y="899" type="move" name="Anchor-0"/>
    </contour>
    <contour>
      <point x="831" y="231" type="line" smooth="yes"/>
      <point x="811" y="165"/>
      <point x="811" y="162" type="qcurve" smooth="yes"/>
      <point x="811" y="142"/>
      <point x="856" y="141"/>
      <point x="932" y="225" type="qcurve" smooth="yes"/>
      <point x="934" y="229"/>
      <point x="940" y="229" type="qcurve" smooth="yes"/>
      <point x="950" y="229"/>
      <point x="989" y="195"/>
      <point x="989" y="182" type="qcurve" smooth="yes"/>
      <point x="989" y="178"/>
      <point x="987" y="176" type="qcurve" smooth="yes"/>
      <point x="825" y="-27"/>
      <point x="690" y="-27" type="qcurve" smooth="yes"/>
      <point x="600" y="-27"/>
      <point x="600" y="100" type="qcurve" smooth="yes"/>
      <point x="600" y="133"/>
      <point x="610" y="168" type="qcurve" smooth="yes"/>
      <point x="735" y="580" type="line" smooth="yes"/>
      <point x="766" y="682"/>
      <point x="766" y="711" type="qcurve" smooth="yes"/>
      <point x="766" y="744"/>
      <point x="748" y="743" type="qcurve" smooth="yes"/>
      <point x="650" y="743"/>
      <point x="348" y="213"/>
      <point x="272" y="-4" type="qcurve" smooth="yes"/>
      <point x="264" y="-27"/>
      <point x="68" y="-27"/>
      <point x="74" y="-2" type="qcurve" smooth="yes"/>
      <point x="268" y="621" type="line" smooth="yes"/>
      <point x="278" y="656"/>
      <point x="279" y="666" type="qcurve" smooth="yes"/>
      <point x="279" y="689"/>
      <point x="233" y="688"/>
      <point x="164" y="606" type="qcurve" smooth="yes"/>
      <point x="160" y="602"/>
      <point x="156" y="602" type="qcurve" smooth="yes"/>
      <point x="146" y="602"/>
      <point x="109" y="637"/>
      <point x="109" y="647" type="qcurve" smooth="yes"/>
      <point x="109" y="651"/>
      <point x="111" y="655" type="qcurve" smooth="yes"/>
      <point x="281" y="852"/>
      <point x="393" y="852" type="qcurve" smooth="yes"/>
      <point x="481" y="852"/>
      <point x="481" y="748" type="qcurve" smooth="yes"/>
      <point x="481" y="711"/>
      <point x="465" y="666" type="qcurve" smooth="yes"/>
      <point x="408" y="504" type="line"/>
      <point x="420" y="500" type="line"/>
      <point x="621" y="852"/>
      <point x="811" y="852" type="qcurve" smooth="yes"/>
      <point x="954" y="852"/>
      <point x="954" y="711" type="qcurve" smooth="yes"/>
      <point x="954" y="639"/>
      <point x="926" y="547" type="qcurve" smooth="yes"/>
    </contour>
  </outline>
</glyph>
<glyph name="o" format="1">
  <advance width="946"/>
  <unicode hex="006F"/>
  <outline>
    <contour>
      <point x="354" y="-76" type="move" name="Anchor1"/>
    </contour>
    <contour>
      <point x="647" y="899" type="move" name="Anchor0"/>
    </contour>
    <contour>
      <point x="354" y="-76" type="move" name="Anchor-1"/>
    </contour>
    <contour>
      <point x="647" y="899" type="move" name="Anchor-0"/>
    </contour>
    <contour>
      <point x="909" y="528" type="qcurve" smooth="yes"/>
      <point x="909" y="319"/>
      <point x="612" y="-27"/>
      <point x="391" y="-27" type="qcurve" smooth="yes"/>
      <point x="252" y="-27"/>
      <point x="113" y="168"/>
      <point x="113" y="315" type="qcurve" smooth="yes"/>
      <point x="113" y="505"/>
      <point x="438" y="852"/>
      <point x="631" y="852" type="qcurve" smooth="yes"/>
      <point x="770" y="852"/>
      <point x="909" y="671"/>
    </contour>
    <contour>
      <point x="731" y="629" type="qcurve" smooth="yes"/>
      <point x="731" y="748"/>
      <point x="641" y="748" type="qcurve" smooth="yes"/>
      <point x="537" y="748"/>
      <point x="295" y="346"/>
      <point x="295" y="203" type="qcurve" smooth="yes"/>
      <point x="295" y="86"/>
      <point x="391" y="86" type="qcurve" smooth="yes"/>
      <point x="485" y="86"/>
      <point x="731" y="488"/>
    </contour>
  </outline>
</glyph>
<glyph name="p" format="1">
  <advance width="909"/>
  <unicode hex="0070"/>
  <outline>
    <contour>
      <point x="901" y="516" type="qcurve" smooth="yes"/>
      <point x="901" y="307"/>
      <point x="543" y="-27"/>
      <point x="336" y="-27" type="qcurve" smooth="yes"/>
      <point x="316" y="-27"/>
      <point x="279" y="-23" type="qcurve"/>
      <point x="186" y="-401" type="line" smooth="yes"/>
      <point x="182" y="-417"/>
      <point x="182" y="-430" type="qcurve" smooth="yes"/>
      <point x="182" y="-483"/>
      <point x="299" y="-485" type="qcurve" smooth="yes"/>
      <point x="309" y="-485"/>
      <point x="309" y="-500" type="qcurve" smooth="yes"/>
      <point x="309" y="-516"/>
      <point x="291" y="-559"/>
      <point x="279" y="-559" type="qcurve" smooth="yes"/>
      <point x="197" y="-551"/>
      <point x="-68" y="-551"/>
      <point x="-150" y="-559" type="qcurve" smooth="yes"/>
      <point x="-158" y="-559"/>
      <point x="-158" y="-549" type="qcurve" smooth="yes"/>
      <point x="-158" y="-533"/>
      <point x="-141" y="-485"/>
      <point x="-127" y="-485" type="qcurve" smooth="yes"/>
      <point x="-29" y="-485"/>
      <point x="-10" y="-410" type="qcurve" smooth="yes"/>
      <point x="252" y="670" type="line"/>
      <point x="209" y="647"/>
      <point x="137" y="588" type="qcurve" smooth="yes"/>
      <point x="135" y="586"/>
      <point x="129" y="586" type="qcurve" smooth="yes"/>
      <point x="119" y="586"/>
      <point x="86" y="621"/>
      <point x="86" y="633" type="qcurve" smooth="yes"/>
      <point x="86" y="637"/>
      <point x="88" y="639" type="qcurve" smooth="yes"/>
      <point x="176" y="725"/>
      <point x="274" y="776" type="qcurve"/>
      <point x="326" y="1012" type="line" smooth="yes"/>
      <point x="332" y="1045"/>
      <point x="461" y="1079"/>
      <point x="500" y="1079" type="qcurve" smooth="yes"/>
      <point x="543" y="1079"/>
      <point x="537" y="1053" type="qcurve" smooth="yes"/>
      <point x="487" y="840" type="line"/>
      <point x="540" y="844"/>
      <point x="555" y="844" type="qcurve" smooth="yes"/>
      <point x="702" y="844"/>
      <point x="901" y="668"/>
    </contour>
    <contour>
      <point x="686" y="481" type="qcurve" smooth="yes"/>
      <point x="686" y="592"/>
      <point x="608" y="741"/>
      <point x="516" y="741" type="qcurve" smooth="yes"/>
      <point x="491" y="741"/>
      <point x="461" y="735" type="qcurve"/>
      <point x="309" y="113" type="line" smooth="yes"/>
      <point x="305" y="95"/>
      <point x="305" y="80" type="qcurve" smooth="yes"/>
      <point x="305" y="55"/>
      <point x="340" y="55" type="qcurve" smooth="yes"/>
      <point x="479" y="55"/>
      <point x="686" y="331"/>
    </contour>
  </outline>
</glyph>
<glyph name="q" format="1">
  <advance width="978"/>
  <unicode hex="0071"/>
  <outline>
    <contour>
      <point x="709" y="899" type="move" name="Anchor0"/>
    </contour>
    <contour>
      <point x="709" y="899" type="move" name="Anchor-0"/>
    </contour>
    <contour>
      <point x="717" y="-369" type="line" smooth="yes"/>
      <point x="715" y="-381"/>
      <point x="715" y="-393" type="qcurve" smooth="yes"/>
      <point x="715" y="-436"/>
      <point x="766" y="-436" type="qcurve" smooth="yes"/>
      <point x="786" y="-436"/>
      <point x="813" y="-432" type="qcurve" smooth="yes"/>
      <point x="823" y="-430"/>
      <point x="823" y="-451" type="qcurve" smooth="yes"/>
      <point x="823" y="-510"/>
      <point x="791" y="-510" type="qcurve" smooth="yes"/>
      <point x="629" y="-510"/>
      <point x="377" y="-559" type="qcurve" smooth="yes"/>
      <point x="367" y="-559"/>
      <point x="367" y="-543" type="qcurve" smooth="yes"/>
      <point x="367" y="-482"/>
      <point x="410" y="-477" type="qcurve" smooth="yes"/>
      <point x="496" y="-471"/>
      <point x="520" y="-373" type="qcurve" smooth="yes"/>
      <point x="672" y="258" type="line"/>
      <point x="662" y="266" type="line"/>
      <point x="558" y="143"/>
      <point x="326" y="-27"/>
      <point x="233" y="-27" type="qcurve" smooth="yes"/>
      <point x="147" y="-27"/>
      <point x="63" y="86"/>
      <point x="63" y="160" type="qcurve" smooth="yes"/>
      <point x="63" y="377"/>
      <point x="438" y="852"/>
      <point x="705" y="852" type="qcurve" smooth="yes"/>
      <point x="779" y="852"/>
      <point x="829" y="780" type="qcurve"/>
      <point x="891" y="887" type="line" smooth="yes"/>
      <point x="901" y="905"/>
      <point x="926" y="905" type="qcurve" smooth="yes"/>
      <point x="1035" y="905"/>
      <point x="1016" y="840" type="qcurve" smooth="yes"/>
      <point x="930" y="516" type="line"/>
    </contour>
    <contour>
      <point x="739" y="627" type="qcurve" smooth="yes"/>
      <point x="739" y="770"/>
      <point x="655" y="770" type="qcurve" smooth="yes"/>
      <point x="530" y="770"/>
      <point x="285" y="305"/>
      <point x="285" y="150" type="qcurve" smooth="yes"/>
      <point x="285" y="99"/>
      <point x="334" y="98" type="qcurve" smooth="yes"/>
      <point x="381" y="98"/>
      <point x="596" y="287"/>
      <point x="657" y="387" type="qcurve" smooth="yes"/>
      <point x="739" y="521"/>
    </contour>
  </outline>
</glyph>
<glyph name="r" format="1">
  <advance width="768"/>
  <unicode hex="0072"/>
  <outline>
    <contour>
      <point x="319" y="-76" type="move" name="Anchor1"/>
    </contour>
    <contour>
      <point x="567" y="899" type="move" name="Anchor0"/>
    </contour>
    <contour>
      <point x="319" y="-76" type="move" name="Anchor-1"/>
    </contour>
    <contour>
      <point x="567" y="899" type="move" name="Anchor-0"/>
    </contour>
    <contour>
      <point x="850" y="739" type="qcurve" smooth="yes"/>
      <point x="850" y="690"/>
      <point x="801" y="635"/>
      <point x="760" y="635" type="qcurve" smooth="yes"/>
      <point x="715" y="635"/>
      <point x="651" y="692"/>
      <point x="627" y="692" type="qcurve" smooth="yes"/>
      <point x="570" y="692"/>
      <point x="385" y="301"/>
      <point x="305" y="-4" type="qcurve" smooth="yes"/>
      <point x="299" y="-27"/>
      <point x="109" y="-27"/>
      <point x="109" y="8" type="qcurve" smooth="yes"/>
      <point x="109" y="14" type="line"/>
      <point x="231" y="598" type="line" smooth="yes"/>
      <point x="243" y="659"/>
      <point x="244" y="670" type="qcurve" smooth="yes"/>
      <point x="244" y="688"/>
      <point x="199" y="688"/>
      <point x="131" y="596" type="qcurve" smooth="yes"/>
      <point x="129" y="592"/>
      <point x="121" y="592" type="qcurve" smooth="yes"/>
      <point x="111" y="592"/>
      <point x="92" y="604" type="qcurve" smooth="yes"/>
      <point x="69" y="620"/>
      <point x="70" y="633" type="qcurve" smooth="yes"/>
      <point x="70" y="635"/>
      <point x="72" y="639" type="qcurve" smooth="yes"/>
      <point x="162" y="758"/>
      <point x="301" y="852"/>
      <point x="358" y="852" type="qcurve" smooth="yes"/>
      <point x="442" y="852"/>
      <point x="442" y="756" type="qcurve" smooth="yes"/>
      <point x="442" y="719"/>
      <point x="434" y="684" type="qcurve" smooth="yes"/>
      <point x="408" y="567" type="line"/>
      <point x="420" y="563" type="line"/>
      <point x="563" y="852"/>
      <point x="713" y="852" type="qcurve" smooth="yes"/>
      <point x="768" y="852"/>
      <point x="850" y="788"/>
    </contour>
  </outline>
</glyph>
<glyph name="s" format="1">
  <advance width="616"/>
  <unicode hex="0073"/>
  <outline>
    <contour>
      <point x="213" y="-76" type="move" name="Anchor1"/>
    </contour>
    <contour>
      <point x="473" y="899" type="move" name="Anchor0"/>
    </contour>
    <contour>
      <point x="213" y="-76" type="move" name="Anchor-1"/>
    </contour>
    <contour>
      <point x="473" y="899" type="move" name="Anchor-0"/>
    </contour>
    <contour>
      <point x="637" y="707" type="qcurve" smooth="yes"/>
      <point x="637" y="676"/>
      <point x="586" y="618"/>
      <point x="557" y="618" type="qcurve" smooth="yes"/>
      <point x="479" y="618"/>
      <point x="408" y="745"/>
      <point x="346" y="745" type="qcurve" smooth="yes"/>
      <point x="323" y="745"/>
      <point x="295" y="715"/>
      <point x="295" y="694" type="qcurve" smooth="yes"/>
      <point x="295" y="643"/>
      <point x="543" y="360"/>
      <point x="543" y="139"/>
      <point x="356" y="-27"/>
      <point x="215" y="-27" type="qcurve" smooth="yes"/>
      <point x="141" y="-27"/>
      <point x="41" y="63"/>
      <point x="41" y="106" type="qcurve" smooth="yes"/>
      <point x="41" y="149"/>
      <point x="86" y="215"/>
      <point x="133" y="215" type="qcurve" smooth="yes"/>
      <point x="205" y="215"/>
      <point x="289" y="96"/>
      <point x="344" y="96" type="qcurve" smooth="yes"/>
      <point x="407" y="96"/>
      <point x="408" y="160" type="qcurve" smooth="yes"/>
      <point x="408" y="203"/>
      <point x="176" y="461"/>
      <point x="176" y="575" type="qcurve" smooth="yes"/>
      <point x="176" y="704"/>
      <point x="342" y="852"/>
      <point x="467" y="852" type="qcurve" smooth="yes"/>
      <point x="535" y="852"/>
      <point x="637" y="756"/>
    </contour>
  </outline>
</glyph>
<glyph name="t" format="1">
  <advance width="602"/>
  <unicode hex="0074"/>
  <outline>
    <contour>
      <point x="203" y="-76" type="move" name="Anchor1"/>
    </contour>
    <contour>
      <point x="203" y="-76" type="move" name="Anchor-1"/>
    </contour>
    <contour>
      <point x="311" y="233" type="line" smooth="yes"/>
      <point x="297" y="188"/>
      <point x="297" y="162" type="qcurve" smooth="yes"/>
      <point x="297" y="125"/>
      <point x="324" y="125" type="qcurve" smooth="yes"/>
      <point x="387" y="125"/>
      <point x="551" y="317" type="qcurve" smooth="yes"/>
      <point x="553" y="321"/>
      <point x="559" y="322" type="qcurve" smooth="yes"/>
      <point x="569" y="322"/>
      <point x="586" y="303" type="qcurve" smooth="yes"/>
      <point x="613" y="278"/>
      <point x="602" y="266" type="qcurve" smooth="yes"/>
      <point x="500" y="123"/>
      <point x="315" y="-27"/>
      <point x="209" y="-27" type="qcurve" smooth="yes"/>
      <point x="150" y="-27"/>
      <point x="84" y="55"/>
      <point x="84" y="104" type="qcurve" smooth="yes"/>
      <point x="84" y="147"/>
      <point x="94" y="180" type="qcurve" smooth="yes"/>
      <point x="260" y="713" type="line"/>
      <point x="100" y="713" type="line" smooth="yes"/>
      <point x="84" y="713"/>
      <point x="88" y="750" type="qcurve" smooth="yes"/>
      <point x="92" y="789"/>
      <point x="119" y="793" type="qcurve" smooth="yes"/>
      <point x="295" y="829" type="line"/>
      <point x="434" y="1026" type="line" smooth="yes"/>
      <point x="438" y="1032"/>
      <point x="463" y="1032" type="qcurve" smooth="yes"/>
      <point x="543" y="1032"/>
      <point x="543" y="995" type="qcurve" smooth="yes"/>
      <point x="543" y="989"/>
      <point x="541" y="981" type="qcurve" smooth="yes"/>
      <point x="489" y="819" type="line"/>
      <point x="729" y="819" type="line" smooth="yes"/>
      <point x="737" y="819"/>
      <point x="737" y="788"/>
      <point x="721" y="713"/>
      <point x="707" y="713" type="qcurve" smooth="yes"/>
      <point x="459" y="713" type="line"/>
    </contour>
  </outline>
</glyph>
<glyph name="u" format="1">
  <advance width="1017"/>
  <unicode hex="0075"/>
  <outline>
    <contour>
      <point x="379" y="-76" type="move" name="Anchor1"/>
    </contour>
    <contour>
      <point x="621" y="899" type="move" name="Anchor0"/>
    </contour>
    <contour>
      <point x="379" y="-76" type="move" name="Anchor-1"/>
    </contour>
    <contour>
      <point x="621" y="899" type="move" name="Anchor-0"/>
    </contour>
    <contour>
      <point x="823" y="231" type="line" smooth="yes"/>
      <point x="803" y="165"/>
      <point x="803" y="162" type="qcurve" smooth="yes"/>
      <point x="803" y="142"/>
      <point x="856" y="141"/>
      <point x="930" y="225" type="qcurve" smooth="yes"/>
      <point x="932" y="227"/>
      <point x="938" y="227" type="qcurve" smooth="yes"/>
      <point x="948" y="227"/>
      <point x="967" y="213" type="qcurve" smooth="yes"/>
      <point x="985" y="195"/>
      <point x="985" y="182" type="qcurve" smooth="yes"/>
      <point x="985" y="180"/>
      <point x="983" y="176" type="qcurve" smooth="yes"/>
      <point x="817" y="-27"/>
      <point x="698" y="-27" type="qcurve" smooth="yes"/>
      <point x="592" y="-27"/>
      <point x="592" y="94" type="qcurve" smooth="yes"/>
      <point x="592" y="129"/>
      <point x="604" y="170" type="qcurve" smooth="yes"/>
      <point x="649" y="322" type="line"/>
      <point x="549" y="185"/>
      <point x="315" y="-27"/>
      <point x="244" y="-27" type="qcurve" smooth="yes"/>
      <point x="119" y="-27"/>
      <point x="119" y="96" type="qcurve" smooth="yes"/>
      <point x="119" y="145"/>
      <point x="139" y="209" type="qcurve" smooth="yes"/>
      <point x="266" y="616" type="line" smooth="yes"/>
      <point x="280" y="663"/>
      <point x="281" y="670" type="qcurve" smooth="yes"/>
      <point x="281" y="688"/>
      <point x="244" y="688"/>
      <point x="217" y="666" type="qcurve" smooth="yes"/>
      <point x="190" y="643"/>
      <point x="162" y="604" type="qcurve" smooth="yes"/>
      <point x="158" y="600"/>
      <point x="154" y="598" type="qcurve" smooth="yes"/>
      <point x="144" y="598"/>
      <point x="106" y="631"/>
      <point x="106" y="643" type="qcurve" smooth="yes"/>
      <point x="106" y="647"/>
      <point x="109" y="651" type="qcurve" smooth="yes"/>
      <point x="265" y="852"/>
      <point x="399" y="852" type="qcurve" smooth="yes"/>
      <point x="489" y="852"/>
      <point x="489" y="727" type="qcurve" smooth="yes"/>
      <point x="489" y="690"/>
      <point x="473" y="639" type="qcurve" smooth="yes"/>
      <point x="377" y="332" type="line" smooth="yes"/>
      <point x="340" y="213"/>
      <point x="340" y="174" type="qcurve" smooth="yes"/>
      <point x="340" y="133"/>
      <point x="362" y="133" type="qcurve" smooth="yes"/>
      <point x="413" y="133"/>
      <point x="618" y="406"/>
      <point x="670" y="502" type="qcurve" smooth="yes"/>
      <point x="762" y="672"/>
      <point x="809" y="829" type="qcurve" smooth="yes"/>
      <point x="815" y="852"/>
      <point x="903" y="852" type="qcurve" smooth="yes"/>
      <point x="1016" y="852"/>
      <point x="1004" y="817" type="qcurve" smooth="yes"/>
    </contour>
  </outline>
</glyph>
<glyph name="v" format="1">
  <advance width="841"/>
  <unicode hex="0076"/>
  <outline>
    <contour>
      <point x="262" y="-76" type="move" name="Anchor1"/>
    </contour>
    <contour>
      <point x="580" y="899" type="move" name="Anchor0"/>
    </contour>
    <contour>
      <point x="262" y="-76" type="move" name="Anchor-1"/>
    </contour>
    <contour>
      <point x="580" y="899" type="move" name="Anchor-0"/>
    </contour>
    <contour>
      <point x="868" y="707" type="qcurve" smooth="yes"/>
      <point x="868" y="570"/>
      <point x="702" y="209"/>
      <point x="403" y="-27"/>
      <point x="272" y="-27" type="qcurve" smooth="yes"/>
      <point x="209" y="-27"/>
      <point x="139" y="29"/>
      <point x="113" y="123"/>
      <point x="129" y="174" type="qcurve" smooth="yes"/>
      <point x="256" y="582" type="line" smooth="yes"/>
      <point x="279" y="656"/>
      <point x="279" y="664" type="qcurve" smooth="yes"/>
      <point x="279" y="689"/>
      <point x="262" y="688" type="qcurve" smooth="yes"/>
      <point x="229" y="688"/>
      <point x="164" y="606" type="qcurve" smooth="yes"/>
      <point x="154" y="594"/>
      <point x="127" y="618" type="qcurve" smooth="yes"/>
      <point x="109" y="636"/>
      <point x="109" y="647" type="qcurve" smooth="yes"/>
      <point x="109" y="651"/>
      <point x="111" y="655" type="qcurve" smooth="yes"/>
      <point x="283" y="852"/>
      <point x="399" y="852" type="qcurve" smooth="yes"/>
      <point x="444" y="852"/>
      <point x="489" y="782"/>
      <point x="489" y="729" type="qcurve" smooth="yes"/>
      <point x="489" y="694"/>
      <point x="479" y="662" type="qcurve" smooth="yes"/>
      <point x="340" y="215" type="line" smooth="yes"/>
      <point x="326" y="170"/>
      <point x="334" y="131" type="qcurve" smooth="yes"/>
      <point x="344" y="88"/>
      <point x="387" y="88" type="qcurve" smooth="yes"/>
      <point x="475" y="88"/>
      <point x="698" y="420"/>
      <point x="698" y="567" type="qcurve" smooth="yes"/>
      <point x="698" y="659"/>
      <point x="649" y="750" type="qcurve"/>
      <point x="649" y="852"/>
      <point x="748" y="852" type="qcurve" smooth="yes"/>
      <point x="807" y="852"/>
      <point x="868" y="766"/>
    </contour>
  </outline>
</glyph>
<glyph name="w" format="1">
  <advance width="1257"/>
  <unicode hex="0077"/>
  <outline>
    <contour>
      <point x="477" y="-76" type="move" name="Anchor1"/>
    </contour>
    <contour>
      <point x="793" y="899" type="move" name="Anchor0"/>
    </contour>
    <contour>
      <point x="477" y="-76" type="move" name="Anchor-1"/>
    </contour>
    <contour>
      <point x="793" y="899" type="move" name="Anchor-0"/>
    </contour>
    <contour>
      <point x="1284" y="707" type="qcurve" smooth="yes"/>
      <point x="1284" y="586"/>
      <point x="1114" y="209"/>
      <point x="815" y="-27"/>
      <point x="688" y="-27" type="qcurve" smooth="yes"/>
      <point x="633" y="-27"/>
      <point x="596" y="-2" type="qcurve" smooth="yes"/>
      <point x="559" y="25"/>
      <point x="545" y="76" type="qcurve"/>
      <point x="400" y="-26"/>
      <point x="272" y="-27" type="qcurve" smooth="yes"/>
      <point x="198" y="-27"/>
      <point x="119" y="45"/>
      <point x="119" y="104" type="qcurve" smooth="yes"/>
      <point x="119" y="135"/>
      <point x="131" y="174" type="qcurve" smooth="yes"/>
      <point x="256" y="580" type="line" smooth="yes"/>
      <point x="279" y="656"/>
      <point x="279" y="688"/>
      <point x="233" y="688"/>
      <point x="164" y="606" type="qcurve" smooth="yes"/>
      <point x="160" y="602"/>
      <point x="143" y="602"/>
      <point x="109" y="637"/>
      <point x="109" y="649" type="qcurve" smooth="yes"/>
      <point x="109" y="655"/>
      <point x="113" y="659" type="qcurve" smooth="yes"/>
      <point x="283" y="852"/>
      <point x="399" y="852" type="qcurve" smooth="yes"/>
      <point x="489" y="852"/>
      <point x="489" y="733" type="qcurve" smooth="yes"/>
      <point x="489" y="690"/>
      <point x="479" y="659" type="qcurve" smooth="yes"/>
      <point x="340" y="213" type="line" smooth="yes"/>
      <point x="332" y="186"/>
      <point x="332" y="158" type="qcurve" smooth="yes"/>
      <point x="332" y="88"/>
      <point x="385" y="88" type="qcurve" smooth="yes"/>
      <point x="432" y="88"/>
      <point x="508" y="168"/>
      <point x="584" y="297"/>
      <point x="610" y="381" type="qcurve" smooth="yes"/>
      <point x="743" y="823" type="line" smooth="yes"/>
      <point x="751" y="852"/>
      <point x="940" y="852"/>
      <point x="940" y="829" type="qcurve" smooth="yes"/>
      <point x="940" y="823" type="line"/>
      <point x="752" y="211" type="line" smooth="yes"/>
      <point x="744" y="182"/>
      <point x="743" y="162" type="qcurve" smooth="yes"/>
      <point x="743" y="88"/>
      <point x="885" y="88"/>
      <point x="1112" y="410"/>
      <point x="1112" y="561" type="qcurve" smooth="yes"/>
      <point x="1112" y="657"/>
      <point x="1063" y="743" type="qcurve"/>
      <point x="1063" y="852"/>
      <point x="1165" y="852" type="qcurve" smooth="yes"/>
      <point x="1231" y="852"/>
      <point x="1284" y="758"/>
    </contour>
  </outline>
</glyph>
<glyph name="x" format="1">
  <advance width="899"/>
  <unicode hex="0078"/>
  <outline>
    <contour>
      <point x="346" y="-76" type="move" name="Anchor1"/>
    </contour>
    <contour>
      <point x="561" y="899" type="move" name="Anchor0"/>
    </contour>
    <contour>
      <point x="346" y="-76" type="move" name="Anchor-1"/>
    </contour>
    <contour>
      <point x="561" y="899" type="move" name="Anchor-0"/>
    </contour>
    <contour>
      <point x="954" y="743" type="qcurve" smooth="yes"/>
      <point x="954" y="626"/>
      <point x="868" y="627" type="qcurve" smooth="yes"/>
      <point x="833" y="627"/>
      <point x="801" y="705"/>
      <point x="776" y="705" type="qcurve" smooth="yes"/>
      <point x="737" y="705"/>
      <point x="686" y="635" type="qcurve" smooth="yes"/>
      <point x="555" y="457" type="line"/>
      <point x="653" y="264" type="line" smooth="yes"/>
      <point x="704" y="162"/>
      <point x="729" y="162" type="qcurve" smooth="yes"/>
      <point x="756" y="162"/>
      <point x="801" y="264" type="qcurve" smooth="yes"/>
      <point x="805" y="274"/>
      <point x="836" y="274"/>
      <point x="862" y="260"/>
      <point x="860" y="250" type="qcurve" smooth="yes"/>
      <point x="807" y="-26"/>
      <point x="682" y="-27" type="qcurve" smooth="yes"/>
      <point x="596" y="-27"/>
      <point x="512" y="125" type="qcurve" smooth="yes"/>
      <point x="426" y="283" type="line"/>
      <point x="328" y="147" type="line" smooth="yes"/>
      <point x="203" y="-27"/>
      <point x="100" y="-27" type="qcurve" smooth="yes"/>
      <point x="57" y="-27"/>
      <point x="4" y="20"/>
      <point x="4" y="61" type="qcurve" smooth="yes"/>
      <point x="4" y="116"/>
      <point x="57" y="199"/>
      <point x="92" y="199" type="qcurve" smooth="yes"/>
      <point x="127" y="199"/>
      <point x="172" y="125"/>
      <point x="178" y="125" type="qcurve" smooth="yes"/>
      <point x="213" y="125"/>
      <point x="252" y="180" type="qcurve" smooth="yes"/>
      <point x="385" y="362" type="line"/>
      <point x="274" y="578" type="line" smooth="yes"/>
      <point x="233" y="670"/>
      <point x="215" y="670" type="qcurve" smooth="yes"/>
      <point x="201" y="670"/>
      <point x="164" y="608"/>
      <point x="150" y="580" type="qcurve" smooth="yes"/>
      <point x="148" y="574"/>
      <point x="127" y="573"/>
      <point x="84" y="600"/>
      <point x="88" y="614" type="qcurve" smooth="yes"/>
      <point x="192" y="852"/>
      <point x="285" y="852" type="qcurve" smooth="yes"/>
      <point x="361" y="852"/>
      <point x="420" y="731" type="qcurve" smooth="yes"/>
      <point x="516" y="537" type="line"/>
      <point x="606" y="662" type="line" smooth="yes"/>
      <point x="743" y="852"/>
      <point x="846" y="852" type="qcurve" smooth="yes"/>
      <point x="903" y="852"/>
      <point x="954" y="794"/>
    </contour>
  </outline>
</glyph>
<glyph name="y" format="1">
  <advance width="780"/>
  <unicode hex="0079"/>
  <outline>
    <contour>
      <point x="516" y="899" type="move" name="Anchor0"/>
    </contour>
    <contour>
      <point x="516" y="899" type="move" name="Anchor-0"/>
    </contour>
    <contour>
      <point x="809" y="764" type="qcurve" smooth="yes"/>
      <point x="809" y="701"/>
      <point x="713" y="358"/>
      <point x="549" y="35"/>
      <point x="313" y="-375"/>
      <point x="102" y="-555"/>
      <point x="-4" y="-555" type="qcurve" smooth="yes"/>
      <point x="-65" y="-555"/>
      <point x="-152" y="-494"/>
      <point x="-152" y="-446" type="qcurve" smooth="yes"/>
      <point x="-152" y="-395"/>
      <point x="-98" y="-338"/>
      <point x="-51" y="-338" type="qcurve" smooth="yes"/>
      <point x="-10" y="-338"/>
      <point x="47" y="-432"/>
      <point x="129" y="-432"/>
      <point x="264" y="-291"/>
      <point x="317" y="-76"/>
      <point x="317" y="72" type="qcurve" smooth="yes"/>
      <point x="317" y="332"/>
      <point x="272" y="686"/>
      <point x="217" y="686" type="qcurve" smooth="yes"/>
      <point x="174" y="686"/>
      <point x="117" y="573" type="qcurve" smooth="yes"/>
      <point x="115" y="567"/>
      <point x="92" y="565"/>
      <point x="47" y="592"/>
      <point x="53" y="604" type="qcurve" smooth="yes"/>
      <point x="164" y="852"/>
      <point x="297" y="852" type="qcurve" smooth="yes"/>
      <point x="395" y="852"/>
      <point x="504" y="520"/>
      <point x="504" y="309" type="qcurve" smooth="yes"/>
      <point x="504" y="211"/>
      <point x="494" y="119" type="qcurve"/>
      <point x="506" y="115" type="line"/>
      <point x="565" y="232"/>
      <point x="647" y="547"/>
      <point x="647" y="645" type="qcurve" smooth="yes"/>
      <point x="647" y="700"/>
      <point x="621" y="760" type="qcurve"/>
      <point x="621" y="852"/>
      <point x="809" y="852"/>
    </contour>
  </outline>
</glyph>
<glyph name="z" format="1">
  <advance width="915"/>
  <unicode hex="007A"/>
  <outline>
    <contour>
      <point x="408" y="-76" type="move" name="Anchor1"/>
    </contour>
    <contour>
      <point x="592" y="899" type="move" name="Anchor0"/>
    </contour>
    <contour>
      <point x="408" y="-76" type="move" name="Anchor-1"/>
    </contour>
    <contour>
      <point x="592" y="899" type="move" name="Anchor-0"/>
    </contour>
    <contour>
      <point x="399" y="209" type="line"/>
      <point x="403" y="190" type="line"/>
      <point x="444" y="182" type="line" smooth="yes"/>
      <point x="550" y="164"/>
      <point x="713" y="72"/>
      <point x="729" y="72" type="qcurve" smooth="yes"/>
      <point x="790" y="72"/>
      <point x="791" y="127" type="qcurve" smooth="yes"/>
      <point x="791" y="145"/>
      <point x="731" y="205"/>
      <point x="731" y="254" type="qcurve" smooth="yes"/>
      <point x="731" y="328"/>
      <point x="827" y="328" type="qcurve" smooth="yes"/>
      <point x="868" y="328"/>
      <point x="924" y="260"/>
      <point x="924" y="215" type="qcurve" smooth="yes"/>
      <point x="924" y="111"/>
      <point x="762" y="-59"/>
      <point x="666" y="-59" type="qcurve" smooth="yes"/>
      <point x="619" y="-59"/>
      <point x="471" y="0"/>
      <point x="319" y="66"/>
      <point x="285" y="66" type="qcurve" smooth="yes"/>
      <point x="203" y="66"/>
      <point x="147" y="-20" type="qcurve" smooth="yes"/>
      <point x="143" y="-26"/>
      <point x="129" y="-27" type="qcurve" smooth="yes"/>
      <point x="109" y="-27"/>
      <point x="74" y="12" type="qcurve" smooth="yes"/>
      <point x="37" y="53"/>
      <point x="37" y="76" type="qcurve" smooth="yes"/>
      <point x="37" y="86"/>
      <point x="43" y="92" type="qcurve" smooth="yes"/>
      <point x="561" y="618" type="line" smooth="yes"/>
      <point x="573" y="630"/>
      <point x="573" y="641" type="qcurve" smooth="yes"/>
      <point x="573" y="655"/>
      <point x="553" y="664" type="qcurve" smooth="yes"/>
      <point x="459" y="701"/>
      <point x="340" y="696" type="qcurve" smooth="yes"/>
      <point x="287" y="694"/>
      <point x="287" y="674" type="qcurve" smooth="yes"/>
      <point x="287" y="666"/>
      <point x="352" y="604"/>
      <point x="352" y="567" type="qcurve" smooth="yes"/>
      <point x="352" y="481"/>
      <point x="256" y="479" type="qcurve" smooth="yes"/>
      <point x="154" y="479"/>
      <point x="154" y="592" type="qcurve" smooth="yes"/>
      <point x="154" y="692"/>
      <point x="342" y="842"/>
      <point x="459" y="842" type="qcurve" smooth="yes"/>
      <point x="512" y="842"/>
      <point x="700" y="786"/>
      <point x="743" y="786" type="qcurve" smooth="yes"/>
      <point x="794" y="786"/>
      <point x="815" y="811" type="qcurve" smooth="yes"/>
      <point x="856" y="854" type="line" smooth="yes"/>
      <point x="862" y="860"/>
      <point x="872" y="860" type="qcurve" smooth="yes"/>
      <point x="888" y="860"/>
      <point x="918" y="831" type="qcurve" smooth="yes"/>
      <point x="947" y="800"/>
      <point x="946" y="784" type="qcurve" smooth="yes"/>
      <point x="946" y="776"/>
      <point x="940" y="770" type="qcurve" smooth="yes"/>
    </contour>
  </outline>
</glyph>
<glyph name="braceleft" format="1">
  <advance width="782"/>
  <unicode hex="007B"/>
  <outline>
    <contour>
      <point x="1114" y="1493" type="qcurve" smooth="yes"/>
      <point x="1128" y="1493"/>
      <point x="1108" y="1417"/>
      <point x="1094" y="1417" type="qcurve" smooth="yes"/>
      <point x="959" y="1417"/>
      <point x="817" y="1327"/>
      <point x="778" y="1184" type="qcurve" smooth="yes"/>
      <point x="715" y="950" type="line" smooth="yes"/>
      <point x="695" y="874"/>
      <point x="670" y="801"/>
      <point x="621" y="705"/>
      <point x="551" y="643"/>
      <point x="498" y="616" type="qcurve"/>
      <point x="564" y="569"/>
      <point x="578" y="416"/>
      <point x="543" y="305" type="qcurve" smooth="yes"/>
      <point x="471" y="39" type="line" smooth="yes"/>
      <point x="426" y="-141"/>
      <point x="496" y="-244"/>
      <point x="649" y="-244" type="qcurve" smooth="yes"/>
      <point x="663" y="-244"/>
      <point x="643" y="-319"/>
      <point x="629" y="-319" type="qcurve" smooth="yes"/>
      <point x="606" y="-319" type="line" smooth="yes"/>
      <point x="538" y="-319"/>
      <point x="471" y="-317"/>
      <point x="360" y="-305"/>
      <point x="311" y="-283"/>
      <point x="248" y="-236"/>
      <point x="231" y="-166"/>
      <point x="233" y="-61"/>
      <point x="252" y="6" type="qcurve" smooth="yes"/>
      <point x="365" y="430" type="line" smooth="yes"/>
      <point x="388" y="512"/>
      <point x="336" y="586"/>
      <point x="254" y="586" type="qcurve" smooth="yes"/>
      <point x="238" y="586"/>
      <point x="254" y="647"/>
      <point x="270" y="647" type="qcurve" smooth="yes"/>
      <point x="352" y="647"/>
      <point x="442" y="719"/>
      <point x="463" y="797" type="qcurve" smooth="yes"/>
      <point x="551" y="1122" type="line" smooth="yes"/>
      <point x="569" y="1190"/>
      <point x="610" y="1296"/>
      <point x="666" y="1374"/>
      <point x="713" y="1427"/>
      <point x="793" y="1462"/>
      <point x="852" y="1483"/>
      <point x="965" y="1491"/>
      <point x="1040" y="1493"/>
    </contour>
  </outline>
</glyph>
<glyph name="braceright" format="1">
  <advance width="782"/>
  <unicode hex="007D"/>
  <outline>
    <contour>
      <point x="870" y="647" type="qcurve" smooth="yes"/>
      <point x="884" y="647"/>
      <point x="868" y="586"/>
      <point x="854" y="586" type="qcurve" smooth="yes"/>
      <point x="772" y="586"/>
      <point x="682" y="512"/>
      <point x="659" y="430" type="qcurve" smooth="yes"/>
      <point x="545" y="6" type="line" smooth="yes"/>
      <point x="529" y="-53"/>
      <point x="487" y="-150"/>
      <point x="430" y="-215"/>
      <point x="379" y="-264"/>
      <point x="297" y="-293"/>
      <point x="240" y="-311"/>
      <point x="135" y="-317"/>
      <point x="78" y="-319"/>
      <point x="16" y="-319" type="qcurve" smooth="yes"/>
      <point x="-6" y="-319" type="line" smooth="yes"/>
      <point x="-20" y="-319"/>
      <point x="-2" y="-244"/>
      <point x="14" y="-244" type="qcurve" smooth="yes"/>
      <point x="168" y="-244"/>
      <point x="295" y="-137"/>
      <point x="344" y="39" type="qcurve" smooth="yes"/>
      <point x="414" y="305" type="line" smooth="yes"/>
      <point x="449" y="430"/>
      <point x="535" y="569"/>
      <point x="625" y="616" type="qcurve"/>
      <point x="553" y="665"/>
      <point x="549" y="836"/>
      <point x="588" y="950" type="qcurve"/>
      <point x="649" y="1184" type="line" smooth="yes"/>
      <point x="688" y="1327"/>
      <point x="596" y="1417"/>
      <point x="459" y="1417" type="qcurve" smooth="yes"/>
      <point x="445" y="1417"/>
      <point x="465" y="1493"/>
      <point x="479" y="1493" type="qcurve" smooth="yes"/>
      <point x="553" y="1493"/>
      <point x="627" y="1491"/>
      <point x="735" y="1483"/>
      <point x="784" y="1462"/>
      <point x="846" y="1427"/>
      <point x="864" y="1374"/>
      <point x="879" y="1296"/>
      <point x="862" y="1190"/>
      <point x="844" y="1122" type="qcurve" smooth="yes"/>
      <point x="758" y="797" type="line" smooth="yes"/>
      <point x="735" y="719"/>
      <point x="788" y="647"/>
    </contour>
  </outline>
</glyph>
<glyph name="asciitilde" format="1">
  <advance width="741"/>
  <unicode hex="007E"/>
  <outline>
    <contour>
      <point x="735" y="518" type="qcurve" smooth="yes"/>
      <point x="727" y="510"/>
      <point x="662" y="434"/>
      <point x="614" y="389"/>
      <point x="528" y="346"/>
      <point x="481" y="346" type="qcurve" smooth="yes"/>
      <point x="430" y="346"/>
      <point x="233" y="438"/>
      <point x="188" y="438" type="qcurve" smooth="yes"/>
      <point x="141" y="438"/>
      <point x="59" y="367" type="qcurve" smooth="yes"/>
      <point x="45" y="353"/>
      <point x="-6" y="401"/>
      <point x="6" y="416" type="qcurve" smooth="yes"/>
      <point x="12" y="422"/>
      <point x="61" y="481"/>
      <point x="92" y="510"/>
      <point x="150" y="553"/>
      <point x="219" y="573"/>
      <point x="260" y="573" type="qcurve" smooth="yes"/>
      <point x="313" y="573"/>
      <point x="502" y="483"/>
      <point x="541" y="483" type="qcurve" smooth="yes"/>
      <point x="570" y="483"/>
      <point x="616" y="506"/>
      <point x="670" y="553"/>
      <point x="680" y="561" type="qcurve" smooth="yes"/>
      <point x="694" y="571"/>
      <point x="745" y="530"/>
    </contour>
  </outline>
</glyph>
<glyph name="exclamdown" format="1">
  <advance width="593"/>
  <unicode hex="00A1"/>
  <outline>
    <contour>
      <point x="478" y="557"/>
      <point x="412" y="557" type="qcurve" smooth="yes"/>
      <point x="349" y="557"/>
      <point x="254" y="651"/>
      <point x="254" y="715" type="qcurve" smooth="yes"/>
      <point x="254" y="781"/>
      <point x="346" y="872"/>
      <point x="477" y="872"/>
      <point x="571" y="780"/>
      <point x="571" y="649"/>
    </contour>
    <contour>
      <point x="367" y="399" type="qcurve" smooth="yes"/>
      <point x="209" y="-402"/>
      <point x="207" y="-412" type="qcurve" smooth="yes"/>
      <point x="191" y="-471"/>
      <point x="92" y="-553"/>
      <point x="41" y="-553" type="qcurve" smooth="yes"/>
      <point x="-115" y="-553"/>
      <point x="-63" y="-391" type="qcurve" smooth="yes"/>
      <point x="-57" y="-371"/>
      <point x="233" y="313"/>
      <point x="270" y="403" type="qcurve" smooth="yes"/>
      <point x="276" y="417"/>
      <point x="326" y="426"/>
      <point x="369" y="411"/>
    </contour>
  </outline>
</glyph>
<glyph name="cent" format="1">
  <advance width="878"/>
  <unicode hex="00A2"/>
  <outline>
    <contour>
      <point x="975" y="1030" type="qcurve" smooth="yes"/>
      <point x="977" y="1003"/>
      <point x="946" y="928"/>
      <point x="915" y="905" type="qcurve" smooth="yes"/>
      <point x="833" y="839"/>
      <point x="795" y="899" type="qcurve"/>
      <point x="780" y="942" type="line" smooth="yes"/>
      <point x="766" y="985"/>
      <point x="743" y="1004" type="qcurve"/>
      <point x="467" y="379" type="line"/>
      <point x="504" y="359"/>
      <point x="539" y="358" type="qcurve" smooth="yes"/>
      <point x="600" y="358"/>
      <point x="694" y="381"/>
      <point x="737" y="410"/>
      <point x="762" y="422" type="qcurve" smooth="yes"/>
      <point x="787" y="436"/>
      <point x="817" y="348"/>
      <point x="795" y="338" type="qcurve" smooth="yes"/>
      <point x="791" y="336"/>
      <point x="698" y="285"/>
      <point x="627" y="252"/>
      <point x="487" y="219"/>
      <point x="416" y="219" type="qcurve" smooth="yes"/>
      <point x="395" y="219" type="line"/>
      <point x="311" y="29" type="line" smooth="yes"/>
      <point x="305" y="17"/>
      <point x="201" y="37"/>
      <point x="205" y="49" type="qcurve" smooth="yes"/>
      <point x="291" y="244" type="line"/>
      <point x="213" y="279"/>
      <point x="119" y="424"/>
      <point x="119" y="522" type="qcurve" smooth="yes"/>
      <point x="119" y="624"/>
      <point x="223" y="842"/>
      <point x="303" y="924" type="qcurve" smooth="yes"/>
      <point x="473" y="1100"/>
      <point x="680" y="1118" type="qcurve"/>
      <point x="764" y="1311" type="line" smooth="yes"/>
      <point x="770" y="1325"/>
      <point x="874" y="1303"/>
      <point x="870" y="1290" type="qcurve" smooth="yes"/>
      <point x="793" y="1116" type="line"/>
      <point x="952" y="1098"/>
    </contour>
    <contour>
      <point x="635" y="1018" type="line"/>
      <point x="533" y="987"/>
      <point x="365" y="711"/>
      <point x="365" y="592" type="qcurve" smooth="yes"/>
      <point x="365" y="526"/>
      <point x="391" y="467" type="qcurve"/>
    </contour>
  </outline>
</glyph>
<glyph name="sterling" format="1">
  <advance width="1079"/>
  <unicode hex="00A3"/>
  <outline>
    <contour>
      <point x="1139" y="1167" type="qcurve" smooth="yes"/>
      <point x="1139" y="1138"/>
      <point x="1083" y="1047"/>
      <point x="1042" y="1047" type="qcurve" smooth="yes"/>
      <point x="1019" y="1047"/>
      <point x="983" y="1106"/>
      <point x="956" y="1178"/>
      <point x="889" y="1237"/>
      <point x="842" y="1237" type="qcurve" smooth="yes"/>
      <point x="787" y="1237"/>
      <point x="707" y="1094"/>
      <point x="680" y="903"/>
      <point x="659" y="713"/>
      <point x="659" y="664" type="qcurve"/>
      <point x="948" y="664" type="line" smooth="yes"/>
      <point x="962" y="664"/>
      <point x="946" y="571"/>
      <point x="932" y="571" type="qcurve" smooth="yes"/>
      <point x="645" y="571" type="line"/>
      <point x="629" y="469"/>
      <point x="487" y="264"/>
      <point x="393" y="197" type="qcurve"/>
      <point x="465" y="207"/>
      <point x="608" y="139"/>
      <point x="729" y="61"/>
      <point x="766" y="61" type="qcurve" smooth="yes"/>
      <point x="795" y="61"/>
      <point x="819" y="119"/>
      <point x="813" y="184"/>
      <point x="815" y="209" type="qcurve" smooth="yes"/>
      <point x="815" y="305"/>
      <point x="899" y="305" type="qcurve" smooth="yes"/>
      <point x="954" y="305"/>
      <point x="1012" y="227"/>
      <point x="1012" y="182" type="qcurve" smooth="yes"/>
      <point x="1012" y="102"/>
      <point x="874" y="-12"/>
      <point x="721" y="-53"/>
      <point x="653" y="-53" type="qcurve" smooth="yes"/>
      <point x="583" y="-53"/>
      <point x="446" y="-4"/>
      <point x="283" y="78"/>
      <point x="233" y="96" type="qcurve"/>
      <point x="200" y="88"/>
      <point x="166" y="45"/>
      <point x="154" y="2"/>
      <point x="106" y="-31"/>
      <point x="63" y="-31" type="qcurve" smooth="yes"/>
      <point x="22" y="-31"/>
      <point x="-45" y="12"/>
      <point x="-45" y="51" type="qcurve" smooth="yes"/>
      <point x="-45" y="84"/>
      <point x="16" y="141"/>
      <point x="111" y="176"/>
      <point x="190" y="197"/>
      <point x="227" y="201" type="qcurve" smooth="yes"/>
      <point x="305" y="211"/>
      <point x="399" y="446"/>
      <point x="410" y="571" type="qcurve"/>
      <point x="193" y="571" type="line" smooth="yes"/>
      <point x="177" y="571"/>
      <point x="201" y="664"/>
      <point x="215" y="664" type="qcurve" smooth="yes"/>
      <point x="422" y="664" type="line"/>
      <point x="436" y="779"/>
      <point x="465" y="926"/>
      <point x="545" y="1120"/>
      <point x="604" y="1184" type="qcurve" smooth="yes"/>
      <point x="737" y="1323"/>
      <point x="907" y="1323" type="qcurve" smooth="yes"/>
      <point x="1139" y="1323"/>
    </contour>
  </outline>
</glyph>
<glyph name="currency" format="1">
  <advance width="1024"/>
  <unicode hex="00A4"/>
  <outline>
    <contour>
      <point x="946" y="523"/>
      <point x="858" y="406" type="qcurve"/>
      <point x="926" y="496"/>
      <point x="935" y="376" type="qcurve" smooth="yes"/>
      <point x="936" y="328" type="line" smooth="yes"/>
      <point x="936" y="328" type="line" smooth="yes"/>
      <point x="946" y="318"/>
      <point x="862" y="233"/>
      <point x="852" y="244" type="qcurve" smooth="yes"/>
      <point x="774" y="322" type="line"/>
      <point x="657" y="234"/>
      <point x="514" y="233" type="qcurve" smooth="yes"/>
      <point x="369" y="233"/>
      <point x="252" y="324" type="qcurve"/>
      <point x="172" y="244" type="line" smooth="yes"/>
      <point x="162" y="234"/>
      <point x="78" y="317"/>
      <point x="88" y="328" type="qcurve" smooth="yes"/>
      <point x="168" y="408" type="line"/>
      <point x="80" y="523"/>
      <point x="80" y="813"/>
      <point x="168" y="928" type="qcurve"/>
      <point x="88" y="1008" type="line" smooth="yes"/>
      <point x="78" y="1018"/>
      <point x="162" y="1102"/>
      <point x="172" y="1092" type="qcurve" smooth="yes"/>
      <point x="252" y="1012" type="line"/>
      <point x="369" y="1102"/>
      <point x="512" y="1102" type="qcurve" smooth="yes"/>
      <point x="657" y="1102"/>
      <point x="774" y="1014" type="qcurve"/>
      <point x="852" y="1092" type="line" smooth="yes"/>
      <point x="862" y="1102"/>
      <point x="946" y="1018"/>
      <point x="936" y="1008" type="qcurve" smooth="yes"/>
      <point x="858" y="930" type="line"/>
      <point x="946" y="813"/>
    </contour>
    <contour>
      <point x="643" y="979"/>
      <point x="512" y="979" type="qcurve" smooth="yes"/>
      <point x="383" y="979"/>
      <point x="201" y="797"/>
      <point x="201" y="539"/>
      <point x="293" y="446" type="qcurve" smooth="yes"/>
      <point x="383" y="356"/>
      <point x="512" y="356" type="qcurve" smooth="yes"/>
      <point x="643" y="356"/>
      <point x="733" y="446" type="qcurve" smooth="yes"/>
      <point x="825" y="538"/>
      <point x="825" y="797"/>
    </contour>
  </outline>
</glyph>
<glyph name="yen" format="1">
  <advance width="1267"/>
  <unicode hex="00A5"/>
  <outline>
    <contour>
      <point x="434" y="217" type="qcurve" smooth="yes"/>
      <point x="510" y="465" type="line"/>
      <point x="160" y="467" type="line" smooth="yes"/>
      <point x="144" y="467"/>
      <point x="174" y="569"/>
      <point x="186" y="567" type="qcurve" smooth="yes"/>
      <point x="539" y="567" type="line"/>
      <point x="537" y="614"/>
      <point x="516" y="678" type="qcurve" smooth="yes"/>
      <point x="492" y="752" type="line"/>
      <point x="236" y="754" type="line" smooth="yes"/>
      <point x="222" y="754"/>
      <point x="250" y="856"/>
      <point x="264" y="854" type="qcurve" smooth="yes"/>
      <point x="457" y="854" type="line"/>
      <point x="365" y="1139" type="line" smooth="yes"/>
      <point x="345" y="1205"/>
      <point x="276" y="1270"/>
      <point x="207" y="1270" type="qcurve" smooth="yes"/>
      <point x="193" y="1270"/>
      <point x="213" y="1364"/>
      <point x="227" y="1364" type="qcurve" smooth="yes"/>
      <point x="284" y="1358"/>
      <point x="676" y="1358"/>
      <point x="733" y="1364" type="qcurve" smooth="yes"/>
      <point x="749" y="1364"/>
      <point x="725" y="1270"/>
      <point x="713" y="1270" type="qcurve" smooth="yes"/>
      <point x="629" y="1270"/>
      <point x="580" y="1227"/>
      <point x="602" y="1157" type="qcurve" smooth="yes"/>
      <point x="733" y="754" type="line" smooth="yes"/>
      <point x="749" y="709"/>
      <point x="786" y="752" type="qcurve" smooth="yes"/>
      <point x="1174" y="1157" type="line" smooth="yes"/>
      <point x="1233" y="1220"/>
      <point x="1206" y="1270"/>
      <point x="1126" y="1270" type="qcurve" smooth="yes"/>
      <point x="1112" y="1270"/>
      <point x="1139" y="1364"/>
      <point x="1151" y="1364" type="qcurve" smooth="yes"/>
      <point x="1208" y="1358"/>
      <point x="1520" y="1358"/>
      <point x="1579" y="1364" type="qcurve" smooth="yes"/>
      <point x="1593" y="1364"/>
      <point x="1571" y="1270"/>
      <point x="1554" y="1270" type="qcurve" smooth="yes"/>
      <point x="1454" y="1270"/>
      <point x="1341" y="1198"/>
      <point x="1198" y="1044" type="qcurve" smooth="yes"/>
      <point x="1020" y="854" type="line"/>
      <point x="1208" y="856" type="line" smooth="yes"/>
      <point x="1220" y="856"/>
      <point x="1196" y="754"/>
      <point x="1180" y="752" type="qcurve" smooth="yes"/>
      <point x="924" y="752" type="line"/>
      <point x="819" y="641" type="line" smooth="yes"/>
      <point x="786" y="608"/>
      <point x="774" y="567" type="qcurve"/>
      <point x="1133" y="569" type="line" smooth="yes"/>
      <point x="1145" y="569"/>
      <point x="1118" y="467"/>
      <point x="1104" y="465" type="qcurve" smooth="yes"/>
      <point x="741" y="465" type="line"/>
      <point x="666" y="201" type="line" smooth="yes"/>
      <point x="646" y="131"/>
      <point x="698" y="86"/>
      <point x="782" y="86" type="qcurve" smooth="yes"/>
      <point x="796" y="86"/>
      <point x="772" y="-8"/>
      <point x="758" y="-8" type="qcurve" smooth="yes"/>
      <point x="682" y="0"/>
      <point x="307" y="0"/>
      <point x="231" y="-8" type="qcurve" smooth="yes"/>
      <point x="219" y="-8"/>
      <point x="242" y="86"/>
      <point x="256" y="86" type="qcurve" smooth="yes"/>
      <point x="340" y="86"/>
      <point x="411" y="141"/>
    </contour>
  </outline>
</glyph>
<glyph name="brokenbar" format="1">
  <advance width="579"/>
  <unicode hex="00A6"/>
  <outline>
    <contour>
      <point x="467" y="795" type="line"/>
      <point x="272" y="795" type="line"/>
      <point x="272" y="1372" type="line"/>
      <point x="467" y="1372" type="line"/>
    </contour>
    <contour>
      <point x="467" y="109" type="line"/>
      <point x="272" y="109" type="line"/>
      <point x="272" y="688" type="line"/>
      <point x="467" y="688" type="line"/>
    </contour>
  </outline>
</glyph>
